<svg xmlns="http://www.w3.org/2000/svg" xmlns:xlink="http://www.w3.org/1999/xlink" width="85" zoomAndPan="magnify" viewBox="0 0 63.75 66" height="88" preserveAspectRatio="xMidYMid meet" version="1.0"><defs><filter x="0%" y="0%" width="100%" height="100%" id="371d22d039"><feColorMatrix values="0 0 0 0 1 0 0 0 0 1 0 0 0 0 1 0 0 0 1 0" color-interpolation-filters="sRGB"/></filter><g/><clipPath id="c7f04aef16"><path d="M 0 0.128906 L 63 0.128906 L 63 65.871094 L 0 65.871094 Z M 0 0.128906 " clip-rule="nonzero"/></clipPath><mask id="33a9f9cdab"><g filter="url(#371d22d039)"><rect x="-6.375" width="76.5" fill="#000000" y="-6.6" height="79.2" fill-opacity="0.97"/></g></mask><clipPath id="1329f1ba95"><path d="M 0 0.128906 L 62.824219 0.128906 L 62.824219 65.871094 L 0 65.871094 Z M 0 0.128906 " clip-rule="nonzero"/></clipPath><clipPath id="a33a744d7c"><path d="M 5.976562 0.128906 L 56.847656 0.128906 C 58.429688 0.128906 59.953125 0.757812 61.074219 1.878906 C 62.191406 3 62.824219 4.519531 62.824219 6.105469 L 62.824219 59.894531 C 62.824219 61.476562 62.191406 63 61.074219 64.121094 C 59.953125 65.242188 58.429688 65.871094 56.847656 65.871094 L 5.976562 65.871094 C 4.390625 65.871094 2.871094 65.242188 1.75 64.121094 C 0.628906 63 0 61.476562 0 59.894531 L 0 6.105469 C 0 4.519531 0.628906 3 1.75 1.878906 C 2.871094 0.757812 4.390625 0.128906 5.976562 0.128906 Z M 5.976562 0.128906 " clip-rule="nonzero"/></clipPath><clipPath id="15df83f3a1"><rect x="0" width="63" y="0" height="66"/></clipPath><clipPath id="57967fa35c"><path d="M 18 10.089844 L 51 10.089844 L 51 38.476562 L 18 38.476562 Z M 18 10.089844 " clip-rule="nonzero"/></clipPath></defs><g clip-path="url(#c7f04aef16)"><g mask="url(#33a9f9cdab)"><g transform="matrix(1, 0, 0, 1, 0, -0.000000000000011935)"><g clip-path="url(#15df83f3a1)"><g clip-path="url(#1329f1ba95)"><g clip-path="url(#a33a744d7c)"><path fill="#ffffff" d="M 0 0.128906 L 62.824219 0.128906 L 62.824219 65.898438 L 0 65.898438 Z M 0 0.128906 " fill-opacity="1" fill-rule="nonzero"/></g></g></g></g></g></g><g clip-path="url(#57967fa35c)"><path fill="#336010" d="M 25.640625 26.773438 C 25.96875 26.992188 26.074219 27.1875 26.464844 27.433594 C 26.824219 27.652344 27.117188 27.769531 27.496094 28.007812 C 28.4375 28.582031 28.492188 28.570312 29.011719 28.234375 C 29.359375 28 28.957031 28.097656 29.574219 28.136719 C 32.199219 28.304688 32.726562 27.730469 33.683594 27.859375 C 34.113281 27.917969 34.546875 28.046875 35.089844 28.046875 C 35.089844 28.648438 35.003906 29.589844 34.929688 30.222656 C 34.863281 30.683594 35.027344 31.78125 34.992188 32.511719 C 34.960938 33.125 34.808594 34.054688 34.6875 34.558594 C 34.527344 35.21875 34.417969 35.910156 34.355469 36.652344 C 35.578125 36.9375 34.613281 37.3125 35.285156 37.847656 C 35.621094 38.113281 36.703125 38.125 37.117188 37.9375 C 36.695312 36.355469 35.535156 38.28125 35.957031 33.699219 C 36.066406 32.570312 36.476562 32.808594 36.683594 31.554688 L 37.179688 29.925781 C 37.234375 29.816406 37.234375 29.804688 37.28125 29.707031 L 37.429688 29.429688 C 37.429688 30.003906 37.886719 31.5625 37.960938 32.511719 C 38.046875 33.726562 37.851562 34.773438 37.851562 36.019531 C 38.222656 36.265625 38.222656 36.117188 38.382812 36.445312 C 38.621094 36.949219 38.210938 37.402344 40.300781 37.402344 C 40.203125 36.285156 39.511719 37.105469 39.1875 34.902344 C 38.882812 32.820312 39.359375 32.148438 39.46875 31.574219 C 39.578125 30.953125 39.316406 28.964844 39.804688 28.402344 C 39.847656 28.34375 40.171875 28.105469 40.269531 28.027344 C 41.253906 27.246094 42.546875 25.617188 43.316406 24.589844 L 45.382812 21.132812 C 45.613281 20.699219 45.4375 20.894531 45.851562 20.640625 C 46.957031 19.957031 46.707031 19.59375 46.71875 18.921875 C 46.71875 18.566406 46.945312 17.792969 46.988281 17.320312 C 47.550781 17.269531 47.507812 17.042969 48.0625 17.410156 C 49.003906 18.019531 50.335938 16.816406 50.488281 16.152344 C 50.226562 15.75 49.761719 15.433594 49.035156 15.53125 C 48.148438 15.648438 47.789062 16.242188 47.628906 15.621094 C 49.015625 15.621094 50.066406 14.78125 50.5 13.8125 C 51.019531 12.617188 50.410156 10.820312 49.644531 10.304688 C 49.71875 10.652344 50.800781 13.171875 49.113281 14.019531 C 48.167969 14.503906 47.628906 14.160156 47.160156 13.851562 C 46.457031 13.398438 45.839844 13.675781 44.875 13.59375 C 43.964844 13.515625 43.488281 13.300781 42.664062 13.742188 C 41.277344 14.484375 39.859375 13.617188 39.609375 12.273438 C 39.414062 11.265625 39.816406 10.78125 39.976562 10.089844 C 39.292969 10.277344 37.949219 13.023438 40.117188 14.742188 C 40.441406 15 40.488281 14.878906 40.726562 15.195312 C 39.859375 14.988281 40.019531 14.9375 38.613281 14.652344 C 37.496094 14.425781 34.765625 14.308594 33.726562 14.671875 C 33.042969 14.917969 32.707031 15.363281 31.949219 15.550781 C 30.832031 15.839844 28.089844 15.484375 26.726562 15.628906 C 23.746094 15.964844 24.90625 15.007812 22.207031 16.222656 C 19.347656 17.507812 16.984375 17.210938 19.019531 23.304688 C 19.703125 25.371094 19.324219 24.273438 18.859375 26.457031 C 18.773438 26.8125 18.730469 27.238281 18.664062 27.542969 C 18.4375 28.609375 18.632812 28.332031 19.128906 29.46875 C 19.445312 30.191406 19.152344 29.863281 19.800781 30.171875 C 19.800781 29.558594 19.910156 29.234375 19.910156 28.789062 C 19.921875 27.957031 19.410156 27.613281 19.898438 26.121094 C 20.09375 25.507812 20.125 25.566406 20.125 24.757812 C 20.832031 25.578125 21.316406 27.03125 21.113281 28.078125 C 20.949219 28.898438 20.765625 29.035156 20.472656 29.675781 C 20.117188 30.429688 20.570312 30.734375 20.796875 31.40625 C 21.175781 32.503906 21.480469 33.746094 21.730469 34.941406 C 22.097656 36.75 21.492188 36.492188 22.683594 37.390625 C 22.910156 37.558594 23.019531 37.828125 23.09375 38.144531 C 24.742188 38.144531 24.816406 38.054688 24.472656 37.402344 C 25.132812 37.453125 25.089844 37.984375 25.542969 38.242188 C 25.988281 38.488281 26.769531 38.320312 27.125 38.144531 C 26.964844 37.894531 25.632812 36.996094 25.175781 36.058594 C 24.949219 35.566406 24.816406 35.082031 24.578125 34.644531 C 23.140625 32.027344 24.234375 31.140625 25.023438 28.285156 C 25.285156 27.375 25.25 27.523438 25.640625 26.773438 Z M 21.695312 32.195312 C 22.589844 33.199219 22.675781 33.328125 23.367188 34.460938 C 24.023438 35.539062 24.085938 36.789062 23.726562 36.683594 C 23.367188 36.578125 21.695312 32.195312 21.695312 32.195312 Z M 21.695312 32.195312 " fill-opacity="1" fill-rule="evenodd"/></g><g fill="#336010" fill-opacity="1"><g transform="translate(12.159294, 45.769415)"><g><path d="M 0.375 -3.0625 C 0.375 -3.664062 0.507812 -4.207031 0.78125 -4.6875 C 1.050781 -5.164062 1.421875 -5.535156 1.890625 -5.796875 C 2.359375 -6.066406 2.875 -6.203125 3.4375 -6.203125 C 4.101562 -6.203125 4.6875 -6.039062 5.1875 -5.71875 C 5.6875 -5.40625 6.050781 -4.953125 6.28125 -4.359375 L 5.328125 -4.359375 C 5.148438 -4.722656 4.898438 -5.003906 4.578125 -5.203125 C 4.265625 -5.398438 3.882812 -5.5 3.4375 -5.5 C 3.007812 -5.5 2.625 -5.398438 2.28125 -5.203125 C 1.945312 -5.003906 1.679688 -4.722656 1.484375 -4.359375 C 1.296875 -3.992188 1.203125 -3.5625 1.203125 -3.0625 C 1.203125 -2.582031 1.296875 -2.15625 1.484375 -1.78125 C 1.679688 -1.414062 1.945312 -1.132812 2.28125 -0.9375 C 2.625 -0.738281 3.007812 -0.640625 3.4375 -0.640625 C 3.882812 -0.640625 4.265625 -0.738281 4.578125 -0.9375 C 4.898438 -1.132812 5.148438 -1.414062 5.328125 -1.78125 L 6.28125 -1.78125 C 6.050781 -1.195312 5.6875 -0.742188 5.1875 -0.421875 C 4.6875 -0.109375 4.101562 0.046875 3.4375 0.046875 C 2.875 0.046875 2.359375 -0.0820312 1.890625 -0.34375 C 1.421875 -0.613281 1.050781 -0.984375 0.78125 -1.453125 C 0.507812 -1.929688 0.375 -2.46875 0.375 -3.0625 Z M 0.375 -3.0625 "/></g></g></g><g fill="#336010" fill-opacity="1"><g transform="translate(18.948463, 45.769415)"><g><path d="M 0.375 -2.421875 C 0.375 -2.921875 0.472656 -3.351562 0.671875 -3.71875 C 0.867188 -4.09375 1.140625 -4.382812 1.484375 -4.59375 C 1.835938 -4.800781 2.234375 -4.90625 2.671875 -4.90625 C 3.085938 -4.90625 3.453125 -4.8125 3.765625 -4.625 C 4.078125 -4.445312 4.304688 -4.21875 4.453125 -3.9375 L 4.453125 -4.828125 L 5.265625 -4.828125 L 5.265625 0 L 4.453125 0 L 4.453125 -0.890625 C 4.296875 -0.609375 4.0625 -0.375 3.75 -0.1875 C 3.4375 -0.0078125 3.070312 0.078125 2.65625 0.078125 C 2.226562 0.078125 1.835938 -0.0234375 1.484375 -0.234375 C 1.140625 -0.441406 0.867188 -0.738281 0.671875 -1.125 C 0.472656 -1.507812 0.375 -1.941406 0.375 -2.421875 Z M 4.453125 -2.421875 C 4.453125 -2.785156 4.378906 -3.101562 4.234375 -3.375 C 4.085938 -3.644531 3.890625 -3.847656 3.640625 -3.984375 C 3.390625 -4.128906 3.117188 -4.203125 2.828125 -4.203125 C 2.523438 -4.203125 2.25 -4.128906 2 -3.984375 C 1.757812 -3.847656 1.566406 -3.644531 1.421875 -3.375 C 1.273438 -3.101562 1.203125 -2.785156 1.203125 -2.421875 C 1.203125 -2.054688 1.273438 -1.738281 1.421875 -1.46875 C 1.566406 -1.195312 1.757812 -0.988281 2 -0.84375 C 2.25 -0.695312 2.523438 -0.625 2.828125 -0.625 C 3.117188 -0.625 3.390625 -0.695312 3.640625 -0.84375 C 3.890625 -0.988281 4.085938 -1.195312 4.234375 -1.46875 C 4.378906 -1.738281 4.453125 -2.054688 4.453125 -2.421875 Z M 4.453125 -2.421875 "/></g></g></g><g fill="#336010" fill-opacity="1"><g transform="translate(24.893383, 45.769415)"><g><path d="M 1.484375 -4.03125 C 1.617188 -4.3125 1.816406 -4.523438 2.078125 -4.671875 C 2.335938 -4.828125 2.65625 -4.90625 3.03125 -4.90625 L 3.03125 -4.078125 L 2.828125 -4.078125 C 1.929688 -4.078125 1.484375 -3.59375 1.484375 -2.625 L 1.484375 0 L 0.671875 0 L 0.671875 -4.828125 L 1.484375 -4.828125 Z M 1.484375 -4.03125 "/></g></g></g><g fill="#336010" fill-opacity="1"><g transform="translate(28.173639, 45.769415)"><g><path d="M 0.375 -2.421875 C 0.375 -2.921875 0.472656 -3.351562 0.671875 -3.71875 C 0.867188 -4.09375 1.140625 -4.382812 1.484375 -4.59375 C 1.835938 -4.800781 2.234375 -4.90625 2.671875 -4.90625 C 3.085938 -4.90625 3.453125 -4.8125 3.765625 -4.625 C 4.078125 -4.445312 4.304688 -4.21875 4.453125 -3.9375 L 4.453125 -4.828125 L 5.265625 -4.828125 L 5.265625 0 L 4.453125 0 L 4.453125 -0.890625 C 4.296875 -0.609375 4.0625 -0.375 3.75 -0.1875 C 3.4375 -0.0078125 3.070312 0.078125 2.65625 0.078125 C 2.226562 0.078125 1.835938 -0.0234375 1.484375 -0.234375 C 1.140625 -0.441406 0.867188 -0.738281 0.671875 -1.125 C 0.472656 -1.507812 0.375 -1.941406 0.375 -2.421875 Z M 4.453125 -2.421875 C 4.453125 -2.785156 4.378906 -3.101562 4.234375 -3.375 C 4.085938 -3.644531 3.890625 -3.847656 3.640625 -3.984375 C 3.390625 -4.128906 3.117188 -4.203125 2.828125 -4.203125 C 2.523438 -4.203125 2.25 -4.128906 2 -3.984375 C 1.757812 -3.847656 1.566406 -3.644531 1.421875 -3.375 C 1.273438 -3.101562 1.203125 -2.785156 1.203125 -2.421875 C 1.203125 -2.054688 1.273438 -1.738281 1.421875 -1.46875 C 1.566406 -1.195312 1.757812 -0.988281 2 -0.84375 C 2.25 -0.695312 2.523438 -0.625 2.828125 -0.625 C 3.117188 -0.625 3.390625 -0.695312 3.640625 -0.84375 C 3.890625 -0.988281 4.085938 -1.195312 4.234375 -1.46875 C 4.378906 -1.738281 4.453125 -2.054688 4.453125 -2.421875 Z M 4.453125 -2.421875 "/></g></g></g><g fill="#336010" fill-opacity="1"><g transform="translate(34.118559, 45.769415)"><g><path d="M 1.484375 -3.921875 C 1.640625 -4.210938 1.875 -4.445312 2.1875 -4.625 C 2.507812 -4.8125 2.875 -4.90625 3.28125 -4.90625 C 3.71875 -4.90625 4.109375 -4.800781 4.453125 -4.59375 C 4.796875 -4.382812 5.066406 -4.09375 5.265625 -3.71875 C 5.460938 -3.351562 5.5625 -2.921875 5.5625 -2.421875 C 5.5625 -1.941406 5.460938 -1.507812 5.265625 -1.125 C 5.066406 -0.738281 4.789062 -0.441406 4.4375 -0.234375 C 4.09375 -0.0234375 3.707031 0.078125 3.28125 0.078125 C 2.863281 0.078125 2.5 -0.0078125 2.1875 -0.1875 C 1.875 -0.375 1.640625 -0.609375 1.484375 -0.890625 L 1.484375 0 L 0.671875 0 L 0.671875 -6.515625 L 1.484375 -6.515625 Z M 4.75 -2.421875 C 4.75 -2.785156 4.675781 -3.101562 4.53125 -3.375 C 4.382812 -3.644531 4.1875 -3.847656 3.9375 -3.984375 C 3.6875 -4.128906 3.410156 -4.203125 3.109375 -4.203125 C 2.816406 -4.203125 2.546875 -4.128906 2.296875 -3.984375 C 2.046875 -3.847656 1.847656 -3.640625 1.703125 -3.359375 C 1.554688 -3.085938 1.484375 -2.773438 1.484375 -2.421875 C 1.484375 -2.054688 1.554688 -1.738281 1.703125 -1.46875 C 1.847656 -1.195312 2.046875 -0.988281 2.296875 -0.84375 C 2.546875 -0.695312 2.816406 -0.625 3.109375 -0.625 C 3.410156 -0.625 3.6875 -0.695312 3.9375 -0.84375 C 4.1875 -0.988281 4.382812 -1.195312 4.53125 -1.46875 C 4.675781 -1.738281 4.75 -2.054688 4.75 -2.421875 Z M 4.75 -2.421875 "/></g></g></g><g fill="#336010" fill-opacity="1"><g transform="translate(40.063479, 45.769415)"><g><path d="M 0.375 -2.421875 C 0.375 -2.921875 0.472656 -3.351562 0.671875 -3.71875 C 0.867188 -4.09375 1.140625 -4.382812 1.484375 -4.59375 C 1.835938 -4.800781 2.234375 -4.90625 2.671875 -4.90625 C 3.085938 -4.90625 3.453125 -4.8125 3.765625 -4.625 C 4.078125 -4.445312 4.304688 -4.21875 4.453125 -3.9375 L 4.453125 -4.828125 L 5.265625 -4.828125 L 5.265625 0 L 4.453125 0 L 4.453125 -0.890625 C 4.296875 -0.609375 4.0625 -0.375 3.75 -0.1875 C 3.4375 -0.0078125 3.070312 0.078125 2.65625 0.078125 C 2.226562 0.078125 1.835938 -0.0234375 1.484375 -0.234375 C 1.140625 -0.441406 0.867188 -0.738281 0.671875 -1.125 C 0.472656 -1.507812 0.375 -1.941406 0.375 -2.421875 Z M 4.453125 -2.421875 C 4.453125 -2.785156 4.378906 -3.101562 4.234375 -3.375 C 4.085938 -3.644531 3.890625 -3.847656 3.640625 -3.984375 C 3.390625 -4.128906 3.117188 -4.203125 2.828125 -4.203125 C 2.523438 -4.203125 2.25 -4.128906 2 -3.984375 C 1.757812 -3.847656 1.566406 -3.644531 1.421875 -3.375 C 1.273438 -3.101562 1.203125 -2.785156 1.203125 -2.421875 C 1.203125 -2.054688 1.273438 -1.738281 1.421875 -1.46875 C 1.566406 -1.195312 1.757812 -0.988281 2 -0.84375 C 2.25 -0.695312 2.523438 -0.625 2.828125 -0.625 C 3.117188 -0.625 3.390625 -0.695312 3.640625 -0.84375 C 3.890625 -0.988281 4.085938 -1.195312 4.234375 -1.46875 C 4.378906 -1.738281 4.453125 -2.054688 4.453125 -2.421875 Z M 4.453125 -2.421875 "/></g></g></g><g fill="#336010" fill-opacity="1"><g transform="translate(46.0084, 45.769415)"><g><path d="M 2.78125 0.078125 C 2.332031 0.078125 1.921875 -0.0195312 1.546875 -0.21875 C 1.179688 -0.425781 0.894531 -0.71875 0.6875 -1.09375 C 0.476562 -1.476562 0.375 -1.921875 0.375 -2.421875 C 0.375 -2.910156 0.476562 -3.34375 0.6875 -3.71875 C 0.90625 -4.101562 1.195312 -4.394531 1.5625 -4.59375 C 1.9375 -4.800781 2.351562 -4.90625 2.8125 -4.90625 C 3.269531 -4.90625 3.679688 -4.800781 4.046875 -4.59375 C 4.421875 -4.394531 4.710938 -4.109375 4.921875 -3.734375 C 5.140625 -3.359375 5.25 -2.921875 5.25 -2.421875 C 5.25 -1.921875 5.140625 -1.476562 4.921875 -1.09375 C 4.703125 -0.71875 4.40625 -0.425781 4.03125 -0.21875 C 3.65625 -0.0195312 3.238281 0.078125 2.78125 0.078125 Z M 2.78125 -0.625 C 3.0625 -0.625 3.328125 -0.691406 3.578125 -0.828125 C 3.835938 -0.960938 4.046875 -1.164062 4.203125 -1.4375 C 4.359375 -1.707031 4.4375 -2.035156 4.4375 -2.421875 C 4.4375 -2.804688 4.359375 -3.132812 4.203125 -3.40625 C 4.046875 -3.675781 3.84375 -3.875 3.59375 -4 C 3.351562 -4.132812 3.09375 -4.203125 2.8125 -4.203125 C 2.507812 -4.203125 2.238281 -4.132812 2 -4 C 1.757812 -3.875 1.566406 -3.675781 1.421875 -3.40625 C 1.273438 -3.132812 1.203125 -2.804688 1.203125 -2.421875 C 1.203125 -2.023438 1.269531 -1.691406 1.40625 -1.421875 C 1.550781 -1.148438 1.742188 -0.945312 1.984375 -0.8125 C 2.222656 -0.6875 2.488281 -0.625 2.78125 -0.625 Z M 2.78125 -0.625 "/></g></g></g><g fill="#336010" fill-opacity="1"><g transform="translate(51.641566, 45.769415)"><g/></g></g><g fill="#336010" fill-opacity="1"><g transform="translate(14.014319, 53.097911)"><g><path d="M 4.296875 -1.359375 L 1.625 -1.359375 L 1.140625 0 L 0.296875 0 L 2.5 -6.09375 L 3.4375 -6.09375 L 5.640625 0 L 4.796875 0 Z M 4.078125 -2.015625 L 2.96875 -5.109375 L 1.859375 -2.015625 Z M 4.078125 -2.015625 "/></g></g></g><g fill="#336010" fill-opacity="1"><g transform="translate(19.94165, 53.097911)"><g><path d="M 4.953125 -4.828125 L 4.953125 0 L 4.15625 0 L 4.15625 -0.71875 C 4 -0.46875 3.785156 -0.269531 3.515625 -0.125 C 3.242188 0.0078125 2.941406 0.078125 2.609375 0.078125 C 2.234375 0.078125 1.894531 0 1.59375 -0.15625 C 1.300781 -0.3125 1.066406 -0.546875 0.890625 -0.859375 C 0.722656 -1.171875 0.640625 -1.550781 0.640625 -2 L 0.640625 -4.828125 L 1.421875 -4.828125 L 1.421875 -2.109375 C 1.421875 -1.628906 1.539062 -1.257812 1.78125 -1 C 2.019531 -0.75 2.347656 -0.625 2.765625 -0.625 C 3.191406 -0.625 3.53125 -0.753906 3.78125 -1.015625 C 4.03125 -1.285156 4.15625 -1.671875 4.15625 -2.171875 L 4.15625 -4.828125 Z M 4.953125 -4.828125 "/></g></g></g><g fill="#336010" fill-opacity="1"><g transform="translate(25.569974, 53.097911)"><g><path d="M 0.375 -2.421875 C 0.375 -2.921875 0.472656 -3.351562 0.671875 -3.71875 C 0.867188 -4.09375 1.144531 -4.382812 1.5 -4.59375 C 1.863281 -4.800781 2.273438 -4.90625 2.734375 -4.90625 C 3.316406 -4.90625 3.800781 -4.757812 4.1875 -4.46875 C 4.570312 -4.175781 4.828125 -3.773438 4.953125 -3.265625 L 4.09375 -3.265625 C 4.007812 -3.566406 3.847656 -3.800781 3.609375 -3.96875 C 3.367188 -4.132812 3.078125 -4.21875 2.734375 -4.21875 C 2.273438 -4.21875 1.90625 -4.0625 1.625 -3.75 C 1.34375 -3.4375 1.203125 -2.992188 1.203125 -2.421875 C 1.203125 -1.835938 1.34375 -1.382812 1.625 -1.0625 C 1.90625 -0.75 2.273438 -0.59375 2.734375 -0.59375 C 3.078125 -0.59375 3.363281 -0.675781 3.59375 -0.84375 C 3.832031 -1.007812 4 -1.242188 4.09375 -1.546875 L 4.953125 -1.546875 C 4.828125 -1.054688 4.566406 -0.660156 4.171875 -0.359375 C 3.785156 -0.0664062 3.304688 0.078125 2.734375 0.078125 C 2.273438 0.078125 1.863281 -0.0195312 1.5 -0.21875 C 1.144531 -0.425781 0.867188 -0.71875 0.671875 -1.09375 C 0.472656 -1.46875 0.375 -1.910156 0.375 -2.421875 Z M 0.375 -2.421875 "/></g></g></g><g fill="#336010" fill-opacity="1"><g transform="translate(30.908093, 53.097911)"><g><path d="M 1.65625 -4.15625 L 1.65625 -1.3125 C 1.65625 -1.082031 1.703125 -0.914062 1.796875 -0.8125 C 1.898438 -0.71875 2.078125 -0.671875 2.328125 -0.671875 L 2.90625 -0.671875 L 2.90625 0 L 2.1875 0 C 1.738281 0 1.40625 -0.0976562 1.1875 -0.296875 C 0.96875 -0.503906 0.859375 -0.84375 0.859375 -1.3125 L 0.859375 -4.15625 L 0.234375 -4.15625 L 0.234375 -4.828125 L 0.859375 -4.828125 L 0.859375 -6.03125 L 1.65625 -6.03125 L 1.65625 -4.828125 L 2.90625 -4.828125 L 2.90625 -4.15625 Z M 1.65625 -4.15625 "/></g></g></g><g fill="#336010" fill-opacity="1"><g transform="translate(34.1092, 53.097911)"><g><path d="M 1.09375 -5.609375 C 0.9375 -5.609375 0.804688 -5.660156 0.703125 -5.765625 C 0.597656 -5.867188 0.546875 -6 0.546875 -6.15625 C 0.546875 -6.300781 0.597656 -6.425781 0.703125 -6.53125 C 0.804688 -6.632812 0.9375 -6.6875 1.09375 -6.6875 C 1.238281 -6.6875 1.363281 -6.632812 1.46875 -6.53125 C 1.570312 -6.425781 1.625 -6.300781 1.625 -6.15625 C 1.625 -6 1.570312 -5.867188 1.46875 -5.765625 C 1.363281 -5.660156 1.238281 -5.609375 1.09375 -5.609375 Z M 1.484375 -4.828125 L 1.484375 0 L 0.671875 0 L 0.671875 -4.828125 Z M 1.484375 -4.828125 "/></g></g></g><g fill="#336010" fill-opacity="1"><g transform="translate(36.272591, 53.097911)"><g><path d="M 2.78125 0.078125 C 2.332031 0.078125 1.921875 -0.0195312 1.546875 -0.21875 C 1.179688 -0.425781 0.894531 -0.71875 0.6875 -1.09375 C 0.476562 -1.476562 0.375 -1.921875 0.375 -2.421875 C 0.375 -2.910156 0.476562 -3.34375 0.6875 -3.71875 C 0.90625 -4.101562 1.195312 -4.394531 1.5625 -4.59375 C 1.9375 -4.800781 2.351562 -4.90625 2.8125 -4.90625 C 3.269531 -4.90625 3.679688 -4.800781 4.046875 -4.59375 C 4.421875 -4.394531 4.710938 -4.109375 4.921875 -3.734375 C 5.140625 -3.359375 5.25 -2.921875 5.25 -2.421875 C 5.25 -1.921875 5.140625 -1.476562 4.921875 -1.09375 C 4.703125 -0.71875 4.40625 -0.425781 4.03125 -0.21875 C 3.65625 -0.0195312 3.238281 0.078125 2.78125 0.078125 Z M 2.78125 -0.625 C 3.0625 -0.625 3.328125 -0.691406 3.578125 -0.828125 C 3.835938 -0.960938 4.046875 -1.164062 4.203125 -1.4375 C 4.359375 -1.707031 4.4375 -2.035156 4.4375 -2.421875 C 4.4375 -2.804688 4.359375 -3.132812 4.203125 -3.40625 C 4.046875 -3.675781 3.84375 -3.875 3.59375 -4 C 3.351562 -4.132812 3.09375 -4.203125 2.8125 -4.203125 C 2.507812 -4.203125 2.238281 -4.132812 2 -4 C 1.757812 -3.875 1.566406 -3.675781 1.421875 -3.40625 C 1.273438 -3.132812 1.203125 -2.804688 1.203125 -2.421875 C 1.203125 -2.023438 1.269531 -1.691406 1.40625 -1.421875 C 1.550781 -1.148438 1.742188 -0.945312 1.984375 -0.8125 C 2.222656 -0.6875 2.488281 -0.625 2.78125 -0.625 Z M 2.78125 -0.625 "/></g></g></g><g fill="#336010" fill-opacity="1"><g transform="translate(41.900915, 53.097911)"><g><path d="M 3.03125 -4.90625 C 3.613281 -4.90625 4.085938 -4.726562 4.453125 -4.375 C 4.816406 -4.019531 5 -3.507812 5 -2.84375 L 5 0 L 4.203125 0 L 4.203125 -2.734375 C 4.203125 -3.210938 4.082031 -3.578125 3.84375 -3.828125 C 3.601562 -4.085938 3.273438 -4.21875 2.859375 -4.21875 C 2.429688 -4.21875 2.09375 -4.082031 1.84375 -3.8125 C 1.601562 -3.550781 1.484375 -3.171875 1.484375 -2.671875 L 1.484375 0 L 0.671875 0 L 0.671875 -4.828125 L 1.484375 -4.828125 L 1.484375 -4.140625 C 1.640625 -4.378906 1.851562 -4.566406 2.125 -4.703125 C 2.394531 -4.835938 2.695312 -4.90625 3.03125 -4.90625 Z M 3.03125 -4.90625 "/></g></g></g><g fill="#336010" fill-opacity="1"><g transform="translate(47.529239, 53.097911)"><g><path d="M 2.390625 0.078125 C 2.015625 0.078125 1.679688 0.015625 1.390625 -0.109375 C 1.097656 -0.234375 0.863281 -0.40625 0.6875 -0.625 C 0.519531 -0.851562 0.425781 -1.117188 0.40625 -1.421875 L 1.234375 -1.421875 C 1.265625 -1.179688 1.378906 -0.984375 1.578125 -0.828125 C 1.773438 -0.671875 2.039062 -0.59375 2.375 -0.59375 C 2.675781 -0.59375 2.914062 -0.660156 3.09375 -0.796875 C 3.269531 -0.929688 3.359375 -1.101562 3.359375 -1.3125 C 3.359375 -1.519531 3.265625 -1.675781 3.078125 -1.78125 C 2.890625 -1.882812 2.597656 -1.984375 2.203125 -2.078125 C 1.847656 -2.171875 1.554688 -2.265625 1.328125 -2.359375 C 1.109375 -2.460938 0.914062 -2.609375 0.75 -2.796875 C 0.59375 -2.992188 0.515625 -3.242188 0.515625 -3.546875 C 0.515625 -3.796875 0.585938 -4.023438 0.734375 -4.234375 C 0.878906 -4.441406 1.085938 -4.601562 1.359375 -4.71875 C 1.628906 -4.84375 1.9375 -4.90625 2.28125 -4.90625 C 2.8125 -4.90625 3.238281 -4.769531 3.5625 -4.5 C 3.894531 -4.226562 4.070312 -3.859375 4.09375 -3.390625 L 3.296875 -3.390625 C 3.273438 -3.640625 3.171875 -3.835938 2.984375 -3.984375 C 2.804688 -4.140625 2.5625 -4.21875 2.25 -4.21875 C 1.96875 -4.21875 1.738281 -4.15625 1.5625 -4.03125 C 1.394531 -3.914062 1.3125 -3.753906 1.3125 -3.546875 C 1.3125 -3.390625 1.363281 -3.257812 1.46875 -3.15625 C 1.570312 -3.0625 1.695312 -2.984375 1.84375 -2.921875 C 2 -2.859375 2.21875 -2.785156 2.5 -2.703125 C 2.84375 -2.609375 3.125 -2.515625 3.34375 -2.421875 C 3.5625 -2.335938 3.75 -2.203125 3.90625 -2.015625 C 4.0625 -1.835938 4.140625 -1.601562 4.140625 -1.3125 C 4.140625 -1.050781 4.066406 -0.8125 3.921875 -0.59375 C 3.773438 -0.382812 3.566406 -0.21875 3.296875 -0.09375 C 3.035156 0.0195312 2.734375 0.078125 2.390625 0.078125 Z M 2.390625 0.078125 "/></g></g></g></svg>