<svg xmlns="http://www.w3.org/2000/svg" xmlns:xlink="http://www.w3.org/1999/xlink" width="85" zoomAndPan="magnify" viewBox="0 0 63.75 66" height="88" preserveAspectRatio="xMidYMid meet" version="1.0"><defs><filter x="0%" y="0%" width="100%" height="100%" id="72844f7ab1"><feColorMatrix values="0 0 0 0 1 0 0 0 0 1 0 0 0 0 1 0 0 0 1 0" color-interpolation-filters="sRGB"/></filter><g/><clipPath id="2ba3d10616"><path d="M 0 0.128906 L 63 0.128906 L 63 65.871094 L 0 65.871094 Z M 0 0.128906 " clip-rule="nonzero"/></clipPath><mask id="ef825f25b5"><g filter="url(#72844f7ab1)"><rect x="-6.375" width="76.5" fill="#000000" y="-6.6" height="79.2" fill-opacity="0.97"/></g></mask><clipPath id="8ac6e8cf10"><path d="M 0 0.128906 L 62.824219 0.128906 L 62.824219 65.871094 L 0 65.871094 Z M 0 0.128906 " clip-rule="nonzero"/></clipPath><clipPath id="84780051e0"><path d="M 5.976562 0.128906 L 56.847656 0.128906 C 58.429688 0.128906 59.953125 0.757812 61.074219 1.878906 C 62.191406 3 62.824219 4.519531 62.824219 6.105469 L 62.824219 59.894531 C 62.824219 61.476562 62.191406 63 61.074219 64.121094 C 59.953125 65.242188 58.429688 65.871094 56.847656 65.871094 L 5.976562 65.871094 C 4.390625 65.871094 2.871094 65.242188 1.75 64.121094 C 0.628906 63 0 61.476562 0 59.894531 L 0 6.105469 C 0 4.519531 0.628906 3 1.75 1.878906 C 2.871094 0.757812 4.390625 0.128906 5.976562 0.128906 Z M 5.976562 0.128906 " clip-rule="nonzero"/></clipPath><clipPath id="ff0daf1ac6"><rect x="0" width="63" y="0" height="66"/></clipPath><clipPath id="d6432b1906"><path d="M 13.167969 15.691406 L 49.773438 15.691406 L 49.773438 38.851562 L 13.167969 38.851562 Z M 13.167969 15.691406 " clip-rule="nonzero"/></clipPath></defs><g clip-path="url(#2ba3d10616)"><g mask="url(#ef825f25b5)"><g transform="matrix(1, 0, 0, 1, 0, -0.000000000000011935)"><g clip-path="url(#ff0daf1ac6)"><g clip-path="url(#8ac6e8cf10)"><g clip-path="url(#84780051e0)"><path fill="#ffffff" d="M 0 0.128906 L 62.824219 0.128906 L 62.824219 65.898438 L 0 65.898438 Z M 0 0.128906 " fill-opacity="1" fill-rule="nonzero"/></g></g></g></g></g></g><g clip-path="url(#d6432b1906)"><path fill="#336010" d="M 49.417969 21.851562 C 49.425781 21.601562 49.363281 21.371094 49.230469 21.160156 C 48.988281 20.875 48.722656 20.609375 48.441406 20.367188 C 48.054688 19.890625 47.863281 19.351562 47.875 18.738281 C 47.996094 18.199219 47.863281 17.734375 47.484375 17.335938 C 47.988281 16.953125 48.207031 16.003906 48.050781 15.925781 C 47.746094 15.84375 47.445312 15.84375 47.144531 15.921875 C 46.839844 15.996094 46.574219 16.144531 46.347656 16.355469 C 45.863281 16.035156 45.328125 15.886719 44.746094 15.90625 C 44.167969 15.929688 43.644531 16.117188 43.183594 16.46875 C 42.945312 16.21875 42.65625 16.046875 42.320312 15.957031 C 41.988281 15.867188 41.652344 15.867188 41.316406 15.964844 C 41.289062 16.339844 41.378906 16.683594 41.589844 16.996094 C 41.402344 16.878906 41.199219 16.828125 40.980469 16.839844 C 40.757812 16.851562 40.5625 16.925781 40.386719 17.058594 C 39.480469 16.867188 38.613281 16.988281 37.789062 17.421875 C 35.683594 18.367188 33.476562 18.917969 31.171875 19.074219 C 29.261719 19.257812 27.351562 19.226562 25.445312 18.980469 C 23.535156 18.742188 21.640625 18.414062 19.722656 18.210938 C 18.527344 18.082031 17.328125 18.160156 16.320312 19.023438 C 15.636719 19.667969 15.179688 20.449219 14.949219 21.363281 C 14.316406 23.761719 14.101562 26.195312 14.308594 28.667969 C 14.359375 29.859375 14.515625 31.050781 13.917969 32.167969 C 13.851562 32.308594 13.800781 32.460938 13.773438 32.613281 C 13.597656 33.167969 13.589844 33.722656 13.746094 34.277344 C 13.902344 34.835938 14.199219 35.304688 14.636719 35.683594 C 14.34375 35.015625 14.34375 34.347656 14.636719 33.679688 C 14.792969 33.261719 14.886719 32.828125 14.914062 32.382812 C 14.914062 31.105469 14.859375 29.832031 14.796875 28.554688 C 14.621094 26.753906 14.722656 24.964844 15.105469 23.195312 C 15.277344 22.558594 15.53125 21.949219 15.746094 21.324219 L 15.855469 21.363281 C 15.46875 23 15.332031 24.65625 15.453125 26.332031 C 15.664062 27.355469 15.925781 28.363281 16.242188 29.359375 C 16.359375 29.710938 16.390625 30.074219 16.332031 30.441406 C 16.273438 30.808594 16.132812 31.140625 15.914062 31.441406 C 15.824219 31.558594 15.792969 31.6875 15.816406 31.832031 C 16.21875 33.429688 16.277344 35.039062 15.992188 36.660156 C 15.96875 36.828125 16.019531 36.976562 16.144531 37.09375 C 16.320312 37.160156 16.449219 37.273438 16.535156 37.441406 C 16.621094 37.605469 16.644531 37.777344 16.597656 37.957031 C 16.597656 38.136719 16.597656 38.355469 16.597656 38.523438 L 19.132812 38.523438 C 19.058594 38.398438 18.953125 38.230469 18.894531 38.105469 C 18.464844 37.285156 18.078125 36.441406 17.734375 35.582031 C 16.984375 33.453125 17.359375 31.609375 19.207031 30.476562 C 20.546875 29.714844 21.683594 28.714844 22.609375 27.484375 C 22.644531 27.484375 22.808594 27.554688 22.84375 27.585938 L 21.492188 29.429688 C 23.339844 30.050781 24.992188 31.011719 26.449219 32.308594 C 26.5625 32.40625 26.710938 32.359375 26.703125 32.28125 C 26.773438 31.394531 27.453125 31.105469 28.210938 30.90625 C 28.710938 30.75 29.21875 30.621094 29.730469 30.523438 C 30.792969 30.371094 31.863281 30.265625 32.9375 30.160156 C 33.050781 30.121094 33.160156 30.132812 33.261719 30.195312 C 33.363281 30.261719 33.425781 30.351562 33.441406 30.472656 C 33.792969 32.171875 34.195312 33.835938 33.96875 35.574219 C 33.902344 35.757812 33.902344 35.941406 33.964844 36.125 C 34.023438 36.308594 34.136719 36.453125 34.296875 36.5625 C 34.371094 36.652344 34.40625 36.753906 34.398438 36.867188 C 34.433594 37.394531 34.460938 37.96875 34.484375 38.5 L 36.65625 38.5 C 36.28125 37.527344 35.847656 36.546875 35.523438 35.558594 C 35.320312 35.070312 35.246094 34.5625 35.296875 34.039062 C 35.347656 33.511719 35.523438 33.03125 35.816406 32.59375 C 36.488281 31.683594 37.132812 30.765625 37.8125 29.820312 C 37.714844 30.359375 37.527344 30.863281 37.246094 31.332031 C 37.140625 31.542969 36.957031 31.769531 36.78125 32.128906 L 36.742188 32.199219 C 36.699219 32.277344 36.6875 32.359375 36.707031 32.445312 C 36.980469 33.421875 37.0625 34.417969 36.953125 35.429688 C 36.921875 35.5625 36.933594 35.695312 36.992188 35.824219 C 37.050781 35.949219 37.140625 36.046875 37.261719 36.113281 C 37.382812 36.214844 37.449219 36.347656 37.460938 36.503906 C 37.519531 37.027344 37.546875 37.605469 37.585938 38.15625 L 39.777344 38.15625 C 39.394531 37.429688 38.9375 36.628906 38.597656 35.886719 C 38.28125 35.296875 38.144531 34.664062 38.1875 33.996094 C 38.230469 33.328125 38.441406 32.71875 38.828125 32.171875 C 38.980469 31.953125 40.234375 30.023438 40.886719 28.921875 C 41.089844 28.582031 41.289062 28.238281 41.488281 27.890625 C 42.011719 26.972656 42.496094 26.320312 43.03125 25.40625 C 43.484375 24.832031 44.050781 24.414062 44.730469 24.148438 C 45.265625 23.871094 45.242188 23.015625 46.636719 23.179688 C 47.210938 23.273438 49.4375 23.320312 49.417969 21.851562 Z M 49.417969 21.851562 " fill-opacity="1" fill-rule="nonzero"/></g><path fill="#336010" d="M 22.554688 31.175781 C 22.648438 30.886719 22.667969 30.597656 22.609375 30.300781 C 22.355469 30.09375 22.066406 29.964844 21.742188 29.910156 C 21.601562 29.835938 21.453125 29.820312 21.300781 29.851562 C 20.890625 30.082031 20.503906 30.351562 20.070312 30.636719 C 21.359375 32.179688 22.066406 33.953125 22.183594 35.960938 C 22.234375 36.09375 22.3125 36.207031 22.417969 36.300781 C 22.578125 36.484375 22.714844 36.6875 22.832031 36.902344 C 22.902344 37.148438 22.945312 37.402344 22.960938 37.65625 L 25.148438 37.65625 C 24.582031 36.792969 24.015625 35.871094 23.5 34.96875 C 22.789062 33.804688 22.472656 32.539062 22.554688 31.175781 Z M 22.554688 31.175781 " fill-opacity="1" fill-rule="nonzero"/><g fill="#336010" fill-opacity="1"><g transform="translate(14.343512, 45.769415)"><g><path d="M 0.375 -3.0625 C 0.375 -3.664062 0.507812 -4.207031 0.78125 -4.6875 C 1.050781 -5.164062 1.421875 -5.535156 1.890625 -5.796875 C 2.359375 -6.066406 2.875 -6.203125 3.4375 -6.203125 C 4.101562 -6.203125 4.6875 -6.039062 5.1875 -5.71875 C 5.6875 -5.40625 6.050781 -4.953125 6.28125 -4.359375 L 5.328125 -4.359375 C 5.148438 -4.722656 4.898438 -5.003906 4.578125 -5.203125 C 4.265625 -5.398438 3.882812 -5.5 3.4375 -5.5 C 3.007812 -5.5 2.625 -5.398438 2.28125 -5.203125 C 1.945312 -5.003906 1.679688 -4.722656 1.484375 -4.359375 C 1.296875 -3.992188 1.203125 -3.5625 1.203125 -3.0625 C 1.203125 -2.582031 1.296875 -2.15625 1.484375 -1.78125 C 1.679688 -1.414062 1.945312 -1.132812 2.28125 -0.9375 C 2.625 -0.738281 3.007812 -0.640625 3.4375 -0.640625 C 3.882812 -0.640625 4.265625 -0.738281 4.578125 -0.9375 C 4.898438 -1.132812 5.148438 -1.414062 5.328125 -1.78125 L 6.28125 -1.78125 C 6.050781 -1.195312 5.6875 -0.742188 5.1875 -0.421875 C 4.6875 -0.109375 4.101562 0.046875 3.4375 0.046875 C 2.875 0.046875 2.359375 -0.0820312 1.890625 -0.34375 C 1.421875 -0.613281 1.050781 -0.984375 0.78125 -1.453125 C 0.507812 -1.929688 0.375 -2.46875 0.375 -3.0625 Z M 0.375 -3.0625 "/></g></g></g><g fill="#336010" fill-opacity="1"><g transform="translate(21.132681, 45.769415)"><g><path d="M 0.375 -2.421875 C 0.375 -2.921875 0.472656 -3.351562 0.671875 -3.71875 C 0.867188 -4.09375 1.140625 -4.382812 1.484375 -4.59375 C 1.835938 -4.800781 2.234375 -4.90625 2.671875 -4.90625 C 3.085938 -4.90625 3.453125 -4.8125 3.765625 -4.625 C 4.078125 -4.445312 4.304688 -4.21875 4.453125 -3.9375 L 4.453125 -4.828125 L 5.265625 -4.828125 L 5.265625 0 L 4.453125 0 L 4.453125 -0.890625 C 4.296875 -0.609375 4.0625 -0.375 3.75 -0.1875 C 3.4375 -0.0078125 3.070312 0.078125 2.65625 0.078125 C 2.226562 0.078125 1.835938 -0.0234375 1.484375 -0.234375 C 1.140625 -0.441406 0.867188 -0.738281 0.671875 -1.125 C 0.472656 -1.507812 0.375 -1.941406 0.375 -2.421875 Z M 4.453125 -2.421875 C 4.453125 -2.785156 4.378906 -3.101562 4.234375 -3.375 C 4.085938 -3.644531 3.890625 -3.847656 3.640625 -3.984375 C 3.390625 -4.128906 3.117188 -4.203125 2.828125 -4.203125 C 2.523438 -4.203125 2.25 -4.128906 2 -3.984375 C 1.757812 -3.847656 1.566406 -3.644531 1.421875 -3.375 C 1.273438 -3.101562 1.203125 -2.785156 1.203125 -2.421875 C 1.203125 -2.054688 1.273438 -1.738281 1.421875 -1.46875 C 1.566406 -1.195312 1.757812 -0.988281 2 -0.84375 C 2.25 -0.695312 2.523438 -0.625 2.828125 -0.625 C 3.117188 -0.625 3.390625 -0.695312 3.640625 -0.84375 C 3.890625 -0.988281 4.085938 -1.195312 4.234375 -1.46875 C 4.378906 -1.738281 4.453125 -2.054688 4.453125 -2.421875 Z M 4.453125 -2.421875 "/></g></g></g><g fill="#336010" fill-opacity="1"><g transform="translate(27.077601, 45.769415)"><g><path d="M 1.65625 -4.15625 L 1.65625 -1.3125 C 1.65625 -1.082031 1.703125 -0.914062 1.796875 -0.8125 C 1.898438 -0.71875 2.078125 -0.671875 2.328125 -0.671875 L 2.90625 -0.671875 L 2.90625 0 L 2.1875 0 C 1.738281 0 1.40625 -0.0976562 1.1875 -0.296875 C 0.96875 -0.503906 0.859375 -0.84375 0.859375 -1.3125 L 0.859375 -4.15625 L 0.234375 -4.15625 L 0.234375 -4.828125 L 0.859375 -4.828125 L 0.859375 -6.03125 L 1.65625 -6.03125 L 1.65625 -4.828125 L 2.90625 -4.828125 L 2.90625 -4.15625 Z M 1.65625 -4.15625 "/></g></g></g><g fill="#336010" fill-opacity="1"><g transform="translate(30.278708, 45.769415)"><g><path d="M 1.65625 -4.15625 L 1.65625 -1.3125 C 1.65625 -1.082031 1.703125 -0.914062 1.796875 -0.8125 C 1.898438 -0.71875 2.078125 -0.671875 2.328125 -0.671875 L 2.90625 -0.671875 L 2.90625 0 L 2.1875 0 C 1.738281 0 1.40625 -0.0976562 1.1875 -0.296875 C 0.96875 -0.503906 0.859375 -0.84375 0.859375 -1.3125 L 0.859375 -4.15625 L 0.234375 -4.15625 L 0.234375 -4.828125 L 0.859375 -4.828125 L 0.859375 -6.03125 L 1.65625 -6.03125 L 1.65625 -4.828125 L 2.90625 -4.828125 L 2.90625 -4.15625 Z M 1.65625 -4.15625 "/></g></g></g><g fill="#336010" fill-opacity="1"><g transform="translate(33.479815, 45.769415)"><g><path d="M 1.484375 -6.515625 L 1.484375 0 L 0.671875 0 L 0.671875 -6.515625 Z M 1.484375 -6.515625 "/></g></g></g><g fill="#336010" fill-opacity="1"><g transform="translate(35.643206, 45.769415)"><g><path d="M 5.078125 -2.59375 C 5.078125 -2.4375 5.066406 -2.273438 5.046875 -2.109375 L 1.203125 -2.109375 C 1.222656 -1.640625 1.378906 -1.269531 1.671875 -1 C 1.972656 -0.726562 2.335938 -0.59375 2.765625 -0.59375 C 3.109375 -0.59375 3.394531 -0.671875 3.625 -0.828125 C 3.851562 -0.992188 4.015625 -1.210938 4.109375 -1.484375 L 4.984375 -1.484375 C 4.847656 -1.023438 4.585938 -0.648438 4.203125 -0.359375 C 3.816406 -0.0664062 3.335938 0.078125 2.765625 0.078125 C 2.304688 0.078125 1.894531 -0.0195312 1.53125 -0.21875 C 1.175781 -0.425781 0.894531 -0.71875 0.6875 -1.09375 C 0.476562 -1.476562 0.375 -1.921875 0.375 -2.421875 C 0.375 -2.921875 0.472656 -3.359375 0.671875 -3.734375 C 0.867188 -4.109375 1.148438 -4.394531 1.515625 -4.59375 C 1.878906 -4.800781 2.296875 -4.90625 2.765625 -4.90625 C 3.222656 -4.90625 3.625 -4.800781 3.96875 -4.59375 C 4.320312 -4.394531 4.59375 -4.117188 4.78125 -3.765625 C 4.976562 -3.421875 5.078125 -3.03125 5.078125 -2.59375 Z M 4.25 -2.765625 C 4.25 -3.066406 4.179688 -3.328125 4.046875 -3.546875 C 3.910156 -3.765625 3.726562 -3.929688 3.5 -4.046875 C 3.269531 -4.160156 3.015625 -4.21875 2.734375 -4.21875 C 2.328125 -4.21875 1.976562 -4.085938 1.6875 -3.828125 C 1.40625 -3.578125 1.242188 -3.222656 1.203125 -2.765625 Z M 4.25 -2.765625 "/></g></g></g><g fill="#336010" fill-opacity="1"><g transform="translate(41.103973, 45.769415)"><g/></g></g><g fill="#336010" fill-opacity="1"><g transform="translate(9.854808, 53.097911)"><g><path d="M 4.296875 -1.359375 L 1.625 -1.359375 L 1.140625 0 L 0.296875 0 L 2.5 -6.09375 L 3.4375 -6.09375 L 5.640625 0 L 4.796875 0 Z M 4.078125 -2.015625 L 2.96875 -5.109375 L 1.859375 -2.015625 Z M 4.078125 -2.015625 "/></g></g></g><g fill="#336010" fill-opacity="1"><g transform="translate(15.782139, 53.097911)"><g><path d="M 4.953125 -4.828125 L 4.953125 0 L 4.15625 0 L 4.15625 -0.71875 C 4 -0.46875 3.785156 -0.269531 3.515625 -0.125 C 3.242188 0.0078125 2.941406 0.078125 2.609375 0.078125 C 2.234375 0.078125 1.894531 0 1.59375 -0.15625 C 1.300781 -0.3125 1.066406 -0.546875 0.890625 -0.859375 C 0.722656 -1.171875 0.640625 -1.550781 0.640625 -2 L 0.640625 -4.828125 L 1.421875 -4.828125 L 1.421875 -2.109375 C 1.421875 -1.628906 1.539062 -1.257812 1.78125 -1 C 2.019531 -0.75 2.347656 -0.625 2.765625 -0.625 C 3.191406 -0.625 3.53125 -0.753906 3.78125 -1.015625 C 4.03125 -1.285156 4.15625 -1.671875 4.15625 -2.171875 L 4.15625 -4.828125 Z M 4.953125 -4.828125 "/></g></g></g><g fill="#336010" fill-opacity="1"><g transform="translate(21.410463, 53.097911)"><g><path d="M 0.375 -2.421875 C 0.375 -2.921875 0.472656 -3.351562 0.671875 -3.71875 C 0.867188 -4.09375 1.144531 -4.382812 1.5 -4.59375 C 1.863281 -4.800781 2.273438 -4.90625 2.734375 -4.90625 C 3.316406 -4.90625 3.800781 -4.757812 4.1875 -4.46875 C 4.570312 -4.175781 4.828125 -3.773438 4.953125 -3.265625 L 4.09375 -3.265625 C 4.007812 -3.566406 3.847656 -3.800781 3.609375 -3.96875 C 3.367188 -4.132812 3.078125 -4.21875 2.734375 -4.21875 C 2.273438 -4.21875 1.90625 -4.0625 1.625 -3.75 C 1.34375 -3.4375 1.203125 -2.992188 1.203125 -2.421875 C 1.203125 -1.835938 1.34375 -1.382812 1.625 -1.0625 C 1.90625 -0.75 2.273438 -0.59375 2.734375 -0.59375 C 3.078125 -0.59375 3.363281 -0.675781 3.59375 -0.84375 C 3.832031 -1.007812 4 -1.242188 4.09375 -1.546875 L 4.953125 -1.546875 C 4.828125 -1.054688 4.566406 -0.660156 4.171875 -0.359375 C 3.785156 -0.0664062 3.304688 0.078125 2.734375 0.078125 C 2.273438 0.078125 1.863281 -0.0195312 1.5 -0.21875 C 1.144531 -0.425781 0.867188 -0.71875 0.671875 -1.09375 C 0.472656 -1.46875 0.375 -1.910156 0.375 -2.421875 Z M 0.375 -2.421875 "/></g></g></g><g fill="#336010" fill-opacity="1"><g transform="translate(26.748582, 53.097911)"><g><path d="M 1.65625 -4.15625 L 1.65625 -1.3125 C 1.65625 -1.082031 1.703125 -0.914062 1.796875 -0.8125 C 1.898438 -0.71875 2.078125 -0.671875 2.328125 -0.671875 L 2.90625 -0.671875 L 2.90625 0 L 2.1875 0 C 1.738281 0 1.40625 -0.0976562 1.1875 -0.296875 C 0.96875 -0.503906 0.859375 -0.84375 0.859375 -1.3125 L 0.859375 -4.15625 L 0.234375 -4.15625 L 0.234375 -4.828125 L 0.859375 -4.828125 L 0.859375 -6.03125 L 1.65625 -6.03125 L 1.65625 -4.828125 L 2.90625 -4.828125 L 2.90625 -4.15625 Z M 1.65625 -4.15625 "/></g></g></g><g fill="#336010" fill-opacity="1"><g transform="translate(29.949688, 53.097911)"><g><path d="M 1.09375 -5.609375 C 0.9375 -5.609375 0.804688 -5.660156 0.703125 -5.765625 C 0.597656 -5.867188 0.546875 -6 0.546875 -6.15625 C 0.546875 -6.300781 0.597656 -6.425781 0.703125 -6.53125 C 0.804688 -6.632812 0.9375 -6.6875 1.09375 -6.6875 C 1.238281 -6.6875 1.363281 -6.632812 1.46875 -6.53125 C 1.570312 -6.425781 1.625 -6.300781 1.625 -6.15625 C 1.625 -6 1.570312 -5.867188 1.46875 -5.765625 C 1.363281 -5.660156 1.238281 -5.609375 1.09375 -5.609375 Z M 1.484375 -4.828125 L 1.484375 0 L 0.671875 0 L 0.671875 -4.828125 Z M 1.484375 -4.828125 "/></g></g></g><g fill="#336010" fill-opacity="1"><g transform="translate(32.11308, 53.097911)"><g><path d="M 2.78125 0.078125 C 2.332031 0.078125 1.921875 -0.0195312 1.546875 -0.21875 C 1.179688 -0.425781 0.894531 -0.71875 0.6875 -1.09375 C 0.476562 -1.476562 0.375 -1.921875 0.375 -2.421875 C 0.375 -2.910156 0.476562 -3.34375 0.6875 -3.71875 C 0.90625 -4.101562 1.195312 -4.394531 1.5625 -4.59375 C 1.9375 -4.800781 2.351562 -4.90625 2.8125 -4.90625 C 3.269531 -4.90625 3.679688 -4.800781 4.046875 -4.59375 C 4.421875 -4.394531 4.710938 -4.109375 4.921875 -3.734375 C 5.140625 -3.359375 5.25 -2.921875 5.25 -2.421875 C 5.25 -1.921875 5.140625 -1.476562 4.921875 -1.09375 C 4.703125 -0.71875 4.40625 -0.425781 4.03125 -0.21875 C 3.65625 -0.0195312 3.238281 0.078125 2.78125 0.078125 Z M 2.78125 -0.625 C 3.0625 -0.625 3.328125 -0.691406 3.578125 -0.828125 C 3.835938 -0.960938 4.046875 -1.164062 4.203125 -1.4375 C 4.359375 -1.707031 4.4375 -2.035156 4.4375 -2.421875 C 4.4375 -2.804688 4.359375 -3.132812 4.203125 -3.40625 C 4.046875 -3.675781 3.84375 -3.875 3.59375 -4 C 3.351562 -4.132812 3.09375 -4.203125 2.8125 -4.203125 C 2.507812 -4.203125 2.238281 -4.132812 2 -4 C 1.757812 -3.875 1.566406 -3.675781 1.421875 -3.40625 C 1.273438 -3.132812 1.203125 -2.804688 1.203125 -2.421875 C 1.203125 -2.023438 1.269531 -1.691406 1.40625 -1.421875 C 1.550781 -1.148438 1.742188 -0.945312 1.984375 -0.8125 C 2.222656 -0.6875 2.488281 -0.625 2.78125 -0.625 Z M 2.78125 -0.625 "/></g></g></g><g fill="#336010" fill-opacity="1"><g transform="translate(37.741404, 53.097911)"><g><path d="M 3.03125 -4.90625 C 3.613281 -4.90625 4.085938 -4.726562 4.453125 -4.375 C 4.816406 -4.019531 5 -3.507812 5 -2.84375 L 5 0 L 4.203125 0 L 4.203125 -2.734375 C 4.203125 -3.210938 4.082031 -3.578125 3.84375 -3.828125 C 3.601562 -4.085938 3.273438 -4.21875 2.859375 -4.21875 C 2.429688 -4.21875 2.09375 -4.082031 1.84375 -3.8125 C 1.601562 -3.550781 1.484375 -3.171875 1.484375 -2.671875 L 1.484375 0 L 0.671875 0 L 0.671875 -4.828125 L 1.484375 -4.828125 L 1.484375 -4.140625 C 1.640625 -4.378906 1.851562 -4.566406 2.125 -4.703125 C 2.394531 -4.835938 2.695312 -4.90625 3.03125 -4.90625 Z M 3.03125 -4.90625 "/></g></g></g><g fill="#336010" fill-opacity="1"><g transform="translate(43.369728, 53.097911)"><g><path d="M 2.390625 0.078125 C 2.015625 0.078125 1.679688 0.015625 1.390625 -0.109375 C 1.097656 -0.234375 0.863281 -0.40625 0.6875 -0.625 C 0.519531 -0.851562 0.425781 -1.117188 0.40625 -1.421875 L 1.234375 -1.421875 C 1.265625 -1.179688 1.378906 -0.984375 1.578125 -0.828125 C 1.773438 -0.671875 2.039062 -0.59375 2.375 -0.59375 C 2.675781 -0.59375 2.914062 -0.660156 3.09375 -0.796875 C 3.269531 -0.929688 3.359375 -1.101562 3.359375 -1.3125 C 3.359375 -1.519531 3.265625 -1.675781 3.078125 -1.78125 C 2.890625 -1.882812 2.597656 -1.984375 2.203125 -2.078125 C 1.847656 -2.171875 1.554688 -2.265625 1.328125 -2.359375 C 1.109375 -2.460938 0.914062 -2.609375 0.75 -2.796875 C 0.59375 -2.992188 0.515625 -3.242188 0.515625 -3.546875 C 0.515625 -3.796875 0.585938 -4.023438 0.734375 -4.234375 C 0.878906 -4.441406 1.085938 -4.601562 1.359375 -4.71875 C 1.628906 -4.84375 1.9375 -4.90625 2.28125 -4.90625 C 2.8125 -4.90625 3.238281 -4.769531 3.5625 -4.5 C 3.894531 -4.226562 4.070312 -3.859375 4.09375 -3.390625 L 3.296875 -3.390625 C 3.273438 -3.640625 3.171875 -3.835938 2.984375 -3.984375 C 2.804688 -4.140625 2.5625 -4.21875 2.25 -4.21875 C 1.96875 -4.21875 1.738281 -4.15625 1.5625 -4.03125 C 1.394531 -3.914062 1.3125 -3.753906 1.3125 -3.546875 C 1.3125 -3.390625 1.363281 -3.257812 1.46875 -3.15625 C 1.570312 -3.0625 1.695312 -2.984375 1.84375 -2.921875 C 2 -2.859375 2.21875 -2.785156 2.5 -2.703125 C 2.84375 -2.609375 3.125 -2.515625 3.34375 -2.421875 C 3.5625 -2.335938 3.75 -2.203125 3.90625 -2.015625 C 4.0625 -1.835938 4.140625 -1.601562 4.140625 -1.3125 C 4.140625 -1.050781 4.066406 -0.8125 3.921875 -0.59375 C 3.773438 -0.382812 3.566406 -0.21875 3.296875 -0.09375 C 3.035156 0.0195312 2.734375 0.078125 2.390625 0.078125 Z M 2.390625 0.078125 "/></g></g></g></svg>