<svg xmlns="http://www.w3.org/2000/svg" xmlns:xlink="http://www.w3.org/1999/xlink" width="85" zoomAndPan="magnify" viewBox="0 0 63.75 66" height="88" preserveAspectRatio="xMidYMid meet" version="1.0"><defs><filter x="0%" y="0%" width="100%" height="100%" id="b66f329a80"><feColorMatrix values="0 0 0 0 1 0 0 0 0 1 0 0 0 0 1 0 0 0 1 0" color-interpolation-filters="sRGB"/></filter><g/><clipPath id="2aed7ba4cb"><path d="M 0 0.128906 L 63 0.128906 L 63 65.871094 L 0 65.871094 Z M 0 0.128906 " clip-rule="nonzero"/></clipPath><mask id="069118f8c7"><g filter="url(#b66f329a80)"><rect x="-6.375" width="76.5" fill="#000000" y="-6.6" height="79.2" fill-opacity="0.97"/></g></mask><clipPath id="9e4f4fda79"><path d="M 0 0.128906 L 62.824219 0.128906 L 62.824219 65.871094 L 0 65.871094 Z M 0 0.128906 " clip-rule="nonzero"/></clipPath><clipPath id="4aecd65e5b"><path d="M 5.976562 0.128906 L 56.847656 0.128906 C 58.429688 0.128906 59.953125 0.757812 61.074219 1.878906 C 62.191406 3 62.824219 4.519531 62.824219 6.105469 L 62.824219 59.894531 C 62.824219 61.476562 62.191406 63 61.074219 64.121094 C 59.953125 65.242188 58.429688 65.871094 56.847656 65.871094 L 5.976562 65.871094 C 4.390625 65.871094 2.871094 65.242188 1.75 64.121094 C 0.628906 63 0 61.476562 0 59.894531 L 0 6.105469 C 0 4.519531 0.628906 3 1.75 1.878906 C 2.871094 0.757812 4.390625 0.128906 5.976562 0.128906 Z M 5.976562 0.128906 " clip-rule="nonzero"/></clipPath><clipPath id="ac7754a95e"><rect x="0" width="63" y="0" height="66"/></clipPath><clipPath id="c1eed88fe0"><path d="M 15.5 7.039062 L 47.320312 7.039062 L 47.320312 36.921875 L 15.5 36.921875 Z M 15.5 7.039062 " clip-rule="nonzero"/></clipPath></defs><g clip-path="url(#2aed7ba4cb)"><g mask="url(#069118f8c7)"><g transform="matrix(1, 0, 0, 1, 0, -0.000000000000011935)"><g clip-path="url(#ac7754a95e)"><g clip-path="url(#9e4f4fda79)"><g clip-path="url(#4aecd65e5b)"><path fill="#ffffff" d="M 0 0.128906 L 62.824219 0.128906 L 62.824219 65.898438 L 0 65.898438 Z M 0 0.128906 " fill-opacity="1" fill-rule="nonzero"/></g></g></g></g></g></g><g clip-path="url(#c1eed88fe0)"><path fill="#336010" d="M 23.1875 28.628906 C 23.1875 28.628906 26.953125 29.667969 29.582031 28.039062 L 32.414062 27.582031 C 32.414062 27.582031 33.09375 28.648438 32.847656 29.367188 C 32.605469 30.089844 32.628906 31.371094 33.046875 32.078125 C 33.457031 32.765625 32.269531 35.242188 32.671875 36.453125 C 32.6875 36.5 32.738281 36.527344 32.789062 36.515625 L 32.917969 36.488281 C 32.972656 36.476562 33.023438 36.507812 33.039062 36.558594 L 33.175781 37.019531 C 33.1875 37.058594 33.21875 37.085938 33.257812 37.089844 L 34.25 37.253906 C 34.453125 37.289062 34.609375 37.085938 34.53125 36.898438 L 33.648438 34.875 C 33.640625 34.859375 33.636719 34.84375 33.640625 34.824219 L 33.902344 32.21875 C 33.917969 32.074219 33.980469 31.941406 34.082031 31.839844 L 34.382812 31.550781 C 34.488281 31.445312 34.660156 31.453125 34.757812 31.570312 L 34.816406 31.640625 C 34.890625 31.730469 34.941406 31.835938 34.957031 31.953125 L 35.351562 34.9375 C 35.351562 34.949219 35.351562 34.960938 35.347656 34.972656 L 35.152344 35.871094 C 35.132812 35.945312 35.199219 36.011719 35.273438 35.996094 C 35.320312 35.984375 35.367188 36.007812 35.386719 36.050781 L 35.71875 36.722656 C 35.734375 36.753906 35.761719 36.773438 35.796875 36.777344 L 36.804688 36.882812 C 37.035156 36.90625 37.191406 36.660156 37.074219 36.460938 L 36.152344 34.90625 C 36.144531 34.890625 36.140625 34.871094 36.140625 34.851562 L 36.113281 32.257812 C 36.109375 31.945312 36.152344 31.628906 36.242188 31.328125 L 37.304688 27.695312 C 37.394531 27.390625 37.566406 27.117188 37.800781 26.898438 L 38.804688 25.972656 C 39.175781 25.632812 39.445312 25.191406 39.578125 24.707031 L 39.9375 23.382812 C 40.019531 23.078125 40.152344 22.785156 40.332031 22.523438 L 41.269531 21.15625 C 41.367188 21.011719 41.4375 20.851562 41.476562 20.683594 L 42.160156 17.796875 C 42.160156 17.796875 42.636719 14.972656 45.226562 16.609375 C 45.582031 16.835938 46.03125 16.863281 46.410156 16.675781 C 46.925781 16.417969 47.539062 15.945312 47.601562 15.121094 C 47.617188 14.925781 47.539062 14.734375 47.386719 14.609375 C 46.9375 14.242188 45.90625 13.332031 45.613281 12.539062 C 45.242188 11.519531 44.871094 10.753906 43.496094 10.1875 C 42.121094 9.617188 42.003906 7.046875 38.804688 7.320312 C 38.804688 7.320312 41.828125 9.015625 41.738281 9.804688 C 41.648438 10.589844 39.023438 7.746094 37.242188 8.257812 L 40.28125 10.164062 C 40.28125 10.164062 41.398438 10.976562 39.925781 10.996094 C 39.925781 10.996094 39.480469 10.9375 39.089844 11.511719 C 38.785156 11.957031 38.050781 11.96875 37.734375 11.949219 C 37.601562 11.945312 37.476562 12.027344 37.445312 12.15625 C 37.402344 12.34375 37.5625 12.585938 38.660156 12.625 L 39.773438 12.722656 C 39.929688 12.738281 40.023438 12.898438 39.960938 13.042969 C 39.683594 13.644531 38.902344 15.066406 37.273438 16.089844 C 37.273438 16.089844 33.644531 16.230469 32.820312 16.71875 C 31.996094 17.210938 29.113281 18.152344 26.855469 17.011719 C 24.597656 15.875 20.710938 15.855469 18.886719 17.464844 C 17.375 18.796875 16.253906 16.308594 15.914062 15.414062 C 15.875 15.308594 15.730469 15.308594 15.6875 15.414062 L 15.640625 15.539062 C 15.613281 15.605469 15.539062 15.632812 15.476562 15.605469 L 15.410156 15.574219 C 15.316406 15.53125 15.210938 15.617188 15.242188 15.71875 L 15.683594 17.316406 C 15.707031 17.410156 15.625 17.492188 15.535156 17.46875 C 15.429688 17.441406 15.34375 17.546875 15.394531 17.640625 L 15.6875 18.214844 C 15.703125 18.242188 15.707031 18.277344 15.695312 18.308594 L 15.613281 18.574219 C 15.597656 18.628906 15.621094 18.691406 15.675781 18.71875 L 16.574219 19.160156 C 16.703125 19.226562 16.777344 19.363281 16.765625 19.507812 C 16.675781 20.507812 16.457031 24.40625 18.214844 26.46875 C 18.574219 26.890625 18.734375 27.449219 18.628906 27.996094 C 18.535156 28.488281 18.3125 29.089844 17.824219 29.679688 L 17.175781 30.386719 C 17.058594 30.511719 17.015625 30.691406 17.0625 30.859375 L 17.691406 33.105469 C 17.75 33.320312 17.789062 33.542969 17.800781 33.765625 L 17.925781 35.867188 C 17.9375 36.023438 18.039062 36.15625 18.183594 36.210938 C 18.34375 36.265625 18.46875 36.398438 18.507812 36.5625 L 18.511719 36.574219 C 18.574219 36.824219 18.792969 37 19.046875 37.015625 L 19.738281 37.058594 C 19.953125 37.070312 20.128906 36.898438 20.125 36.683594 L 20.125 36.652344 C 20.121094 36.441406 20.039062 36.246094 19.902344 36.089844 L 19.535156 35.683594 C 19.367188 35.5 19.25 35.273438 19.195312 35.03125 L 18.550781 32.175781 C 18.5 31.953125 18.550781 31.722656 18.6875 31.542969 L 18.859375 31.320312 C 18.980469 31.160156 19.226562 31.164062 19.34375 31.332031 C 19.832031 32.042969 20.898438 33.824219 20.875 35.804688 C 20.875 35.933594 20.976562 36.039062 21.105469 36.046875 C 21.1875 36.050781 21.265625 36.097656 21.304688 36.175781 L 21.722656 36.976562 C 21.765625 37.054688 21.847656 37.105469 21.9375 37.105469 L 22.699219 37.109375 C 22.859375 37.109375 22.972656 36.960938 22.933594 36.808594 L 22.746094 36.070312 C 22.738281 36.039062 22.722656 36.011719 22.703125 35.988281 L 21.507812 34.367188 C 21.492188 34.351562 21.484375 34.332031 21.476562 34.3125 C 21.347656 33.980469 20.222656 30.957031 21.265625 30.207031 C 22.371094 29.414062 22.558594 29.667969 23.1875 28.628906 Z M 23.1875 28.628906 " fill-opacity="1" fill-rule="nonzero"/></g><g fill="#336010" fill-opacity="1"><g transform="translate(19.224422, 44.97217)"><g><path d="M 5.328125 -4.359375 C 5.148438 -4.710938 4.898438 -4.988281 4.578125 -5.1875 C 4.253906 -5.382812 3.878906 -5.484375 3.453125 -5.484375 C 3.023438 -5.484375 2.640625 -5.382812 2.296875 -5.1875 C 1.953125 -4.988281 1.679688 -4.707031 1.484375 -4.34375 C 1.296875 -3.976562 1.203125 -3.550781 1.203125 -3.0625 C 1.203125 -2.582031 1.296875 -2.160156 1.484375 -1.796875 C 1.679688 -1.441406 1.953125 -1.164062 2.296875 -0.96875 C 2.640625 -0.769531 3.023438 -0.671875 3.453125 -0.671875 C 4.054688 -0.671875 4.550781 -0.847656 4.9375 -1.203125 C 5.320312 -1.554688 5.546875 -2.039062 5.609375 -2.65625 L 3.171875 -2.65625 L 3.171875 -3.3125 L 6.46875 -3.3125 L 6.46875 -2.6875 C 6.414062 -2.1875 6.253906 -1.722656 5.984375 -1.296875 C 5.722656 -0.878906 5.367188 -0.550781 4.921875 -0.3125 C 4.484375 -0.0703125 3.992188 0.046875 3.453125 0.046875 C 2.890625 0.046875 2.375 -0.0820312 1.90625 -0.34375 C 1.4375 -0.613281 1.0625 -0.984375 0.78125 -1.453125 C 0.507812 -1.929688 0.375 -2.46875 0.375 -3.0625 C 0.375 -3.664062 0.507812 -4.207031 0.78125 -4.6875 C 1.0625 -5.164062 1.4375 -5.535156 1.90625 -5.796875 C 2.375 -6.066406 2.890625 -6.203125 3.453125 -6.203125 C 4.109375 -6.203125 4.6875 -6.039062 5.1875 -5.71875 C 5.6875 -5.394531 6.050781 -4.941406 6.28125 -4.359375 Z M 5.328125 -4.359375 "/></g></g></g><g fill="#336010" fill-opacity="1"><g transform="translate(26.06635, 44.97217)"><g><path d="M 2.78125 0.078125 C 2.332031 0.078125 1.921875 -0.0195312 1.546875 -0.21875 C 1.179688 -0.425781 0.894531 -0.71875 0.6875 -1.09375 C 0.476562 -1.476562 0.375 -1.921875 0.375 -2.421875 C 0.375 -2.910156 0.476562 -3.34375 0.6875 -3.71875 C 0.90625 -4.101562 1.195312 -4.394531 1.5625 -4.59375 C 1.9375 -4.800781 2.351562 -4.90625 2.8125 -4.90625 C 3.269531 -4.90625 3.679688 -4.800781 4.046875 -4.59375 C 4.421875 -4.394531 4.710938 -4.109375 4.921875 -3.734375 C 5.140625 -3.359375 5.25 -2.921875 5.25 -2.421875 C 5.25 -1.921875 5.140625 -1.476562 4.921875 -1.09375 C 4.703125 -0.71875 4.40625 -0.425781 4.03125 -0.21875 C 3.65625 -0.0195312 3.238281 0.078125 2.78125 0.078125 Z M 2.78125 -0.625 C 3.0625 -0.625 3.328125 -0.691406 3.578125 -0.828125 C 3.835938 -0.960938 4.046875 -1.164062 4.203125 -1.4375 C 4.359375 -1.707031 4.4375 -2.035156 4.4375 -2.421875 C 4.4375 -2.804688 4.359375 -3.132812 4.203125 -3.40625 C 4.046875 -3.675781 3.84375 -3.875 3.59375 -4 C 3.351562 -4.132812 3.09375 -4.203125 2.8125 -4.203125 C 2.507812 -4.203125 2.238281 -4.132812 2 -4 C 1.757812 -3.875 1.566406 -3.675781 1.421875 -3.40625 C 1.273438 -3.132812 1.203125 -2.804688 1.203125 -2.421875 C 1.203125 -2.023438 1.269531 -1.691406 1.40625 -1.421875 C 1.550781 -1.148438 1.742188 -0.945312 1.984375 -0.8125 C 2.222656 -0.6875 2.488281 -0.625 2.78125 -0.625 Z M 2.78125 -0.625 "/></g></g></g><g fill="#336010" fill-opacity="1"><g transform="translate(31.694674, 44.97217)"><g><path d="M 0.375 -2.421875 C 0.375 -2.921875 0.472656 -3.351562 0.671875 -3.71875 C 0.867188 -4.09375 1.140625 -4.382812 1.484375 -4.59375 C 1.835938 -4.800781 2.234375 -4.90625 2.671875 -4.90625 C 3.085938 -4.90625 3.453125 -4.8125 3.765625 -4.625 C 4.078125 -4.445312 4.304688 -4.21875 4.453125 -3.9375 L 4.453125 -4.828125 L 5.265625 -4.828125 L 5.265625 0 L 4.453125 0 L 4.453125 -0.890625 C 4.296875 -0.609375 4.0625 -0.375 3.75 -0.1875 C 3.4375 -0.0078125 3.070312 0.078125 2.65625 0.078125 C 2.226562 0.078125 1.835938 -0.0234375 1.484375 -0.234375 C 1.140625 -0.441406 0.867188 -0.738281 0.671875 -1.125 C 0.472656 -1.507812 0.375 -1.941406 0.375 -2.421875 Z M 4.453125 -2.421875 C 4.453125 -2.785156 4.378906 -3.101562 4.234375 -3.375 C 4.085938 -3.644531 3.890625 -3.847656 3.640625 -3.984375 C 3.390625 -4.128906 3.117188 -4.203125 2.828125 -4.203125 C 2.523438 -4.203125 2.25 -4.128906 2 -3.984375 C 1.757812 -3.847656 1.566406 -3.644531 1.421875 -3.375 C 1.273438 -3.101562 1.203125 -2.785156 1.203125 -2.421875 C 1.203125 -2.054688 1.273438 -1.738281 1.421875 -1.46875 C 1.566406 -1.195312 1.757812 -0.988281 2 -0.84375 C 2.25 -0.695312 2.523438 -0.625 2.828125 -0.625 C 3.117188 -0.625 3.390625 -0.695312 3.640625 -0.84375 C 3.890625 -0.988281 4.085938 -1.195312 4.234375 -1.46875 C 4.378906 -1.738281 4.453125 -2.054688 4.453125 -2.421875 Z M 4.453125 -2.421875 "/></g></g></g><g fill="#336010" fill-opacity="1"><g transform="translate(37.639594, 44.97217)"><g><path d="M 1.65625 -4.15625 L 1.65625 -1.3125 C 1.65625 -1.082031 1.703125 -0.914062 1.796875 -0.8125 C 1.898438 -0.71875 2.078125 -0.671875 2.328125 -0.671875 L 2.90625 -0.671875 L 2.90625 0 L 2.1875 0 C 1.738281 0 1.40625 -0.0976562 1.1875 -0.296875 C 0.96875 -0.503906 0.859375 -0.84375 0.859375 -1.3125 L 0.859375 -4.15625 L 0.234375 -4.15625 L 0.234375 -4.828125 L 0.859375 -4.828125 L 0.859375 -6.03125 L 1.65625 -6.03125 L 1.65625 -4.828125 L 2.90625 -4.828125 L 2.90625 -4.15625 Z M 1.65625 -4.15625 "/></g></g></g><g fill="#336010" fill-opacity="1"><g transform="translate(40.843485, 44.97217)"><g/></g></g><g fill="#336010" fill-opacity="1"><g transform="translate(12.159294, 54.499214)"><g><path d="M 4.296875 -1.359375 L 1.625 -1.359375 L 1.140625 0 L 0.296875 0 L 2.5 -6.09375 L 3.4375 -6.09375 L 5.640625 0 L 4.796875 0 Z M 4.078125 -2.015625 L 2.96875 -5.109375 L 1.859375 -2.015625 Z M 4.078125 -2.015625 "/></g></g></g><g fill="#336010" fill-opacity="1"><g transform="translate(18.086624, 54.499214)"><g><path d="M 4.953125 -4.828125 L 4.953125 0 L 4.15625 0 L 4.15625 -0.71875 C 4 -0.46875 3.785156 -0.269531 3.515625 -0.125 C 3.242188 0.0078125 2.941406 0.078125 2.609375 0.078125 C 2.234375 0.078125 1.894531 0 1.59375 -0.15625 C 1.300781 -0.3125 1.066406 -0.546875 0.890625 -0.859375 C 0.722656 -1.171875 0.640625 -1.550781 0.640625 -2 L 0.640625 -4.828125 L 1.421875 -4.828125 L 1.421875 -2.109375 C 1.421875 -1.628906 1.539062 -1.257812 1.78125 -1 C 2.019531 -0.75 2.347656 -0.625 2.765625 -0.625 C 3.191406 -0.625 3.53125 -0.753906 3.78125 -1.015625 C 4.03125 -1.285156 4.15625 -1.671875 4.15625 -2.171875 L 4.15625 -4.828125 Z M 4.953125 -4.828125 "/></g></g></g><g fill="#336010" fill-opacity="1"><g transform="translate(23.714949, 54.499214)"><g><path d="M 0.375 -2.421875 C 0.375 -2.921875 0.472656 -3.351562 0.671875 -3.71875 C 0.867188 -4.09375 1.144531 -4.382812 1.5 -4.59375 C 1.863281 -4.800781 2.273438 -4.90625 2.734375 -4.90625 C 3.316406 -4.90625 3.800781 -4.757812 4.1875 -4.46875 C 4.570312 -4.175781 4.828125 -3.773438 4.953125 -3.265625 L 4.09375 -3.265625 C 4.007812 -3.566406 3.847656 -3.800781 3.609375 -3.96875 C 3.367188 -4.132812 3.078125 -4.21875 2.734375 -4.21875 C 2.273438 -4.21875 1.90625 -4.0625 1.625 -3.75 C 1.34375 -3.4375 1.203125 -2.992188 1.203125 -2.421875 C 1.203125 -1.835938 1.34375 -1.382812 1.625 -1.0625 C 1.90625 -0.75 2.273438 -0.59375 2.734375 -0.59375 C 3.078125 -0.59375 3.363281 -0.675781 3.59375 -0.84375 C 3.832031 -1.007812 4 -1.242188 4.09375 -1.546875 L 4.953125 -1.546875 C 4.828125 -1.054688 4.566406 -0.660156 4.171875 -0.359375 C 3.785156 -0.0664062 3.304688 0.078125 2.734375 0.078125 C 2.273438 0.078125 1.863281 -0.0195312 1.5 -0.21875 C 1.144531 -0.425781 0.867188 -0.71875 0.671875 -1.09375 C 0.472656 -1.46875 0.375 -1.910156 0.375 -2.421875 Z M 0.375 -2.421875 "/></g></g></g><g fill="#336010" fill-opacity="1"><g transform="translate(29.053067, 54.499214)"><g><path d="M 1.65625 -4.15625 L 1.65625 -1.3125 C 1.65625 -1.082031 1.703125 -0.914062 1.796875 -0.8125 C 1.898438 -0.71875 2.078125 -0.671875 2.328125 -0.671875 L 2.90625 -0.671875 L 2.90625 0 L 2.1875 0 C 1.738281 0 1.40625 -0.0976562 1.1875 -0.296875 C 0.96875 -0.503906 0.859375 -0.84375 0.859375 -1.3125 L 0.859375 -4.15625 L 0.234375 -4.15625 L 0.234375 -4.828125 L 0.859375 -4.828125 L 0.859375 -6.03125 L 1.65625 -6.03125 L 1.65625 -4.828125 L 2.90625 -4.828125 L 2.90625 -4.15625 Z M 1.65625 -4.15625 "/></g></g></g><g fill="#336010" fill-opacity="1"><g transform="translate(32.254174, 54.499214)"><g><path d="M 1.09375 -5.609375 C 0.9375 -5.609375 0.804688 -5.660156 0.703125 -5.765625 C 0.597656 -5.867188 0.546875 -6 0.546875 -6.15625 C 0.546875 -6.300781 0.597656 -6.425781 0.703125 -6.53125 C 0.804688 -6.632812 0.9375 -6.6875 1.09375 -6.6875 C 1.238281 -6.6875 1.363281 -6.632812 1.46875 -6.53125 C 1.570312 -6.425781 1.625 -6.300781 1.625 -6.15625 C 1.625 -6 1.570312 -5.867188 1.46875 -5.765625 C 1.363281 -5.660156 1.238281 -5.609375 1.09375 -5.609375 Z M 1.484375 -4.828125 L 1.484375 0 L 0.671875 0 L 0.671875 -4.828125 Z M 1.484375 -4.828125 "/></g></g></g><g fill="#336010" fill-opacity="1"><g transform="translate(34.417565, 54.499214)"><g><path d="M 2.78125 0.078125 C 2.332031 0.078125 1.921875 -0.0195312 1.546875 -0.21875 C 1.179688 -0.425781 0.894531 -0.71875 0.6875 -1.09375 C 0.476562 -1.476562 0.375 -1.921875 0.375 -2.421875 C 0.375 -2.910156 0.476562 -3.34375 0.6875 -3.71875 C 0.90625 -4.101562 1.195312 -4.394531 1.5625 -4.59375 C 1.9375 -4.800781 2.351562 -4.90625 2.8125 -4.90625 C 3.269531 -4.90625 3.679688 -4.800781 4.046875 -4.59375 C 4.421875 -4.394531 4.710938 -4.109375 4.921875 -3.734375 C 5.140625 -3.359375 5.25 -2.921875 5.25 -2.421875 C 5.25 -1.921875 5.140625 -1.476562 4.921875 -1.09375 C 4.703125 -0.71875 4.40625 -0.425781 4.03125 -0.21875 C 3.65625 -0.0195312 3.238281 0.078125 2.78125 0.078125 Z M 2.78125 -0.625 C 3.0625 -0.625 3.328125 -0.691406 3.578125 -0.828125 C 3.835938 -0.960938 4.046875 -1.164062 4.203125 -1.4375 C 4.359375 -1.707031 4.4375 -2.035156 4.4375 -2.421875 C 4.4375 -2.804688 4.359375 -3.132812 4.203125 -3.40625 C 4.046875 -3.675781 3.84375 -3.875 3.59375 -4 C 3.351562 -4.132812 3.09375 -4.203125 2.8125 -4.203125 C 2.507812 -4.203125 2.238281 -4.132812 2 -4 C 1.757812 -3.875 1.566406 -3.675781 1.421875 -3.40625 C 1.273438 -3.132812 1.203125 -2.804688 1.203125 -2.421875 C 1.203125 -2.023438 1.269531 -1.691406 1.40625 -1.421875 C 1.550781 -1.148438 1.742188 -0.945312 1.984375 -0.8125 C 2.222656 -0.6875 2.488281 -0.625 2.78125 -0.625 Z M 2.78125 -0.625 "/></g></g></g><g fill="#336010" fill-opacity="1"><g transform="translate(40.04589, 54.499214)"><g><path d="M 3.03125 -4.90625 C 3.613281 -4.90625 4.085938 -4.726562 4.453125 -4.375 C 4.816406 -4.019531 5 -3.507812 5 -2.84375 L 5 0 L 4.203125 0 L 4.203125 -2.734375 C 4.203125 -3.210938 4.082031 -3.578125 3.84375 -3.828125 C 3.601562 -4.085938 3.273438 -4.21875 2.859375 -4.21875 C 2.429688 -4.21875 2.09375 -4.082031 1.84375 -3.8125 C 1.601562 -3.550781 1.484375 -3.171875 1.484375 -2.671875 L 1.484375 0 L 0.671875 0 L 0.671875 -4.828125 L 1.484375 -4.828125 L 1.484375 -4.140625 C 1.640625 -4.378906 1.851562 -4.566406 2.125 -4.703125 C 2.394531 -4.835938 2.695312 -4.90625 3.03125 -4.90625 Z M 3.03125 -4.90625 "/></g></g></g><g fill="#336010" fill-opacity="1"><g transform="translate(45.674214, 54.499214)"><g><path d="M 2.390625 0.078125 C 2.015625 0.078125 1.679688 0.015625 1.390625 -0.109375 C 1.097656 -0.234375 0.863281 -0.40625 0.6875 -0.625 C 0.519531 -0.851562 0.425781 -1.117188 0.40625 -1.421875 L 1.234375 -1.421875 C 1.265625 -1.179688 1.378906 -0.984375 1.578125 -0.828125 C 1.773438 -0.671875 2.039062 -0.59375 2.375 -0.59375 C 2.675781 -0.59375 2.914062 -0.660156 3.09375 -0.796875 C 3.269531 -0.929688 3.359375 -1.101562 3.359375 -1.3125 C 3.359375 -1.519531 3.265625 -1.675781 3.078125 -1.78125 C 2.890625 -1.882812 2.597656 -1.984375 2.203125 -2.078125 C 1.847656 -2.171875 1.554688 -2.265625 1.328125 -2.359375 C 1.109375 -2.460938 0.914062 -2.609375 0.75 -2.796875 C 0.59375 -2.992188 0.515625 -3.242188 0.515625 -3.546875 C 0.515625 -3.796875 0.585938 -4.023438 0.734375 -4.234375 C 0.878906 -4.441406 1.085938 -4.601562 1.359375 -4.71875 C 1.628906 -4.84375 1.9375 -4.90625 2.28125 -4.90625 C 2.8125 -4.90625 3.238281 -4.769531 3.5625 -4.5 C 3.894531 -4.226562 4.070312 -3.859375 4.09375 -3.390625 L 3.296875 -3.390625 C 3.273438 -3.640625 3.171875 -3.835938 2.984375 -3.984375 C 2.804688 -4.140625 2.5625 -4.21875 2.25 -4.21875 C 1.96875 -4.21875 1.738281 -4.15625 1.5625 -4.03125 C 1.394531 -3.914062 1.3125 -3.753906 1.3125 -3.546875 C 1.3125 -3.390625 1.363281 -3.257812 1.46875 -3.15625 C 1.570312 -3.0625 1.695312 -2.984375 1.84375 -2.921875 C 2 -2.859375 2.21875 -2.785156 2.5 -2.703125 C 2.84375 -2.609375 3.125 -2.515625 3.34375 -2.421875 C 3.5625 -2.335938 3.75 -2.203125 3.90625 -2.015625 C 4.0625 -1.835938 4.140625 -1.601562 4.140625 -1.3125 C 4.140625 -1.050781 4.066406 -0.8125 3.921875 -0.59375 C 3.773438 -0.382812 3.566406 -0.21875 3.296875 -0.09375 C 3.035156 0.0195312 2.734375 0.078125 2.390625 0.078125 Z M 2.390625 0.078125 "/></g></g></g></svg>