<svg xmlns="http://www.w3.org/2000/svg" xmlns:xlink="http://www.w3.org/1999/xlink" width="85" zoomAndPan="magnify" viewBox="0 0 63.75 66" height="88" preserveAspectRatio="xMidYMid meet" version="1.0"><defs><filter x="0%" y="0%" width="100%" height="100%" id="11b523fae6"><feColorMatrix values="0 0 0 0 1 0 0 0 0 1 0 0 0 0 1 0 0 0 1 0" color-interpolation-filters="sRGB"/></filter><g/><clipPath id="01fc628759"><path d="M 0 0.128906 L 63 0.128906 L 63 65.871094 L 0 65.871094 Z M 0 0.128906 " clip-rule="nonzero"/></clipPath><mask id="bad9b2d925"><g filter="url(#11b523fae6)"><rect x="-6.375" width="76.5" fill="#000000" y="-6.6" height="79.2" fill-opacity="0.97"/></g></mask><clipPath id="56e4f47054"><path d="M 0 0.128906 L 62.824219 0.128906 L 62.824219 65.871094 L 0 65.871094 Z M 0 0.128906 " clip-rule="nonzero"/></clipPath><clipPath id="45f82c4851"><path d="M 5.976562 0.128906 L 56.847656 0.128906 C 58.429688 0.128906 59.953125 0.757812 61.074219 1.878906 C 62.191406 3 62.824219 4.519531 62.824219 6.105469 L 62.824219 59.894531 C 62.824219 61.476562 62.191406 63 61.074219 64.121094 C 59.953125 65.242188 58.429688 65.871094 56.847656 65.871094 L 5.976562 65.871094 C 4.390625 65.871094 2.871094 65.242188 1.75 64.121094 C 0.628906 63 0 61.476562 0 59.894531 L 0 6.105469 C 0 4.519531 0.628906 3 1.75 1.878906 C 2.871094 0.757812 4.390625 0.128906 5.976562 0.128906 Z M 5.976562 0.128906 " clip-rule="nonzero"/></clipPath><clipPath id="ba49247bb7"><rect x="0" width="63" y="0" height="66"/></clipPath><clipPath id="249aeb1a7f"><path d="M 17.066406 6.917969 L 47.695312 6.917969 L 47.695312 36 L 17.066406 36 Z M 17.066406 6.917969 " clip-rule="nonzero"/></clipPath></defs><g clip-path="url(#01fc628759)"><g mask="url(#bad9b2d925)"><g transform="matrix(1, 0, 0, 1, 0, -0.000000000000011935)"><g clip-path="url(#ba49247bb7)"><g clip-path="url(#56e4f47054)"><g clip-path="url(#45f82c4851)"><path fill="#ffffff" d="M 0 0.128906 L 62.824219 0.128906 L 62.824219 65.898438 L 0 65.898438 Z M 0 0.128906 " fill-opacity="1" fill-rule="nonzero"/></g></g></g></g></g></g><g clip-path="url(#249aeb1a7f)"><path fill="#336010" d="M 34.503906 14.699219 C 34.03125 14.574219 33.671875 14.792969 33.296875 15.09375 C 33.386719 14.65625 33.566406 14.320312 33.945312 14.15625 C 34.4375 13.949219 34.871094 13.652344 35.304688 13.34375 C 35.589844 13.140625 35.960938 13.0625 36.261719 12.941406 C 35.988281 12.765625 35.308594 12.933594 34.53125 13.425781 C 34.59375 13.117188 34.710938 12.855469 34.933594 12.6875 C 35.210938 12.480469 35.527344 12.3125 35.84375 12.15625 C 36.269531 11.941406 36.714844 11.761719 37.148438 11.554688 C 37.265625 11.5 37.355469 11.394531 37.457031 11.285156 C 36.96875 11.273438 36.480469 11.363281 36.019531 11.140625 C 36.0625 11.136719 36.101562 11.128906 36.144531 11.128906 C 36.65625 11.132812 37.085938 10.941406 37.460938 10.585938 C 37.6875 10.375 37.960938 10.210938 38.203125 10.03125 C 37.976562 9.957031 37.738281 10.066406 37.445312 10.203125 C 37.503906 10.085938 37.523438 9.992188 37.582031 9.945312 C 37.808594 9.773438 38.03125 9.582031 38.285156 9.464844 C 38.679688 9.285156 39.097656 9.160156 39.542969 8.996094 C 39.167969 8.878906 38.820312 8.941406 38.433594 8.992188 C 38.71875 8.671875 39.050781 8.539062 39.425781 8.515625 C 39.714844 8.5 40.003906 8.535156 40.289062 8.507812 C 40.558594 8.480469 40.839844 8.449219 41.082031 8.339844 C 41.546875 8.128906 42.003906 8.015625 42.519531 8.148438 C 42.867188 8.238281 43.019531 8.117188 43.105469 7.773438 C 43.191406 7.425781 43.390625 7.152344 43.65625 6.921875 C 43.742188 7.246094 43.820312 7.542969 43.90625 7.851562 C 44.214844 7.8125 44.5 7.804688 44.746094 8.007812 C 44.769531 8.027344 44.878906 7.976562 44.921875 7.933594 C 45.058594 7.796875 45.191406 7.652344 45.300781 7.496094 C 45.410156 7.34375 45.492188 7.171875 45.605469 6.980469 C 45.910156 7.566406 45.828125 8.117188 45.589844 8.617188 C 45.710938 8.898438 45.832031 9.140625 45.921875 9.394531 C 46.089844 9.859375 46.300781 10.039062 46.792969 10.082031 C 46.597656 10.320312 46.273438 10.257812 45.480469 9.824219 C 45.542969 9.96875 45.578125 10.078125 45.632812 10.175781 C 46.179688 11.164062 46.726562 12.15625 47.289062 13.136719 C 47.417969 13.367188 47.585938 13.582031 47.761719 13.777344 C 47.953125 13.984375 47.964844 14.210938 47.90625 14.457031 C 47.84375 14.734375 47.753906 15.011719 47.699219 15.292969 C 47.648438 15.542969 47.511719 15.703125 47.265625 15.734375 C 46.996094 15.769531 46.722656 15.78125 46.453125 15.773438 C 46.257812 15.773438 46.136719 15.664062 46.089844 15.453125 C 46.007812 15.070312 45.78125 14.78125 45.4375 14.597656 C 45 14.363281 44.5625 14.128906 44.21875 13.761719 C 44.1875 13.726562 44.128906 13.710938 44.082031 13.707031 C 43.144531 13.644531 43.144531 13.648438 42.625 12.972656 C 42.605469 13.007812 42.585938 13.039062 42.574219 13.070312 C 42.109375 14.554688 41.644531 16.035156 41.1875 17.519531 C 41 18.128906 41.019531 18.742188 41.273438 19.324219 C 41.828125 20.59375 41.613281 21.78125 40.921875 22.921875 C 40.8125 23.105469 40.785156 23.289062 40.886719 23.46875 C 41.042969 23.742188 41.210938 24.015625 41.390625 24.273438 C 41.828125 24.910156 42.3125 25.507812 43.015625 25.882812 C 43.121094 25.941406 43.210938 26.070312 43.261719 26.183594 C 43.414062 26.527344 43.558594 26.875 43.679688 27.234375 C 43.730469 27.386719 43.757812 27.582031 43.707031 27.730469 C 43.390625 28.660156 43.460938 29.597656 43.582031 30.542969 C 43.609375 30.777344 43.632812 31.015625 43.652344 31.25 C 43.664062 31.445312 43.597656 31.613281 43.4375 31.734375 C 43.113281 31.984375 42.90625 32.304688 42.808594 32.703125 C 42.796875 32.75 42.777344 32.800781 42.753906 32.847656 C 42.625 33.117188 41.621094 33.625 41.328125 33.554688 C 41.265625 33.539062 41.191406 33.457031 41.175781 33.394531 C 41.050781 32.898438 41.078125 32.40625 41.292969 31.941406 C 41.441406 31.628906 41.746094 31.507812 42.089844 31.472656 C 42.15625 31.46875 42.257812 31.398438 42.269531 31.34375 C 42.449219 30.511719 42.6875 29.695312 42.6875 28.832031 C 42.6875 28.316406 42.574219 27.828125 42.332031 27.382812 C 42.214844 27.167969 42.03125 26.976562 41.832031 26.828125 C 41.582031 26.640625 41.300781 26.480469 41.015625 26.347656 C 40.394531 26.0625 39.804688 25.730469 39.242188 25.339844 C 38.546875 24.859375 38.230469 24.96875 37.964844 25.761719 C 37.570312 26.9375 37.285156 28.136719 37.316406 29.394531 C 37.324219 29.601562 37.269531 29.820312 37.207031 30.019531 C 36.890625 31.046875 36.808594 32.082031 37.035156 33.132812 C 37.175781 33.769531 37.542969 34.238281 38.164062 34.492188 C 38.257812 34.53125 38.359375 34.613281 38.410156 34.703125 C 38.636719 35.082031 38.847656 35.472656 39.070312 35.871094 C 39.03125 35.886719 39.007812 35.90625 38.984375 35.90625 C 38.4375 35.90625 37.890625 35.910156 37.339844 35.898438 C 37.269531 35.898438 37.199219 35.824219 37.132812 35.777344 C 37.109375 35.761719 37.097656 35.726562 37.082031 35.703125 C 36.839844 35.289062 36.839844 35.289062 37.1875 34.910156 C 37.074219 34.832031 36.972656 34.738281 36.855469 34.675781 C 36.691406 34.59375 36.511719 34.539062 36.34375 34.464844 C 36.054688 34.335938 35.910156 34.105469 35.921875 33.796875 C 35.945312 33.351562 35.980469 32.910156 36.027344 32.46875 C 36.097656 31.8125 36.078125 31.171875 35.871094 30.539062 C 35.828125 30.398438 35.789062 30.242188 35.8125 30.101562 C 35.925781 29.375 35.789062 28.65625 35.753906 27.933594 C 35.714844 27.105469 35.726562 26.277344 35.71875 25.449219 C 35.71875 25.304688 35.734375 25.15625 35.726562 25.007812 C 35.710938 24.585938 35.570312 24.433594 35.152344 24.402344 C 34.925781 24.386719 34.695312 24.402344 34.464844 24.390625 C 33.574219 24.347656 32.675781 24.347656 31.789062 24.238281 C 30.625 24.09375 29.558594 23.617188 28.53125 23.058594 C 28.457031 23.019531 28.382812 22.988281 28.316406 22.941406 C 28.167969 22.847656 28.0625 22.90625 27.984375 23.039062 C 27.921875 23.152344 27.875 23.28125 27.816406 23.398438 C 27.558594 23.910156 27.332031 24.445312 27.027344 24.933594 C 26.484375 25.8125 26.015625 26.722656 25.699219 27.707031 C 25.585938 28.058594 25.433594 28.398438 25.28125 28.734375 C 25.03125 29.28125 24.976562 29.835938 25.160156 30.417969 C 25.511719 31.53125 25.964844 32.597656 26.757812 33.484375 C 26.875 33.613281 26.949219 33.785156 27.066406 33.914062 C 27.25 34.113281 27.453125 34.292969 27.644531 34.480469 C 27.769531 34.605469 27.910156 34.714844 28.003906 34.863281 C 28.207031 35.1875 28.382812 35.527344 28.582031 35.882812 C 28.535156 35.894531 28.503906 35.910156 28.472656 35.910156 C 27.945312 35.90625 27.421875 35.898438 26.894531 35.902344 C 26.582031 35.90625 26.554688 35.636719 26.445312 35.453125 C 26.355469 35.304688 26.402344 35.171875 26.535156 35.0625 C 26.707031 34.929688 26.617188 34.808594 26.488281 34.730469 C 26.332031 34.632812 26.160156 34.5625 25.996094 34.480469 C 25.765625 34.371094 25.597656 34.222656 25.519531 33.960938 C 25.089844 32.523438 24.417969 31.199219 23.566406 29.972656 C 23.339844 29.644531 23.296875 29.328125 23.421875 28.96875 C 23.476562 28.8125 23.511719 28.652344 23.554688 28.492188 C 23.539062 28.484375 23.519531 28.480469 23.503906 28.472656 C 23.234375 28.855469 22.914062 29.214844 22.710938 29.632812 C 22.558594 29.945312 22.554688 30.335938 22.484375 30.691406 C 22.339844 31.449219 22.21875 32.210938 22.289062 32.984375 C 22.316406 33.296875 22.371094 33.621094 22.492188 33.910156 C 22.589844 34.144531 22.796875 34.332031 22.957031 34.539062 C 23.070312 34.6875 23.21875 34.816406 23.304688 34.976562 C 23.464844 35.265625 23.585938 35.574219 23.734375 35.898438 C 23.113281 35.898438 22.527344 35.902344 21.9375 35.894531 C 21.886719 35.894531 21.824219 35.824219 21.796875 35.777344 C 21.746094 35.679688 21.714844 35.570312 21.679688 35.464844 C 21.617188 35.292969 21.648438 35.140625 21.816406 35.042969 C 21.996094 34.9375 21.949219 34.8125 21.835938 34.703125 C 21.726562 34.597656 21.601562 34.503906 21.46875 34.417969 C 21.125 34.203125 21.011719 33.894531 21.066406 33.507812 C 21.152344 32.878906 21.265625 32.246094 21.3125 31.613281 C 21.394531 30.597656 21.445312 29.578125 21.480469 28.558594 C 21.496094 28.210938 21.539062 27.910156 21.863281 27.722656 C 21.996094 27.644531 21.988281 27.53125 21.898438 27.445312 C 21.726562 27.28125 21.550781 27.101562 21.34375 26.988281 C 21.058594 26.835938 20.734375 26.75 20.4375 26.621094 C 20.144531 26.492188 19.859375 26.335938 19.523438 26.171875 C 19.65625 26.417969 19.773438 26.632812 19.890625 26.847656 C 20.070312 27.179688 20.28125 27.5 20.425781 27.84375 C 20.769531 28.691406 20.667969 29.527344 20.269531 30.335938 C 20.15625 30.566406 20.019531 30.785156 19.886719 31.007812 C 19.472656 31.679688 19.304688 32.394531 19.449219 33.210938 C 19.425781 33.171875 19.402344 33.136719 19.378906 33.097656 C 19.113281 32.695312 19.03125 32.257812 19.121094 31.785156 C 19.191406 31.40625 19.265625 31.027344 19.308594 30.648438 C 19.410156 29.738281 19.191406 28.898438 18.746094 28.109375 C 18.492188 27.660156 18.234375 27.210938 17.984375 26.757812 C 17.207031 25.34375 17.066406 23.859375 17.542969 22.332031 C 17.921875 21.125 18.519531 20.015625 19.277344 19 C 20.050781 17.964844 21.125 17.453125 22.40625 17.394531 C 22.785156 17.375 23.074219 17.28125 23.355469 17 C 24.726562 15.640625 26.378906 15.328125 28.214844 15.765625 C 29.003906 15.953125 29.796875 16.148438 30.597656 16.289062 C 31.027344 16.367188 31.480469 16.363281 31.921875 16.339844 C 32.703125 16.300781 33.316406 15.925781 33.753906 15.28125 C 33.945312 15.007812 34.140625 14.753906 34.503906 14.699219 Z M 22.035156 27.507812 C 22.054688 27.515625 22.070312 27.523438 22.089844 27.53125 C 22.253906 27.324219 22.433594 27.128906 22.578125 26.910156 C 23.285156 25.859375 23.402344 24.777344 22.71875 23.664062 C 22.558594 23.402344 22.402344 23.132812 22.242188 22.863281 C 21.796875 22.109375 21.628906 21.300781 21.746094 20.433594 C 21.75 20.398438 21.746094 20.359375 21.746094 20.320312 C 21.652344 20.378906 21.597656 20.449219 21.554688 20.523438 C 21.261719 21.027344 21.167969 21.574219 21.242188 22.148438 C 21.316406 22.722656 21.582031 23.214844 21.910156 23.679688 C 22.21875 24.121094 22.53125 24.566406 22.65625 25.105469 C 22.726562 25.398438 22.757812 25.695312 22.660156 25.953125 C 22.570312 25.730469 22.511719 25.464844 22.367188 25.261719 C 22.214844 25.039062 22 24.855469 21.785156 24.691406 C 21.320312 24.347656 20.84375 24.019531 20.511719 23.53125 C 20.507812 23.527344 20.488281 23.535156 20.414062 23.539062 C 20.554688 23.835938 20.660156 24.128906 20.820312 24.390625 C 21.007812 24.6875 21.242188 24.960938 21.460938 25.238281 C 22.003906 25.90625 22.261719 26.644531 22.035156 27.507812 Z M 22.035156 27.507812 " fill-opacity="1" fill-rule="nonzero"/></g><g fill="#336010" fill-opacity="1"><g transform="translate(15.20232, 43.606494)"><g><path d="M 5.40625 -6.125 L 5.40625 0 L 4.59375 0 L 4.59375 -2.78125 L 1.484375 -2.78125 L 1.484375 0 L 0.671875 0 L 0.671875 -6.125 L 1.484375 -6.125 L 1.484375 -3.4375 L 4.59375 -3.4375 L 4.59375 -6.125 Z M 5.40625 -6.125 "/></g></g></g><g fill="#336010" fill-opacity="1"><g transform="translate(21.287949, 43.606494)"><g><path d="M 2.78125 0.078125 C 2.332031 0.078125 1.921875 -0.0195312 1.546875 -0.21875 C 1.179688 -0.425781 0.894531 -0.71875 0.6875 -1.09375 C 0.476562 -1.476562 0.375 -1.921875 0.375 -2.421875 C 0.375 -2.910156 0.476562 -3.34375 0.6875 -3.71875 C 0.90625 -4.101562 1.195312 -4.394531 1.5625 -4.59375 C 1.9375 -4.800781 2.351562 -4.90625 2.8125 -4.90625 C 3.269531 -4.90625 3.679688 -4.800781 4.046875 -4.59375 C 4.421875 -4.394531 4.710938 -4.109375 4.921875 -3.734375 C 5.140625 -3.359375 5.25 -2.921875 5.25 -2.421875 C 5.25 -1.921875 5.140625 -1.476562 4.921875 -1.09375 C 4.703125 -0.71875 4.40625 -0.425781 4.03125 -0.21875 C 3.65625 -0.0195312 3.238281 0.078125 2.78125 0.078125 Z M 2.78125 -0.625 C 3.0625 -0.625 3.328125 -0.691406 3.578125 -0.828125 C 3.835938 -0.960938 4.046875 -1.164062 4.203125 -1.4375 C 4.359375 -1.707031 4.4375 -2.035156 4.4375 -2.421875 C 4.4375 -2.804688 4.359375 -3.132812 4.203125 -3.40625 C 4.046875 -3.675781 3.84375 -3.875 3.59375 -4 C 3.351562 -4.132812 3.09375 -4.203125 2.8125 -4.203125 C 2.507812 -4.203125 2.238281 -4.132812 2 -4 C 1.757812 -3.875 1.566406 -3.675781 1.421875 -3.40625 C 1.273438 -3.132812 1.203125 -2.804688 1.203125 -2.421875 C 1.203125 -2.023438 1.269531 -1.691406 1.40625 -1.421875 C 1.550781 -1.148438 1.742188 -0.945312 1.984375 -0.8125 C 2.222656 -0.6875 2.488281 -0.625 2.78125 -0.625 Z M 2.78125 -0.625 "/></g></g></g><g fill="#336010" fill-opacity="1"><g transform="translate(26.916273, 43.606494)"><g><path d="M 1.484375 -4.03125 C 1.617188 -4.3125 1.816406 -4.523438 2.078125 -4.671875 C 2.335938 -4.828125 2.65625 -4.90625 3.03125 -4.90625 L 3.03125 -4.078125 L 2.828125 -4.078125 C 1.929688 -4.078125 1.484375 -3.59375 1.484375 -2.625 L 1.484375 0 L 0.671875 0 L 0.671875 -4.828125 L 1.484375 -4.828125 Z M 1.484375 -4.03125 "/></g></g></g><g fill="#336010" fill-opacity="1"><g transform="translate(30.196529, 43.606494)"><g><path d="M 2.390625 0.078125 C 2.015625 0.078125 1.679688 0.015625 1.390625 -0.109375 C 1.097656 -0.234375 0.863281 -0.40625 0.6875 -0.625 C 0.519531 -0.851562 0.425781 -1.117188 0.40625 -1.421875 L 1.234375 -1.421875 C 1.265625 -1.179688 1.378906 -0.984375 1.578125 -0.828125 C 1.773438 -0.671875 2.039062 -0.59375 2.375 -0.59375 C 2.675781 -0.59375 2.914062 -0.660156 3.09375 -0.796875 C 3.269531 -0.929688 3.359375 -1.101562 3.359375 -1.3125 C 3.359375 -1.519531 3.265625 -1.675781 3.078125 -1.78125 C 2.890625 -1.882812 2.597656 -1.984375 2.203125 -2.078125 C 1.847656 -2.171875 1.554688 -2.265625 1.328125 -2.359375 C 1.109375 -2.460938 0.914062 -2.609375 0.75 -2.796875 C 0.59375 -2.992188 0.515625 -3.242188 0.515625 -3.546875 C 0.515625 -3.796875 0.585938 -4.023438 0.734375 -4.234375 C 0.878906 -4.441406 1.085938 -4.601562 1.359375 -4.71875 C 1.628906 -4.84375 1.9375 -4.90625 2.28125 -4.90625 C 2.8125 -4.90625 3.238281 -4.769531 3.5625 -4.5 C 3.894531 -4.226562 4.070312 -3.859375 4.09375 -3.390625 L 3.296875 -3.390625 C 3.273438 -3.640625 3.171875 -3.835938 2.984375 -3.984375 C 2.804688 -4.140625 2.5625 -4.21875 2.25 -4.21875 C 1.96875 -4.21875 1.738281 -4.15625 1.5625 -4.03125 C 1.394531 -3.914062 1.3125 -3.753906 1.3125 -3.546875 C 1.3125 -3.390625 1.363281 -3.257812 1.46875 -3.15625 C 1.570312 -3.0625 1.695312 -2.984375 1.84375 -2.921875 C 2 -2.859375 2.21875 -2.785156 2.5 -2.703125 C 2.84375 -2.609375 3.125 -2.515625 3.34375 -2.421875 C 3.5625 -2.335938 3.75 -2.203125 3.90625 -2.015625 C 4.0625 -1.835938 4.140625 -1.601562 4.140625 -1.3125 C 4.140625 -1.050781 4.066406 -0.8125 3.921875 -0.59375 C 3.773438 -0.382812 3.566406 -0.21875 3.296875 -0.09375 C 3.035156 0.0195312 2.734375 0.078125 2.390625 0.078125 Z M 2.390625 0.078125 "/></g></g></g><g fill="#336010" fill-opacity="1"><g transform="translate(34.787126, 43.606494)"><g><path d="M 5.078125 -2.59375 C 5.078125 -2.4375 5.066406 -2.273438 5.046875 -2.109375 L 1.203125 -2.109375 C 1.222656 -1.640625 1.378906 -1.269531 1.671875 -1 C 1.972656 -0.726562 2.335938 -0.59375 2.765625 -0.59375 C 3.109375 -0.59375 3.394531 -0.671875 3.625 -0.828125 C 3.851562 -0.992188 4.015625 -1.210938 4.109375 -1.484375 L 4.984375 -1.484375 C 4.847656 -1.023438 4.585938 -0.648438 4.203125 -0.359375 C 3.816406 -0.0664062 3.335938 0.078125 2.765625 0.078125 C 2.304688 0.078125 1.894531 -0.0195312 1.53125 -0.21875 C 1.175781 -0.425781 0.894531 -0.71875 0.6875 -1.09375 C 0.476562 -1.476562 0.375 -1.921875 0.375 -2.421875 C 0.375 -2.921875 0.472656 -3.359375 0.671875 -3.734375 C 0.867188 -4.109375 1.148438 -4.394531 1.515625 -4.59375 C 1.878906 -4.800781 2.296875 -4.90625 2.765625 -4.90625 C 3.222656 -4.90625 3.625 -4.800781 3.96875 -4.59375 C 4.320312 -4.394531 4.59375 -4.117188 4.78125 -3.765625 C 4.976562 -3.421875 5.078125 -3.03125 5.078125 -2.59375 Z M 4.25 -2.765625 C 4.25 -3.066406 4.179688 -3.328125 4.046875 -3.546875 C 3.910156 -3.765625 3.726562 -3.929688 3.5 -4.046875 C 3.269531 -4.160156 3.015625 -4.21875 2.734375 -4.21875 C 2.328125 -4.21875 1.976562 -4.085938 1.6875 -3.828125 C 1.40625 -3.578125 1.242188 -3.222656 1.203125 -2.765625 Z M 4.25 -2.765625 "/></g></g></g><g fill="#336010" fill-opacity="1"><g transform="translate(40.245165, 43.606494)"><g/></g></g><g fill="#336010" fill-opacity="1"><g transform="translate(9.854808, 53.133539)"><g><path d="M 4.296875 -1.359375 L 1.625 -1.359375 L 1.140625 0 L 0.296875 0 L 2.5 -6.09375 L 3.4375 -6.09375 L 5.640625 0 L 4.796875 0 Z M 4.078125 -2.015625 L 2.96875 -5.109375 L 1.859375 -2.015625 Z M 4.078125 -2.015625 "/></g></g></g><g fill="#336010" fill-opacity="1"><g transform="translate(15.782139, 53.133539)"><g><path d="M 4.953125 -4.828125 L 4.953125 0 L 4.15625 0 L 4.15625 -0.71875 C 4 -0.46875 3.785156 -0.269531 3.515625 -0.125 C 3.242188 0.0078125 2.941406 0.078125 2.609375 0.078125 C 2.234375 0.078125 1.894531 0 1.59375 -0.15625 C 1.300781 -0.3125 1.066406 -0.546875 0.890625 -0.859375 C 0.722656 -1.171875 0.640625 -1.550781 0.640625 -2 L 0.640625 -4.828125 L 1.421875 -4.828125 L 1.421875 -2.109375 C 1.421875 -1.628906 1.539062 -1.257812 1.78125 -1 C 2.019531 -0.75 2.347656 -0.625 2.765625 -0.625 C 3.191406 -0.625 3.53125 -0.753906 3.78125 -1.015625 C 4.03125 -1.285156 4.15625 -1.671875 4.15625 -2.171875 L 4.15625 -4.828125 Z M 4.953125 -4.828125 "/></g></g></g><g fill="#336010" fill-opacity="1"><g transform="translate(21.410463, 53.133539)"><g><path d="M 0.375 -2.421875 C 0.375 -2.921875 0.472656 -3.351562 0.671875 -3.71875 C 0.867188 -4.09375 1.144531 -4.382812 1.5 -4.59375 C 1.863281 -4.800781 2.273438 -4.90625 2.734375 -4.90625 C 3.316406 -4.90625 3.800781 -4.757812 4.1875 -4.46875 C 4.570312 -4.175781 4.828125 -3.773438 4.953125 -3.265625 L 4.09375 -3.265625 C 4.007812 -3.566406 3.847656 -3.800781 3.609375 -3.96875 C 3.367188 -4.132812 3.078125 -4.21875 2.734375 -4.21875 C 2.273438 -4.21875 1.90625 -4.0625 1.625 -3.75 C 1.34375 -3.4375 1.203125 -2.992188 1.203125 -2.421875 C 1.203125 -1.835938 1.34375 -1.382812 1.625 -1.0625 C 1.90625 -0.75 2.273438 -0.59375 2.734375 -0.59375 C 3.078125 -0.59375 3.363281 -0.675781 3.59375 -0.84375 C 3.832031 -1.007812 4 -1.242188 4.09375 -1.546875 L 4.953125 -1.546875 C 4.828125 -1.054688 4.566406 -0.660156 4.171875 -0.359375 C 3.785156 -0.0664062 3.304688 0.078125 2.734375 0.078125 C 2.273438 0.078125 1.863281 -0.0195312 1.5 -0.21875 C 1.144531 -0.425781 0.867188 -0.71875 0.671875 -1.09375 C 0.472656 -1.46875 0.375 -1.910156 0.375 -2.421875 Z M 0.375 -2.421875 "/></g></g></g><g fill="#336010" fill-opacity="1"><g transform="translate(26.748582, 53.133539)"><g><path d="M 1.65625 -4.15625 L 1.65625 -1.3125 C 1.65625 -1.082031 1.703125 -0.914062 1.796875 -0.8125 C 1.898438 -0.71875 2.078125 -0.671875 2.328125 -0.671875 L 2.90625 -0.671875 L 2.90625 0 L 2.1875 0 C 1.738281 0 1.40625 -0.0976562 1.1875 -0.296875 C 0.96875 -0.503906 0.859375 -0.84375 0.859375 -1.3125 L 0.859375 -4.15625 L 0.234375 -4.15625 L 0.234375 -4.828125 L 0.859375 -4.828125 L 0.859375 -6.03125 L 1.65625 -6.03125 L 1.65625 -4.828125 L 2.90625 -4.828125 L 2.90625 -4.15625 Z M 1.65625 -4.15625 "/></g></g></g><g fill="#336010" fill-opacity="1"><g transform="translate(29.949688, 53.133539)"><g><path d="M 1.09375 -5.609375 C 0.9375 -5.609375 0.804688 -5.660156 0.703125 -5.765625 C 0.597656 -5.867188 0.546875 -6 0.546875 -6.15625 C 0.546875 -6.300781 0.597656 -6.425781 0.703125 -6.53125 C 0.804688 -6.632812 0.9375 -6.6875 1.09375 -6.6875 C 1.238281 -6.6875 1.363281 -6.632812 1.46875 -6.53125 C 1.570312 -6.425781 1.625 -6.300781 1.625 -6.15625 C 1.625 -6 1.570312 -5.867188 1.46875 -5.765625 C 1.363281 -5.660156 1.238281 -5.609375 1.09375 -5.609375 Z M 1.484375 -4.828125 L 1.484375 0 L 0.671875 0 L 0.671875 -4.828125 Z M 1.484375 -4.828125 "/></g></g></g><g fill="#336010" fill-opacity="1"><g transform="translate(32.11308, 53.133539)"><g><path d="M 2.78125 0.078125 C 2.332031 0.078125 1.921875 -0.0195312 1.546875 -0.21875 C 1.179688 -0.425781 0.894531 -0.71875 0.6875 -1.09375 C 0.476562 -1.476562 0.375 -1.921875 0.375 -2.421875 C 0.375 -2.910156 0.476562 -3.34375 0.6875 -3.71875 C 0.90625 -4.101562 1.195312 -4.394531 1.5625 -4.59375 C 1.9375 -4.800781 2.351562 -4.90625 2.8125 -4.90625 C 3.269531 -4.90625 3.679688 -4.800781 4.046875 -4.59375 C 4.421875 -4.394531 4.710938 -4.109375 4.921875 -3.734375 C 5.140625 -3.359375 5.25 -2.921875 5.25 -2.421875 C 5.25 -1.921875 5.140625 -1.476562 4.921875 -1.09375 C 4.703125 -0.71875 4.40625 -0.425781 4.03125 -0.21875 C 3.65625 -0.0195312 3.238281 0.078125 2.78125 0.078125 Z M 2.78125 -0.625 C 3.0625 -0.625 3.328125 -0.691406 3.578125 -0.828125 C 3.835938 -0.960938 4.046875 -1.164062 4.203125 -1.4375 C 4.359375 -1.707031 4.4375 -2.035156 4.4375 -2.421875 C 4.4375 -2.804688 4.359375 -3.132812 4.203125 -3.40625 C 4.046875 -3.675781 3.84375 -3.875 3.59375 -4 C 3.351562 -4.132812 3.09375 -4.203125 2.8125 -4.203125 C 2.507812 -4.203125 2.238281 -4.132812 2 -4 C 1.757812 -3.875 1.566406 -3.675781 1.421875 -3.40625 C 1.273438 -3.132812 1.203125 -2.804688 1.203125 -2.421875 C 1.203125 -2.023438 1.269531 -1.691406 1.40625 -1.421875 C 1.550781 -1.148438 1.742188 -0.945312 1.984375 -0.8125 C 2.222656 -0.6875 2.488281 -0.625 2.78125 -0.625 Z M 2.78125 -0.625 "/></g></g></g><g fill="#336010" fill-opacity="1"><g transform="translate(37.741404, 53.133539)"><g><path d="M 3.03125 -4.90625 C 3.613281 -4.90625 4.085938 -4.726562 4.453125 -4.375 C 4.816406 -4.019531 5 -3.507812 5 -2.84375 L 5 0 L 4.203125 0 L 4.203125 -2.734375 C 4.203125 -3.210938 4.082031 -3.578125 3.84375 -3.828125 C 3.601562 -4.085938 3.273438 -4.21875 2.859375 -4.21875 C 2.429688 -4.21875 2.09375 -4.082031 1.84375 -3.8125 C 1.601562 -3.550781 1.484375 -3.171875 1.484375 -2.671875 L 1.484375 0 L 0.671875 0 L 0.671875 -4.828125 L 1.484375 -4.828125 L 1.484375 -4.140625 C 1.640625 -4.378906 1.851562 -4.566406 2.125 -4.703125 C 2.394531 -4.835938 2.695312 -4.90625 3.03125 -4.90625 Z M 3.03125 -4.90625 "/></g></g></g><g fill="#336010" fill-opacity="1"><g transform="translate(43.369728, 53.133539)"><g><path d="M 2.390625 0.078125 C 2.015625 0.078125 1.679688 0.015625 1.390625 -0.109375 C 1.097656 -0.234375 0.863281 -0.40625 0.6875 -0.625 C 0.519531 -0.851562 0.425781 -1.117188 0.40625 -1.421875 L 1.234375 -1.421875 C 1.265625 -1.179688 1.378906 -0.984375 1.578125 -0.828125 C 1.773438 -0.671875 2.039062 -0.59375 2.375 -0.59375 C 2.675781 -0.59375 2.914062 -0.660156 3.09375 -0.796875 C 3.269531 -0.929688 3.359375 -1.101562 3.359375 -1.3125 C 3.359375 -1.519531 3.265625 -1.675781 3.078125 -1.78125 C 2.890625 -1.882812 2.597656 -1.984375 2.203125 -2.078125 C 1.847656 -2.171875 1.554688 -2.265625 1.328125 -2.359375 C 1.109375 -2.460938 0.914062 -2.609375 0.75 -2.796875 C 0.59375 -2.992188 0.515625 -3.242188 0.515625 -3.546875 C 0.515625 -3.796875 0.585938 -4.023438 0.734375 -4.234375 C 0.878906 -4.441406 1.085938 -4.601562 1.359375 -4.71875 C 1.628906 -4.84375 1.9375 -4.90625 2.28125 -4.90625 C 2.8125 -4.90625 3.238281 -4.769531 3.5625 -4.5 C 3.894531 -4.226562 4.070312 -3.859375 4.09375 -3.390625 L 3.296875 -3.390625 C 3.273438 -3.640625 3.171875 -3.835938 2.984375 -3.984375 C 2.804688 -4.140625 2.5625 -4.21875 2.25 -4.21875 C 1.96875 -4.21875 1.738281 -4.15625 1.5625 -4.03125 C 1.394531 -3.914062 1.3125 -3.753906 1.3125 -3.546875 C 1.3125 -3.390625 1.363281 -3.257812 1.46875 -3.15625 C 1.570312 -3.0625 1.695312 -2.984375 1.84375 -2.921875 C 2 -2.859375 2.21875 -2.785156 2.5 -2.703125 C 2.84375 -2.609375 3.125 -2.515625 3.34375 -2.421875 C 3.5625 -2.335938 3.75 -2.203125 3.90625 -2.015625 C 4.0625 -1.835938 4.140625 -1.601562 4.140625 -1.3125 C 4.140625 -1.050781 4.066406 -0.8125 3.921875 -0.59375 C 3.773438 -0.382812 3.566406 -0.21875 3.296875 -0.09375 C 3.035156 0.0195312 2.734375 0.078125 2.390625 0.078125 Z M 2.390625 0.078125 "/></g></g></g></svg>