<svg xmlns="http://www.w3.org/2000/svg" xmlns:xlink="http://www.w3.org/1999/xlink" width="85" zoomAndPan="magnify" viewBox="0 0 63.75 66" height="88" preserveAspectRatio="xMidYMid meet" version="1.0"><defs><filter x="0%" y="0%" width="100%" height="100%" id="5b01e4d08a"><feColorMatrix values="0 0 0 0 1 0 0 0 0 1 0 0 0 0 1 0 0 0 1 0" color-interpolation-filters="sRGB"/></filter><g/><clipPath id="2ff96a2319"><path d="M 0 0.128906 L 63 0.128906 L 63 65.871094 L 0 65.871094 Z M 0 0.128906 " clip-rule="nonzero"/></clipPath><mask id="5349f962e4"><g filter="url(#5b01e4d08a)"><rect x="-6.375" width="76.5" fill="#000000" y="-6.6" height="79.2" fill-opacity="0.97"/></g></mask><clipPath id="b7cd099f77"><path d="M 0 0.128906 L 62.824219 0.128906 L 62.824219 65.871094 L 0 65.871094 Z M 0 0.128906 " clip-rule="nonzero"/></clipPath><clipPath id="cb152a1074"><path d="M 5.976562 0.128906 L 56.847656 0.128906 C 58.429688 0.128906 59.953125 0.757812 61.074219 1.878906 C 62.191406 3 62.824219 4.519531 62.824219 6.105469 L 62.824219 59.894531 C 62.824219 61.476562 62.191406 63 61.074219 64.121094 C 59.953125 65.242188 58.429688 65.871094 56.847656 65.871094 L 5.976562 65.871094 C 4.390625 65.871094 2.871094 65.242188 1.75 64.121094 C 0.628906 63 0 61.476562 0 59.894531 L 0 6.105469 C 0 4.519531 0.628906 3 1.75 1.878906 C 2.871094 0.757812 4.390625 0.128906 5.976562 0.128906 Z M 5.976562 0.128906 " clip-rule="nonzero"/></clipPath><clipPath id="af4d54b8cd"><rect x="0" width="63" y="0" height="66"/></clipPath><clipPath id="da5a36f470"><path d="M 12.011719 16.027344 L 50.800781 16.027344 L 50.800781 37.445312 L 12.011719 37.445312 Z M 12.011719 16.027344 " clip-rule="nonzero"/></clipPath></defs><g clip-path="url(#2ff96a2319)"><g mask="url(#5349f962e4)"><g transform="matrix(1, 0, 0, 1, 0, -0.000000000000011935)"><g clip-path="url(#af4d54b8cd)"><g clip-path="url(#b7cd099f77)"><g clip-path="url(#cb152a1074)"><path fill="#ffffff" d="M 0 0.128906 L 62.824219 0.128906 L 62.824219 65.898438 L 0 65.898438 Z M 0 0.128906 " fill-opacity="1" fill-rule="nonzero"/></g></g></g></g></g></g><g clip-path="url(#da5a36f470)"><path fill="#336010" d="M 13.644531 18.96875 C 13.546875 18.886719 13.253906 19.039062 13.210938 19.15625 C 13.171875 19.261719 13.25 19.511719 13.371094 19.628906 C 13.472656 19.734375 13.761719 19.734375 13.835938 19.574219 C 13.910156 19.417969 13.78125 19.078125 13.644531 18.96875 Z M 50.636719 27.539062 C 50.605469 28.207031 50.617188 28.425781 50.609375 28.5625 C 50.59375 28.761719 50.425781 28.691406 50.289062 28.742188 C 50.164062 28.863281 49.847656 29.148438 48.941406 29.328125 C 47.773438 29.558594 48.089844 29.492188 47.898438 29.640625 C 47.140625 30.246094 43.574219 30.972656 42.246094 30.683594 C 42.140625 30.660156 42.011719 30.730469 41.90625 30.75 C 41.847656 31.066406 41.789062 31.402344 41.777344 31.78125 C 41.757812 32.5 41.546875 33.5625 41.546875 33.832031 C 41.542969 34.230469 41.714844 35.070312 41.828125 35.316406 C 41.886719 35.449219 42.125 35.796875 42.195312 35.917969 C 42.285156 36.078125 42.429688 36.605469 42.464844 36.714844 C 42.488281 36.789062 42.46875 36.84375 42.40625 36.855469 C 42.300781 36.878906 41.148438 36.84375 41.078125 36.816406 C 40.863281 36.726562 40.785156 36.546875 40.722656 36.339844 C 40.679688 36.207031 40.535156 35.878906 40.40625 35.757812 C 40.316406 35.667969 40.195312 35.445312 40.179688 35.296875 C 40.171875 35.226562 40.226562 34.816406 40.207031 34.730469 C 40.191406 34.644531 40.21875 33.917969 40.097656 33.679688 C 40.039062 33.5625 39.914062 33.328125 39.855469 33.058594 C 39.742188 33.273438 39.613281 33.480469 39.621094 33.746094 C 39.628906 34.3125 39.320312 35.183594 39.53125 35.726562 C 39.75 36.289062 40.039062 36.472656 40.097656 37.164062 C 40.113281 37.332031 38.78125 37.152344 38.621094 37.074219 C 38.46875 37.003906 38.332031 36.871094 38.328125 36.5625 C 38.320312 36.296875 38.1875 36.019531 38.109375 35.90625 C 37.859375 35.546875 38.191406 34.996094 38.074219 34.449219 C 38.054688 34.355469 37.894531 33.246094 37.78125 32.925781 C 37.679688 32.636719 37.652344 31.941406 37.371094 31.347656 C 37.34375 31.289062 37.265625 31.148438 37.125 31.082031 C 36.8125 31.019531 36.558594 31.160156 36.304688 31.210938 C 34.46875 31.5625 29.734375 31.972656 28.460938 31.855469 C 25.019531 31.539062 22.597656 30.496094 22.472656 30.523438 C 22.269531 30.503906 21.628906 32.421875 21.4375 32.953125 C 21.101562 33.878906 21.117188 34.816406 21.324219 35.371094 C 21.382812 35.53125 22.449219 36.90625 22.171875 36.921875 C 21.53125 36.960938 20.578125 37.027344 20.460938 36.808594 C 20.335938 36.578125 20.328125 36.410156 20.261719 36.191406 C 20.246094 36.140625 20.246094 36.140625 20.179688 36.078125 C 19.898438 35.8125 19.863281 35.882812 19.8125 35.617188 C 19.8125 35.617188 19.664062 34.394531 19.421875 33.800781 C 19.421875 33.800781 19.019531 32.609375 19.109375 32.265625 C 19.136719 32.144531 19.179688 32.019531 19.226562 31.890625 C 18.664062 32.378906 17.949219 32.4375 17.664062 33.105469 C 17.484375 33.53125 17.589844 34.464844 17.527344 34.917969 C 17.484375 35.261719 17.46875 35.625 17.539062 35.972656 C 17.597656 36.265625 18.382812 37.042969 18.324219 37.359375 C 18.304688 37.457031 17.269531 37.457031 16.921875 37.433594 C 16.738281 37.421875 16.523438 36.882812 16.503906 36.839844 C 16.46875 36.746094 16.363281 36.597656 16.292969 36.476562 C 16.152344 36.222656 15.992188 36.316406 15.992188 36.085938 C 15.992188 35.800781 16.078125 35.207031 16.019531 34.855469 C 15.941406 34.40625 15.859375 34.363281 15.734375 33.921875 C 15.558594 33.324219 15.5 33.378906 15.390625 32.742188 C 15.292969 32.160156 15.726562 31.191406 15.597656 30.613281 C 15.375 29.632812 14.773438 29.3125 14.433594 28.246094 C 13.734375 26.9375 13.507812 24.84375 13.355469 24.035156 C 13.203125 23.238281 13.453125 21.984375 13.785156 21.089844 C 13.628906 20.941406 13.472656 20.734375 13.324219 20.527344 C 13.164062 20.566406 13.046875 20.574219 12.914062 20.527344 C 12.425781 20.347656 12.105469 19.894531 12.046875 19.621094 C 11.984375 19.347656 12.027344 19.019531 12.023438 18.992188 C 12.113281 19.148438 12.132812 19.234375 12.1875 19.328125 C 12.28125 19.5 12.386719 19.660156 12.527344 19.800781 C 12.59375 19.867188 12.664062 19.933594 12.746094 19.984375 C 12.789062 20.007812 12.832031 20.027344 12.878906 20.042969 C 12.90625 20.054688 13.011719 20.058594 13.027344 20.078125 C 12.945312 19.988281 12.859375 19.914062 12.804688 19.800781 C 12.648438 19.476562 12.597656 19.054688 12.84375 18.761719 C 13.109375 18.445312 13.636719 18.359375 13.949219 18.65625 C 14.226562 18.917969 14.386719 19.390625 14.226562 19.742188 C 14.1875 19.824219 14.164062 19.898438 14.113281 19.976562 C 14.066406 20.039062 13.945312 20.203125 13.886719 20.257812 C 13.871094 20.269531 13.890625 20.289062 13.9375 20.320312 C 13.953125 20.328125 14.089844 20.421875 14.089844 20.425781 C 14.71875 19.324219 16.441406 17.992188 17.75 17.460938 C 20.414062 16.378906 22.425781 16.015625 25.289062 16.082031 C 27.539062 16.132812 30.101562 15.945312 32.28125 16.074219 C 34.585938 16.207031 36.464844 16.589844 38.648438 17.429688 C 39.59375 17.796875 40.546875 18.121094 41.5 18.464844 C 42.234375 18.726562 43.324219 19.449219 44.039062 19.726562 C 44.242188 19.804688 45.351562 19.519531 46.355469 19.488281 C 46.832031 19.476562 47.691406 19.328125 48.160156 18.863281 C 48.476562 18.882812 48.117188 19.800781 47.738281 20.402344 C 48.457031 20.273438 49.183594 19.800781 49.320312 19.957031 C 49.320312 19.957031 48.5625 22.316406 47.332031 23.121094 C 47.226562 23.476562 47.910156 25.070312 48.160156 25.328125 C 48.863281 26.046875 49.421875 26.355469 50.308594 26.691406 C 50.441406 26.660156 50.425781 26.625 50.585938 26.613281 C 50.878906 26.59375 50.789062 26.8125 50.789062 26.8125 C 50.789062 26.8125 50.652344 27.230469 50.636719 27.539062 " fill-opacity="1" fill-rule="nonzero"/></g><g fill="#336010" fill-opacity="1"><g transform="translate(23.623899, 44.97217)"><g><path d="M 4.78125 -4.34375 C 4.78125 -3.832031 4.601562 -3.40625 4.25 -3.0625 C 3.90625 -2.726562 3.375 -2.5625 2.65625 -2.5625 L 1.484375 -2.5625 L 1.484375 0 L 0.671875 0 L 0.671875 -6.125 L 2.65625 -6.125 C 3.34375 -6.125 3.867188 -5.957031 4.234375 -5.625 C 4.597656 -5.289062 4.78125 -4.863281 4.78125 -4.34375 Z M 2.65625 -3.21875 C 3.101562 -3.21875 3.429688 -3.3125 3.640625 -3.5 C 3.847656 -3.695312 3.953125 -3.976562 3.953125 -4.34375 C 3.953125 -5.09375 3.519531 -5.46875 2.65625 -5.46875 L 1.484375 -5.46875 L 1.484375 -3.21875 Z M 2.65625 -3.21875 "/></g></g></g><g fill="#336010" fill-opacity="1"><g transform="translate(28.71577, 44.97217)"><g><path d="M 1.09375 -5.609375 C 0.9375 -5.609375 0.804688 -5.660156 0.703125 -5.765625 C 0.597656 -5.867188 0.546875 -6 0.546875 -6.15625 C 0.546875 -6.300781 0.597656 -6.425781 0.703125 -6.53125 C 0.804688 -6.632812 0.9375 -6.6875 1.09375 -6.6875 C 1.238281 -6.6875 1.363281 -6.632812 1.46875 -6.53125 C 1.570312 -6.425781 1.625 -6.300781 1.625 -6.15625 C 1.625 -6 1.570312 -5.867188 1.46875 -5.765625 C 1.363281 -5.660156 1.238281 -5.609375 1.09375 -5.609375 Z M 1.484375 -4.828125 L 1.484375 0 L 0.671875 0 L 0.671875 -4.828125 Z M 1.484375 -4.828125 "/></g></g></g><g fill="#336010" fill-opacity="1"><g transform="translate(30.879162, 44.97217)"><g><path d="M 2.671875 -4.90625 C 3.085938 -4.90625 3.453125 -4.8125 3.765625 -4.625 C 4.078125 -4.445312 4.304688 -4.21875 4.453125 -3.9375 L 4.453125 -4.828125 L 5.265625 -4.828125 L 5.265625 0.109375 C 5.265625 0.546875 5.171875 0.9375 4.984375 1.28125 C 4.796875 1.625 4.523438 1.890625 4.171875 2.078125 C 3.828125 2.273438 3.425781 2.375 2.96875 2.375 C 2.332031 2.375 1.800781 2.222656 1.375 1.921875 C 0.957031 1.628906 0.710938 1.222656 0.640625 0.703125 L 1.421875 0.703125 C 1.515625 0.992188 1.695312 1.226562 1.96875 1.40625 C 2.25 1.59375 2.582031 1.6875 2.96875 1.6875 C 3.40625 1.6875 3.757812 1.546875 4.03125 1.265625 C 4.3125 0.992188 4.453125 0.609375 4.453125 0.109375 L 4.453125 -0.90625 C 4.296875 -0.625 4.0625 -0.390625 3.75 -0.203125 C 3.445312 -0.015625 3.085938 0.078125 2.671875 0.078125 C 2.234375 0.078125 1.835938 -0.0234375 1.484375 -0.234375 C 1.140625 -0.441406 0.867188 -0.738281 0.671875 -1.125 C 0.472656 -1.507812 0.375 -1.941406 0.375 -2.421875 C 0.375 -2.921875 0.472656 -3.351562 0.671875 -3.71875 C 0.867188 -4.09375 1.140625 -4.382812 1.484375 -4.59375 C 1.835938 -4.800781 2.234375 -4.90625 2.671875 -4.90625 Z M 4.453125 -2.421875 C 4.453125 -2.785156 4.378906 -3.101562 4.234375 -3.375 C 4.085938 -3.644531 3.890625 -3.847656 3.640625 -3.984375 C 3.390625 -4.128906 3.117188 -4.203125 2.828125 -4.203125 C 2.523438 -4.203125 2.25 -4.128906 2 -3.984375 C 1.757812 -3.847656 1.566406 -3.644531 1.421875 -3.375 C 1.273438 -3.101562 1.203125 -2.785156 1.203125 -2.421875 C 1.203125 -2.054688 1.273438 -1.738281 1.421875 -1.46875 C 1.566406 -1.195312 1.757812 -0.988281 2 -0.84375 C 2.25 -0.695312 2.523438 -0.625 2.828125 -0.625 C 3.117188 -0.625 3.390625 -0.695312 3.640625 -0.84375 C 3.890625 -0.988281 4.085938 -1.195312 4.234375 -1.46875 C 4.378906 -1.738281 4.453125 -2.054688 4.453125 -2.421875 Z M 4.453125 -2.421875 "/></g></g></g><g fill="#336010" fill-opacity="1"><g transform="translate(36.826643, 44.97217)"><g/></g></g><g fill="#336010" fill-opacity="1"><g transform="translate(12.356336, 54.499214)"><g><path d="M 4.296875 -1.359375 L 1.625 -1.359375 L 1.140625 0 L 0.296875 0 L 2.5 -6.09375 L 3.4375 -6.09375 L 5.640625 0 L 4.796875 0 Z M 4.078125 -2.015625 L 2.96875 -5.109375 L 1.859375 -2.015625 Z M 4.078125 -2.015625 "/></g></g></g><g fill="#336010" fill-opacity="1"><g transform="translate(18.283667, 54.499214)"><g><path d="M 4.953125 -4.828125 L 4.953125 0 L 4.15625 0 L 4.15625 -0.71875 C 4 -0.46875 3.785156 -0.269531 3.515625 -0.125 C 3.242188 0.0078125 2.941406 0.078125 2.609375 0.078125 C 2.234375 0.078125 1.894531 0 1.59375 -0.15625 C 1.300781 -0.3125 1.066406 -0.546875 0.890625 -0.859375 C 0.722656 -1.171875 0.640625 -1.550781 0.640625 -2 L 0.640625 -4.828125 L 1.421875 -4.828125 L 1.421875 -2.109375 C 1.421875 -1.628906 1.539062 -1.257812 1.78125 -1 C 2.019531 -0.75 2.347656 -0.625 2.765625 -0.625 C 3.191406 -0.625 3.53125 -0.753906 3.78125 -1.015625 C 4.03125 -1.285156 4.15625 -1.671875 4.15625 -2.171875 L 4.15625 -4.828125 Z M 4.953125 -4.828125 "/></g></g></g><g fill="#336010" fill-opacity="1"><g transform="translate(23.911991, 54.499214)"><g><path d="M 0.375 -2.421875 C 0.375 -2.921875 0.472656 -3.351562 0.671875 -3.71875 C 0.867188 -4.09375 1.144531 -4.382812 1.5 -4.59375 C 1.863281 -4.800781 2.273438 -4.90625 2.734375 -4.90625 C 3.316406 -4.90625 3.800781 -4.757812 4.1875 -4.46875 C 4.570312 -4.175781 4.828125 -3.773438 4.953125 -3.265625 L 4.09375 -3.265625 C 4.007812 -3.566406 3.847656 -3.800781 3.609375 -3.96875 C 3.367188 -4.132812 3.078125 -4.21875 2.734375 -4.21875 C 2.273438 -4.21875 1.90625 -4.0625 1.625 -3.75 C 1.34375 -3.4375 1.203125 -2.992188 1.203125 -2.421875 C 1.203125 -1.835938 1.34375 -1.382812 1.625 -1.0625 C 1.90625 -0.75 2.273438 -0.59375 2.734375 -0.59375 C 3.078125 -0.59375 3.363281 -0.675781 3.59375 -0.84375 C 3.832031 -1.007812 4 -1.242188 4.09375 -1.546875 L 4.953125 -1.546875 C 4.828125 -1.054688 4.566406 -0.660156 4.171875 -0.359375 C 3.785156 -0.0664062 3.304688 0.078125 2.734375 0.078125 C 2.273438 0.078125 1.863281 -0.0195312 1.5 -0.21875 C 1.144531 -0.425781 0.867188 -0.71875 0.671875 -1.09375 C 0.472656 -1.46875 0.375 -1.910156 0.375 -2.421875 Z M 0.375 -2.421875 "/></g></g></g><g fill="#336010" fill-opacity="1"><g transform="translate(29.25011, 54.499214)"><g><path d="M 1.65625 -4.15625 L 1.65625 -1.3125 C 1.65625 -1.082031 1.703125 -0.914062 1.796875 -0.8125 C 1.898438 -0.71875 2.078125 -0.671875 2.328125 -0.671875 L 2.90625 -0.671875 L 2.90625 0 L 2.1875 0 C 1.738281 0 1.40625 -0.0976562 1.1875 -0.296875 C 0.96875 -0.503906 0.859375 -0.84375 0.859375 -1.3125 L 0.859375 -4.15625 L 0.234375 -4.15625 L 0.234375 -4.828125 L 0.859375 -4.828125 L 0.859375 -6.03125 L 1.65625 -6.03125 L 1.65625 -4.828125 L 2.90625 -4.828125 L 2.90625 -4.15625 Z M 1.65625 -4.15625 "/></g></g></g><g fill="#336010" fill-opacity="1"><g transform="translate(32.451216, 54.499214)"><g><path d="M 1.09375 -5.609375 C 0.9375 -5.609375 0.804688 -5.660156 0.703125 -5.765625 C 0.597656 -5.867188 0.546875 -6 0.546875 -6.15625 C 0.546875 -6.300781 0.597656 -6.425781 0.703125 -6.53125 C 0.804688 -6.632812 0.9375 -6.6875 1.09375 -6.6875 C 1.238281 -6.6875 1.363281 -6.632812 1.46875 -6.53125 C 1.570312 -6.425781 1.625 -6.300781 1.625 -6.15625 C 1.625 -6 1.570312 -5.867188 1.46875 -5.765625 C 1.363281 -5.660156 1.238281 -5.609375 1.09375 -5.609375 Z M 1.484375 -4.828125 L 1.484375 0 L 0.671875 0 L 0.671875 -4.828125 Z M 1.484375 -4.828125 "/></g></g></g><g fill="#336010" fill-opacity="1"><g transform="translate(34.614608, 54.499214)"><g><path d="M 2.78125 0.078125 C 2.332031 0.078125 1.921875 -0.0195312 1.546875 -0.21875 C 1.179688 -0.425781 0.894531 -0.71875 0.6875 -1.09375 C 0.476562 -1.476562 0.375 -1.921875 0.375 -2.421875 C 0.375 -2.910156 0.476562 -3.34375 0.6875 -3.71875 C 0.90625 -4.101562 1.195312 -4.394531 1.5625 -4.59375 C 1.9375 -4.800781 2.351562 -4.90625 2.8125 -4.90625 C 3.269531 -4.90625 3.679688 -4.800781 4.046875 -4.59375 C 4.421875 -4.394531 4.710938 -4.109375 4.921875 -3.734375 C 5.140625 -3.359375 5.25 -2.921875 5.25 -2.421875 C 5.25 -1.921875 5.140625 -1.476562 4.921875 -1.09375 C 4.703125 -0.71875 4.40625 -0.425781 4.03125 -0.21875 C 3.65625 -0.0195312 3.238281 0.078125 2.78125 0.078125 Z M 2.78125 -0.625 C 3.0625 -0.625 3.328125 -0.691406 3.578125 -0.828125 C 3.835938 -0.960938 4.046875 -1.164062 4.203125 -1.4375 C 4.359375 -1.707031 4.4375 -2.035156 4.4375 -2.421875 C 4.4375 -2.804688 4.359375 -3.132812 4.203125 -3.40625 C 4.046875 -3.675781 3.84375 -3.875 3.59375 -4 C 3.351562 -4.132812 3.09375 -4.203125 2.8125 -4.203125 C 2.507812 -4.203125 2.238281 -4.132812 2 -4 C 1.757812 -3.875 1.566406 -3.675781 1.421875 -3.40625 C 1.273438 -3.132812 1.203125 -2.804688 1.203125 -2.421875 C 1.203125 -2.023438 1.269531 -1.691406 1.40625 -1.421875 C 1.550781 -1.148438 1.742188 -0.945312 1.984375 -0.8125 C 2.222656 -0.6875 2.488281 -0.625 2.78125 -0.625 Z M 2.78125 -0.625 "/></g></g></g><g fill="#336010" fill-opacity="1"><g transform="translate(40.242932, 54.499214)"><g><path d="M 3.03125 -4.90625 C 3.613281 -4.90625 4.085938 -4.726562 4.453125 -4.375 C 4.816406 -4.019531 5 -3.507812 5 -2.84375 L 5 0 L 4.203125 0 L 4.203125 -2.734375 C 4.203125 -3.210938 4.082031 -3.578125 3.84375 -3.828125 C 3.601562 -4.085938 3.273438 -4.21875 2.859375 -4.21875 C 2.429688 -4.21875 2.09375 -4.082031 1.84375 -3.8125 C 1.601562 -3.550781 1.484375 -3.171875 1.484375 -2.671875 L 1.484375 0 L 0.671875 0 L 0.671875 -4.828125 L 1.484375 -4.828125 L 1.484375 -4.140625 C 1.640625 -4.378906 1.851562 -4.566406 2.125 -4.703125 C 2.394531 -4.835938 2.695312 -4.90625 3.03125 -4.90625 Z M 3.03125 -4.90625 "/></g></g></g><g fill="#336010" fill-opacity="1"><g transform="translate(45.871256, 54.499214)"><g><path d="M 2.390625 0.078125 C 2.015625 0.078125 1.679688 0.015625 1.390625 -0.109375 C 1.097656 -0.234375 0.863281 -0.40625 0.6875 -0.625 C 0.519531 -0.851562 0.425781 -1.117188 0.40625 -1.421875 L 1.234375 -1.421875 C 1.265625 -1.179688 1.378906 -0.984375 1.578125 -0.828125 C 1.773438 -0.671875 2.039062 -0.59375 2.375 -0.59375 C 2.675781 -0.59375 2.914062 -0.660156 3.09375 -0.796875 C 3.269531 -0.929688 3.359375 -1.101562 3.359375 -1.3125 C 3.359375 -1.519531 3.265625 -1.675781 3.078125 -1.78125 C 2.890625 -1.882812 2.597656 -1.984375 2.203125 -2.078125 C 1.847656 -2.171875 1.554688 -2.265625 1.328125 -2.359375 C 1.109375 -2.460938 0.914062 -2.609375 0.75 -2.796875 C 0.59375 -2.992188 0.515625 -3.242188 0.515625 -3.546875 C 0.515625 -3.796875 0.585938 -4.023438 0.734375 -4.234375 C 0.878906 -4.441406 1.085938 -4.601562 1.359375 -4.71875 C 1.628906 -4.84375 1.9375 -4.90625 2.28125 -4.90625 C 2.8125 -4.90625 3.238281 -4.769531 3.5625 -4.5 C 3.894531 -4.226562 4.070312 -3.859375 4.09375 -3.390625 L 3.296875 -3.390625 C 3.273438 -3.640625 3.171875 -3.835938 2.984375 -3.984375 C 2.804688 -4.140625 2.5625 -4.21875 2.25 -4.21875 C 1.96875 -4.21875 1.738281 -4.15625 1.5625 -4.03125 C 1.394531 -3.914062 1.3125 -3.753906 1.3125 -3.546875 C 1.3125 -3.390625 1.363281 -3.257812 1.46875 -3.15625 C 1.570312 -3.0625 1.695312 -2.984375 1.84375 -2.921875 C 2 -2.859375 2.21875 -2.785156 2.5 -2.703125 C 2.84375 -2.609375 3.125 -2.515625 3.34375 -2.421875 C 3.5625 -2.335938 3.75 -2.203125 3.90625 -2.015625 C 4.0625 -1.835938 4.140625 -1.601562 4.140625 -1.3125 C 4.140625 -1.050781 4.066406 -0.8125 3.921875 -0.59375 C 3.773438 -0.382812 3.566406 -0.21875 3.296875 -0.09375 C 3.035156 0.0195312 2.734375 0.078125 2.390625 0.078125 Z M 2.390625 0.078125 "/></g></g></g></svg>