<svg xmlns="http://www.w3.org/2000/svg" xmlns:xlink="http://www.w3.org/1999/xlink" width="85" zoomAndPan="magnify" viewBox="0 0 63.75 66" height="88" preserveAspectRatio="xMidYMid meet" version="1.0"><defs><filter x="0%" y="0%" width="100%" height="100%" id="8591cec191"><feColorMatrix values="0 0 0 0 1 0 0 0 0 1 0 0 0 0 1 0 0 0 1 0" color-interpolation-filters="sRGB"/></filter><g/><clipPath id="188551a14c"><path d="M 0 0.128906 L 63 0.128906 L 63 65.871094 L 0 65.871094 Z M 0 0.128906 " clip-rule="nonzero"/></clipPath><mask id="192fee181b"><g filter="url(#8591cec191)"><rect x="-6.375" width="76.5" fill="#000000" y="-6.6" height="79.2" fill-opacity="0.97"/></g></mask><clipPath id="5547ea4f36"><path d="M 0 0.128906 L 62.824219 0.128906 L 62.824219 65.871094 L 0 65.871094 Z M 0 0.128906 " clip-rule="nonzero"/></clipPath><clipPath id="1ad843caf6"><path d="M 5.976562 0.128906 L 56.847656 0.128906 C 58.429688 0.128906 59.953125 0.757812 61.074219 1.878906 C 62.191406 3 62.824219 4.519531 62.824219 6.105469 L 62.824219 59.894531 C 62.824219 61.476562 62.191406 63 61.074219 64.121094 C 59.953125 65.242188 58.429688 65.871094 56.847656 65.871094 L 5.976562 65.871094 C 4.390625 65.871094 2.871094 65.242188 1.75 64.121094 C 0.628906 63 0 61.476562 0 59.894531 L 0 6.105469 C 0 4.519531 0.628906 3 1.75 1.878906 C 2.871094 0.757812 4.390625 0.128906 5.976562 0.128906 Z M 5.976562 0.128906 " clip-rule="nonzero"/></clipPath><clipPath id="33e529fe92"><rect x="0" width="63" y="0" height="66"/></clipPath><clipPath id="5ea6916f34"><path d="M 15.195312 6.917969 L 50.960938 6.917969 L 50.960938 41.285156 L 15.195312 41.285156 Z M 15.195312 6.917969 " clip-rule="nonzero"/></clipPath></defs><g clip-path="url(#188551a14c)"><g mask="url(#192fee181b)"><g transform="matrix(1, 0, 0, 1, 0, -0.000000000000011935)"><g clip-path="url(#33e529fe92)"><g clip-path="url(#5547ea4f36)"><g clip-path="url(#1ad843caf6)"><path fill="#ffffff" d="M 0 0.128906 L 62.824219 0.128906 L 62.824219 65.898438 L 0 65.898438 Z M 0 0.128906 " fill-opacity="1" fill-rule="nonzero"/></g></g></g></g></g></g><g clip-path="url(#5ea6916f34)"><path fill="#336010" d="M 44.980469 6.96875 C 45.039062 6.996094 45.109375 7.054688 45.160156 7.121094 C 45.1875 7.15625 45.214844 7.1875 45.21875 7.195312 C 45.222656 7.199219 45.246094 7.191406 45.273438 7.175781 C 45.367188 7.128906 45.523438 7.078125 45.605469 7.066406 C 45.9375 7.019531 46.199219 7.261719 46.265625 7.675781 C 46.273438 7.726562 46.28125 7.777344 46.28125 7.78125 C 46.28125 7.785156 46.300781 7.789062 46.328125 7.789062 C 46.636719 7.789062 47.382812 8.210938 47.8125 8.628906 C 47.984375 8.792969 48.054688 8.90625 48.054688 9.019531 C 48.058594 9.101562 48.035156 9.148438 47.921875 9.273438 C 47.804688 9.402344 47.804688 9.410156 47.929688 9.578125 C 48.054688 9.75 48.085938 9.84375 48.0625 10 C 48.054688 10.046875 48.050781 10.09375 48.046875 10.101562 C 48.035156 10.132812 48.65625 10.5625 49.207031 10.90625 C 49.816406 11.28125 49.96875 11.378906 50.148438 11.496094 C 50.382812 11.652344 50.648438 11.847656 50.683594 11.894531 C 50.71875 11.9375 50.730469 11.980469 50.742188 12.09375 C 50.757812 12.222656 50.796875 12.425781 50.847656 12.621094 C 50.921875 12.929688 50.960938 13.195312 50.941406 13.265625 C 50.929688 13.300781 50.886719 13.328125 50.746094 13.375 C 50.457031 13.480469 50.328125 13.550781 50.183594 13.691406 C 50.09375 13.777344 50.050781 13.84375 49.976562 13.980469 C 49.917969 14.09375 49.90625 14.105469 49.855469 14.136719 C 49.777344 14.183594 49.671875 14.203125 49.515625 14.203125 C 49.324219 14.203125 49.191406 14.164062 48.820312 13.992188 C 48.4375 13.8125 48.226562 13.757812 48.164062 13.8125 C 48.132812 13.84375 48.121094 13.914062 48.128906 14.015625 C 48.136719 14.128906 48.160156 14.226562 48.226562 14.4375 C 48.292969 14.648438 48.304688 14.703125 48.296875 14.835938 C 48.292969 14.921875 48.285156 14.96875 48.257812 15.046875 C 48.21875 15.175781 48.21875 15.230469 48.257812 15.402344 C 48.289062 15.515625 48.292969 15.558594 48.296875 15.703125 L 48.300781 15.875 L 48.363281 15.984375 C 48.554688 16.332031 48.648438 16.609375 48.683594 16.941406 C 48.714844 17.269531 48.640625 17.6875 48.5 17.949219 L 48.476562 17.996094 L 48.554688 18.152344 C 48.644531 18.339844 48.671875 18.433594 48.671875 18.570312 C 48.675781 18.78125 48.566406 18.980469 48.308594 19.246094 L 48.214844 19.339844 L 48.238281 19.46875 C 48.308594 19.898438 48.242188 20.355469 48.039062 20.765625 C 47.855469 21.140625 47.597656 21.40625 47.164062 21.660156 C 47.089844 21.707031 47.019531 21.75 47.007812 21.757812 C 46.988281 21.769531 46.988281 21.777344 47 21.894531 C 47.035156 22.238281 46.964844 22.511719 46.761719 22.808594 C 46.707031 22.890625 46.699219 22.90625 46.707031 22.9375 C 46.722656 23.015625 46.714844 23.253906 46.691406 23.386719 C 46.617188 23.84375 46.5 24.171875 46.265625 24.550781 C 46.214844 24.636719 46.167969 24.726562 46.160156 24.753906 C 46.148438 24.785156 46.140625 24.882812 46.136719 25.039062 C 46.121094 25.433594 46.066406 25.71875 45.949219 26.050781 C 45.820312 26.402344 45.597656 26.738281 45.222656 27.152344 C 45.105469 27.28125 44.988281 27.425781 44.941406 27.496094 L 44.902344 27.550781 L 44.929688 27.597656 C 44.941406 27.621094 44.984375 27.675781 45.019531 27.71875 C 45.054688 27.757812 45.085938 27.800781 45.089844 27.816406 C 45.097656 27.851562 45.046875 27.949219 45.007812 27.96875 C 44.992188 27.976562 44.945312 27.980469 44.878906 27.980469 C 44.820312 27.980469 44.765625 27.988281 44.753906 27.992188 C 44.742188 28 44.722656 28.023438 44.710938 28.050781 C 44.6875 28.109375 44.667969 28.125 44.613281 28.125 C 44.53125 28.125 44.414062 28.035156 44.292969 27.875 C 44.261719 27.828125 44.226562 27.792969 44.21875 27.792969 C 44.195312 27.792969 44.179688 27.871094 44.152344 28.1875 C 44.121094 28.496094 44.125 28.480469 44.046875 28.722656 L 43.988281 28.902344 L 44.03125 28.964844 C 44.054688 29 44.097656 29.074219 44.132812 29.128906 C 44.210938 29.25 44.238281 29.3125 44.238281 29.363281 C 44.238281 29.398438 44.230469 29.414062 44.191406 29.453125 C 44.167969 29.480469 44.121094 29.515625 44.09375 29.535156 C 44.003906 29.589844 43.933594 29.601562 43.703125 29.601562 L 43.5 29.605469 L 43.410156 29.652344 C 43.308594 29.703125 43.230469 29.769531 43.222656 29.8125 C 43.199219 29.941406 43.171875 29.964844 42.964844 30.039062 C 42.707031 30.128906 42.640625 30.167969 42.617188 30.242188 C 42.605469 30.285156 42.609375 30.316406 42.644531 30.445312 C 42.679688 30.5625 42.683594 30.699219 42.691406 31.703125 C 42.699219 32.289062 42.707031 32.765625 42.710938 32.828125 C 42.730469 33.007812 42.757812 33.15625 42.839844 33.507812 C 43 34.175781 43.023438 34.339844 43.027344 34.703125 C 43.027344 34.960938 43.019531 35.039062 42.96875 35.296875 C 42.949219 35.394531 42.933594 35.523438 42.929688 35.613281 C 42.921875 35.78125 42.910156 35.828125 42.871094 35.957031 C 42.839844 36.054688 42.828125 36.210938 42.847656 36.316406 C 42.851562 36.355469 42.871094 36.4375 42.890625 36.5 C 42.933594 36.65625 42.933594 36.75 42.890625 36.859375 C 42.847656 36.96875 42.832031 37.09375 42.839844 37.324219 C 42.847656 37.617188 42.882812 37.726562 43.007812 37.855469 C 43.046875 37.890625 43.078125 37.933594 43.085938 37.945312 C 43.089844 37.960938 43.09375 38.023438 43.09375 38.089844 C 43.09375 38.242188 43.101562 38.261719 43.269531 38.609375 C 43.339844 38.761719 43.40625 38.898438 43.414062 38.917969 C 43.429688 38.96875 43.425781 39.019531 43.398438 39.132812 C 43.363281 39.285156 43.355469 39.359375 43.375 39.429688 C 43.402344 39.511719 43.445312 39.550781 43.601562 39.628906 C 43.710938 39.683594 43.746094 39.703125 43.800781 39.757812 C 43.832031 39.792969 43.875 39.847656 43.894531 39.878906 C 43.933594 39.945312 43.976562 40.082031 43.996094 40.214844 C 44.023438 40.371094 44.09375 40.492188 44.300781 40.722656 C 44.472656 40.914062 44.578125 41.0625 44.578125 41.109375 C 44.578125 41.121094 44.5625 41.125 44.539062 41.132812 C 44.484375 41.140625 44.453125 41.171875 44.40625 41.261719 C 44.359375 41.347656 44.324219 41.375 44.210938 41.402344 C 44.152344 41.421875 44.097656 41.425781 44 41.425781 C 43.847656 41.429688 43.769531 41.414062 43.492188 41.335938 C 43.046875 41.210938 42.933594 41.160156 42.65625 40.953125 C 42.472656 40.8125 42.386719 40.699219 42.351562 40.558594 C 42.328125 40.472656 42.335938 40.226562 42.367188 40.007812 L 42.390625 39.824219 L 42.292969 39.734375 C 42.191406 39.640625 42.082031 39.511719 41.910156 39.292969 L 41.804688 39.15625 L 41.796875 38.722656 C 41.773438 37.785156 41.75 37.375 41.699219 36.929688 C 41.6875 36.859375 41.679688 36.703125 41.671875 36.589844 C 41.660156 36.328125 41.65625 36.308594 41.515625 36.070312 C 41.402344 35.867188 41.308594 35.683594 41.277344 35.597656 C 41.261719 35.558594 41.253906 35.496094 41.25 35.386719 C 41.242188 35.300781 41.234375 35.21875 41.226562 35.199219 C 41.222656 35.175781 41.1875 35.128906 41.136719 35.078125 C 41.011719 34.949219 40.929688 34.820312 40.871094 34.632812 C 40.816406 34.472656 40.800781 34.378906 40.800781 34.171875 C 40.800781 33.960938 40.8125 33.886719 40.875 33.730469 C 40.894531 33.679688 40.914062 33.621094 40.917969 33.597656 C 40.921875 33.550781 40.882812 33.445312 40.746094 33.160156 C 40.464844 32.570312 40.273438 32.015625 40.140625 31.425781 C 40.0625 31.058594 40.054688 31.03125 40.019531 31.003906 C 39.964844 30.960938 39.871094 31.121094 39.8125 31.347656 C 39.796875 31.417969 39.792969 31.472656 39.789062 31.710938 C 39.78125 32.007812 39.792969 32.214844 39.828125 32.441406 C 39.835938 32.511719 39.851562 32.628906 39.855469 32.691406 C 39.863281 32.757812 39.890625 32.894531 39.914062 32.996094 C 40.070312 33.640625 40.09375 33.972656 39.988281 34.175781 C 39.960938 34.222656 39.882812 34.296875 39.824219 34.328125 C 39.792969 34.339844 39.726562 34.363281 39.675781 34.375 L 39.582031 34.398438 L 39.539062 34.476562 C 39.515625 34.519531 39.46875 34.605469 39.433594 34.667969 C 39.238281 35.019531 39.152344 35.363281 39.125 35.890625 C 39.109375 36.160156 39.121094 36.496094 39.160156 36.960938 C 39.195312 37.371094 39.203125 37.578125 39.1875 37.75 L 39.175781 37.886719 L 39.339844 38.136719 C 39.695312 38.675781 39.863281 39.027344 39.964844 39.4375 C 40.027344 39.679688 40.023438 39.769531 39.964844 39.808594 C 39.925781 39.835938 39.8125 39.855469 39.730469 39.855469 C 39.511719 39.855469 39.269531 39.792969 38.804688 39.613281 C 38.667969 39.558594 38.5 39.5 38.441406 39.476562 C 38.328125 39.441406 38.324219 39.4375 38.25 39.363281 C 38.121094 39.234375 37.960938 38.980469 37.914062 38.832031 C 37.886719 38.761719 37.886719 38.730469 37.886719 38.621094 C 37.886719 38.472656 37.90625 38.375 37.972656 38.21875 C 38.007812 38.144531 38.011719 38.117188 38.011719 38.058594 C 38.011719 37.980469 38 37.960938 37.949219 37.945312 C 37.875 37.921875 37.691406 37.738281 37.632812 37.625 C 37.59375 37.554688 37.578125 37.441406 37.578125 37.28125 C 37.578125 37.023438 37.628906 36.738281 37.75 36.273438 C 37.871094 35.816406 37.859375 35.917969 37.867188 35.207031 C 37.871094 34.546875 37.859375 34.207031 37.824219 33.683594 C 37.796875 33.257812 37.800781 32.882812 37.847656 32.316406 C 37.902344 31.597656 37.910156 31.460938 37.910156 31.117188 C 37.910156 30.761719 37.898438 30.535156 37.871094 30.320312 C 37.851562 30.167969 37.820312 29.96875 37.8125 29.964844 C 37.796875 29.949219 37.617188 29.929688 37.496094 29.929688 C 37.238281 29.929688 36.914062 30.003906 36.269531 30.207031 C 35.546875 30.4375 35.28125 30.503906 34.992188 30.515625 C 34.800781 30.523438 34.675781 30.507812 34.445312 30.449219 C 34.191406 30.386719 34.09375 30.375 33.917969 30.375 C 33.761719 30.375 33.769531 30.371094 33.421875 30.449219 C 33.179688 30.503906 33 30.519531 32.648438 30.519531 C 32.210938 30.519531 32.078125 30.507812 31.765625 30.441406 C 31.527344 30.390625 31.214844 30.332031 31.179688 30.332031 C 31.160156 30.332031 31.070312 30.351562 30.976562 30.375 C 30.402344 30.511719 30.183594 30.554688 29.929688 30.582031 C 29.757812 30.597656 29.546875 30.582031 29.421875 30.542969 C 29.34375 30.515625 28.925781 30.324219 28.558594 30.144531 C 28.09375 29.914062 27.972656 29.871094 27.804688 29.867188 C 27.707031 29.863281 27.695312 29.871094 27.695312 29.90625 C 27.695312 29.9375 27.675781 29.980469 27.648438 30.023438 C 27.597656 30.097656 27.558594 30.242188 27.492188 30.597656 C 27.421875 30.988281 27.332031 31.195312 27.144531 31.398438 C 27.066406 31.488281 27.0625 31.507812 27.070312 31.667969 C 27.078125 31.796875 27.078125 31.804688 27.054688 31.824219 C 27.042969 31.839844 27.023438 31.847656 27.015625 31.847656 C 26.988281 31.847656 26.945312 31.902344 26.914062 31.964844 C 26.878906 32.042969 26.789062 32.328125 26.746094 32.503906 C 26.621094 32.980469 26.539062 33.601562 26.507812 34.300781 C 26.492188 34.65625 26.511719 35.132812 26.566406 35.671875 C 26.597656 35.980469 26.609375 36.039062 26.660156 36.0625 C 26.726562 36.09375 26.746094 36.171875 26.753906 36.464844 C 26.761719 36.636719 26.769531 36.703125 26.785156 36.761719 C 26.835938 36.9375 26.914062 37.09375 27.105469 37.417969 C 27.261719 37.675781 27.273438 37.707031 27.28125 37.863281 C 27.285156 37.929688 27.292969 38.003906 27.304688 38.03125 C 27.320312 38.09375 27.382812 38.160156 27.488281 38.226562 C 27.664062 38.34375 27.675781 38.359375 27.726562 38.503906 C 27.765625 38.621094 27.839844 38.785156 27.988281 39.066406 C 28.203125 39.480469 28.289062 39.679688 28.3125 39.824219 C 28.332031 39.925781 28.320312 39.933594 28.210938 39.925781 C 27.761719 39.890625 27.011719 39.714844 26.308594 39.480469 C 26.023438 39.386719 25.957031 39.355469 25.894531 39.285156 C 25.832031 39.214844 25.734375 39.066406 25.683594 38.964844 C 25.636719 38.863281 25.582031 38.660156 25.554688 38.484375 C 25.539062 38.363281 25.53125 38.171875 25.542969 38.125 C 25.558594 38.074219 25.53125 38.019531 25.460938 37.9375 C 25.347656 37.8125 25.355469 37.855469 25.316406 37.21875 C 25.257812 36.234375 25.175781 35.496094 25.070312 34.945312 C 25.039062 34.78125 25.019531 34.730469 24.941406 34.515625 C 24.816406 34.199219 24.699219 33.90625 24.578125 33.625 C 24.402344 33.21875 24.339844 33.027344 24.28125 32.746094 C 24.234375 32.511719 24.21875 32.328125 24.222656 32.152344 C 24.230469 31.941406 24.238281 31.921875 24.359375 31.800781 C 24.46875 31.691406 24.5 31.640625 24.5625 31.453125 C 24.605469 31.316406 24.707031 30.921875 24.703125 30.90625 C 24.699219 30.902344 24.671875 30.925781 24.636719 30.964844 C 24.472656 31.140625 24.023438 31.585938 23.90625 31.691406 C 23.632812 31.929688 23.464844 32.011719 23.304688 31.972656 C 23.25 31.960938 23.246094 31.964844 23.160156 32.082031 C 23.058594 32.214844 23.015625 32.238281 22.894531 32.21875 C 22.828125 32.207031 22.824219 32.207031 22.800781 32.230469 C 22.78125 32.253906 22.746094 32.347656 22.679688 32.574219 C 22.605469 32.8125 22.554688 32.882812 22.421875 32.921875 C 22.320312 32.953125 22.28125 32.972656 22.234375 33.027344 C 22.152344 33.113281 22.054688 33.289062 21.921875 33.578125 C 21.890625 33.644531 21.839844 33.726562 21.761719 33.828125 C 21.578125 34.082031 21.488281 34.242188 21.441406 34.421875 C 21.433594 34.453125 21.414062 34.539062 21.394531 34.605469 C 21.351562 34.796875 21.3125 34.863281 21.152344 35.042969 C 21.035156 35.175781 21.003906 35.265625 21.003906 35.472656 C 21.003906 35.628906 20.988281 35.789062 20.957031 35.941406 C 20.929688 36.074219 20.929688 36.089844 20.949219 36.316406 C 20.953125 36.375 20.949219 36.410156 20.921875 36.527344 C 20.894531 36.640625 20.886719 36.699219 20.878906 36.855469 C 20.871094 37.078125 20.859375 37.132812 20.789062 37.28125 C 20.683594 37.5 20.667969 37.621094 20.667969 38.289062 L 20.667969 38.800781 L 20.738281 38.878906 C 20.992188 39.148438 21.191406 39.695312 21.25 40.304688 C 21.265625 40.464844 21.277344 40.769531 21.269531 40.828125 C 21.257812 40.886719 21.269531 40.890625 21.066406 40.792969 C 20.828125 40.683594 20.507812 40.558594 20.160156 40.4375 C 19.785156 40.3125 19.53125 40.210938 19.457031 40.160156 C 19.375 40.105469 19.296875 39.976562 19.261719 39.84375 C 19.234375 39.734375 19.222656 39.640625 19.214844 39.402344 L 19.207031 39.191406 L 19.28125 39.085938 C 19.542969 38.714844 19.527344 38.753906 19.441406 38.636719 C 19.214844 38.339844 19.148438 37.917969 19.242188 37.359375 C 19.253906 37.292969 19.289062 37.128906 19.320312 36.992188 C 19.414062 36.570312 19.4375 36.410156 19.460938 35.886719 C 19.476562 35.585938 19.496094 35.339844 19.519531 35.175781 C 19.542969 35.007812 19.554688 34.410156 19.542969 34.042969 C 19.527344 33.667969 19.519531 33.546875 19.492188 33.4375 C 19.46875 33.339844 19.445312 33.3125 19.355469 33.273438 C 19.3125 33.257812 19.277344 33.238281 19.269531 33.226562 C 19.265625 33.214844 19.269531 33.179688 19.285156 33.117188 C 19.300781 33.0625 19.308594 32.992188 19.308594 32.933594 C 19.308594 32.847656 19.304688 32.835938 19.277344 32.796875 C 19.238281 32.742188 19.222656 32.6875 19.21875 32.628906 C 19.21875 32.566406 19.246094 32.484375 19.277344 32.449219 L 19.300781 32.421875 L 19.335938 32.441406 C 19.378906 32.46875 19.421875 32.472656 19.453125 32.449219 C 19.464844 32.4375 19.5 32.394531 19.53125 32.351562 C 19.621094 32.222656 19.671875 32.171875 19.839844 32.027344 C 20.269531 31.660156 20.375 31.480469 20.480469 30.933594 C 20.570312 30.480469 20.613281 30.183594 20.617188 30.011719 C 20.617188 29.898438 20.613281 29.878906 20.597656 29.847656 C 20.578125 29.816406 20.566406 29.808594 20.515625 29.796875 C 20.476562 29.789062 20.445312 29.773438 20.414062 29.742188 C 20.390625 29.722656 20.347656 29.691406 20.320312 29.675781 C 20.289062 29.660156 20.261719 29.636719 20.246094 29.609375 C 20.1875 29.519531 20.046875 29.113281 20.046875 29.042969 C 20.046875 29 20.023438 28.996094 19.945312 29.027344 C 19.839844 29.066406 19.796875 29.074219 19.570312 29.085938 C 19.453125 29.09375 19.351562 29.101562 19.34375 29.105469 C 19.332031 29.109375 19.320312 29.136719 19.3125 29.164062 C 19.261719 29.367188 19.046875 29.6875 18.855469 29.847656 C 18.734375 29.945312 18.71875 29.953125 18.585938 29.949219 C 18.417969 29.9375 18.28125 29.894531 18.101562 29.789062 C 17.960938 29.707031 17.953125 29.707031 17.808594 29.738281 C 17.648438 29.773438 17.554688 29.78125 17.425781 29.765625 C 17.289062 29.75 17.164062 29.714844 17.058594 29.664062 C 16.898438 29.582031 16.804688 29.480469 16.691406 29.269531 C 16.625 29.148438 16.570312 29.078125 16.527344 29.054688 C 16.394531 28.984375 16.171875 28.773438 16.058594 28.617188 C 15.878906 28.363281 15.773438 28.121094 15.644531 27.671875 C 15.570312 27.425781 15.519531 27.28125 15.476562 27.21875 C 15.402344 27.101562 15.285156 26.785156 15.230469 26.570312 C 15.199219 26.433594 15.199219 26.203125 15.230469 26.03125 C 15.285156 25.738281 15.367188 25.515625 15.558594 25.15625 C 15.65625 24.976562 15.679688 24.898438 15.730469 24.605469 C 15.820312 24.089844 15.933594 23.71875 16.105469 23.378906 L 16.191406 23.207031 L 16.097656 23.007812 C 15.898438 22.589844 15.851562 22.402344 15.863281 22.101562 C 15.867188 21.972656 15.875 21.925781 15.898438 21.828125 C 16 21.445312 16.226562 21.023438 16.519531 20.667969 C 16.566406 20.613281 16.691406 20.480469 16.796875 20.375 C 17 20.175781 17.027344 20.136719 17.09375 19.984375 L 17.128906 19.898438 L 17.117188 19.808594 C 17.097656 19.644531 17.09375 19.382812 17.113281 19.25 C 17.152344 18.980469 17.3125 18.695312 17.5625 18.460938 C 17.722656 18.3125 17.972656 18.128906 18.273438 17.945312 C 18.324219 17.914062 18.378906 17.882812 18.390625 17.875 C 18.402344 17.867188 18.425781 17.820312 18.445312 17.765625 C 18.464844 17.710938 18.496094 17.644531 18.519531 17.613281 C 18.628906 17.445312 18.820312 17.300781 19.085938 17.183594 C 19.179688 17.140625 19.199219 17.128906 19.242188 17.078125 C 19.390625 16.902344 19.785156 16.601562 20.167969 16.378906 C 20.25 16.328125 20.339844 16.277344 20.359375 16.261719 C 20.382812 16.242188 20.527344 16.167969 20.675781 16.089844 C 20.863281 15.992188 20.972656 15.929688 21.023438 15.886719 C 21.144531 15.792969 21.230469 15.738281 21.4375 15.636719 C 21.628906 15.539062 21.742188 15.5 21.800781 15.5 C 21.824219 15.5 21.84375 15.488281 21.867188 15.464844 C 21.910156 15.417969 22.039062 15.3125 22.113281 15.265625 C 22.238281 15.179688 22.382812 15.144531 22.589844 15.144531 C 22.792969 15.148438 23.03125 15.195312 23.335938 15.292969 L 23.429688 15.320312 L 23.484375 15.304688 C 23.644531 15.246094 23.867188 15.199219 23.96875 15.199219 C 24.023438 15.199219 24.027344 15.199219 24.066406 15.15625 C 24.15625 15.054688 24.355469 14.902344 24.445312 14.871094 C 24.582031 14.824219 24.632812 14.8125 24.8125 14.8125 C 24.953125 14.8125 25.011719 14.820312 25.101562 14.835938 C 25.339844 14.882812 25.699219 14.996094 26.019531 15.121094 L 26.164062 15.175781 L 26.347656 15.1875 C 26.628906 15.207031 26.773438 15.242188 27.089844 15.371094 C 27.179688 15.410156 27.285156 15.449219 27.316406 15.457031 L 27.378906 15.476562 L 27.433594 15.4375 C 27.464844 15.414062 27.527344 15.382812 27.574219 15.363281 C 27.890625 15.242188 28.253906 15.289062 28.988281 15.550781 C 29.09375 15.589844 29.203125 15.605469 29.539062 15.632812 C 29.792969 15.65625 29.945312 15.667969 30.011719 15.679688 C 30.046875 15.683594 30.054688 15.679688 30.105469 15.636719 C 30.273438 15.5 30.527344 15.433594 30.785156 15.457031 C 30.9375 15.472656 31.117188 15.511719 31.308594 15.566406 C 31.398438 15.59375 31.492188 15.617188 31.515625 15.621094 C 31.554688 15.625 31.558594 15.621094 31.617188 15.5625 C 31.703125 15.476562 31.78125 15.417969 31.855469 15.382812 C 32.128906 15.257812 32.398438 15.261719 32.871094 15.394531 C 33.019531 15.4375 33.261719 15.515625 33.371094 15.558594 L 33.421875 15.578125 L 33.542969 15.457031 C 33.65625 15.34375 33.671875 15.328125 33.769531 15.28125 C 33.914062 15.210938 34.011719 15.191406 34.195312 15.191406 C 34.351562 15.191406 34.511719 15.210938 34.679688 15.253906 L 34.769531 15.28125 L 34.820312 15.234375 C 35 15.085938 35.265625 15.011719 35.539062 15.042969 C 35.738281 15.066406 36.066406 15.148438 36.292969 15.230469 C 36.339844 15.246094 36.386719 15.261719 36.398438 15.261719 C 36.4375 15.261719 36.703125 15.164062 36.9375 15.070312 C 37.359375 14.894531 37.402344 14.878906 37.546875 14.828125 C 37.859375 14.722656 38.003906 14.695312 38.347656 14.6875 L 38.59375 14.683594 L 38.710938 14.582031 C 38.882812 14.4375 38.90625 14.417969 39.109375 14.265625 C 39.324219 14.101562 39.554688 13.949219 39.652344 13.898438 C 39.6875 13.882812 39.71875 13.863281 39.722656 13.863281 C 39.726562 13.859375 39.730469 13.753906 39.730469 13.625 L 39.730469 13.390625 L 39.765625 13.3125 C 39.789062 13.269531 39.84375 13.1875 39.890625 13.125 C 40.035156 12.9375 40.09375 12.855469 40.113281 12.820312 C 40.128906 12.785156 40.128906 12.78125 40.09375 12.691406 C 40.078125 12.636719 40.050781 12.570312 40.039062 12.539062 C 40.019531 12.492188 40.015625 12.464844 40.019531 12.363281 C 40.019531 12.230469 40.035156 12.167969 40.128906 11.949219 C 40.222656 11.734375 40.257812 11.613281 40.238281 11.566406 C 40.234375 11.550781 40.210938 11.535156 40.167969 11.519531 C 40.082031 11.488281 40.023438 11.445312 39.941406 11.359375 C 39.855469 11.269531 39.804688 11.195312 39.738281 11.066406 C 39.667969 10.925781 39.625 10.863281 39.484375 10.714844 C 39.3125 10.539062 39.230469 10.394531 39.191406 10.222656 C 39.164062 10.09375 39.179688 10.003906 39.246094 9.9375 C 39.386719 9.792969 39.773438 9.570312 40.019531 9.488281 C 40.238281 9.417969 40.289062 9.410156 40.71875 9.410156 L 41.101562 9.414062 L 41.113281 9.324219 C 41.132812 9.203125 41.152344 9.128906 41.195312 9.023438 C 41.289062 8.8125 41.460938 8.609375 41.710938 8.421875 C 41.867188 8.304688 41.910156 8.265625 42.015625 8.144531 C 42.054688 8.101562 42.132812 8.03125 42.191406 7.984375 C 42.285156 7.914062 42.308594 7.890625 42.382812 7.789062 C 42.597656 7.484375 42.722656 7.375 42.914062 7.308594 C 43.074219 7.253906 43.304688 7.261719 43.542969 7.332031 L 43.640625 7.363281 L 43.757812 7.296875 C 44 7.160156 44.171875 7.101562 44.316406 7.109375 C 44.367188 7.113281 44.417969 7.125 44.445312 7.136719 L 44.492188 7.15625 L 44.542969 7.113281 C 44.722656 6.972656 44.871094 6.921875 44.980469 6.96875 Z M 44.980469 6.96875 " fill-opacity="1" fill-rule="nonzero"/></g><g fill="#336010" fill-opacity="1"><g transform="translate(18.07622, 49.114335)"><g><path d="M 2.625 0.0625 C 2.21875 0.0625 1.851562 -0.0078125 1.53125 -0.15625 C 1.21875 -0.300781 0.96875 -0.5 0.78125 -0.75 C 0.601562 -1.007812 0.507812 -1.304688 0.5 -1.640625 L 1.359375 -1.640625 C 1.390625 -1.347656 1.503906 -1.101562 1.703125 -0.90625 C 1.910156 -0.707031 2.21875 -0.609375 2.625 -0.609375 C 3 -0.609375 3.296875 -0.703125 3.515625 -0.890625 C 3.742188 -1.085938 3.859375 -1.335938 3.859375 -1.640625 C 3.859375 -1.867188 3.789062 -2.054688 3.65625 -2.203125 C 3.53125 -2.347656 3.367188 -2.457031 3.171875 -2.53125 C 2.984375 -2.613281 2.722656 -2.695312 2.390625 -2.78125 C 1.984375 -2.894531 1.660156 -3.003906 1.421875 -3.109375 C 1.179688 -3.210938 0.972656 -3.375 0.796875 -3.59375 C 0.617188 -3.820312 0.53125 -4.128906 0.53125 -4.515625 C 0.53125 -4.847656 0.613281 -5.140625 0.78125 -5.390625 C 0.957031 -5.648438 1.195312 -5.847656 1.5 -5.984375 C 1.8125 -6.128906 2.164062 -6.203125 2.5625 -6.203125 C 3.144531 -6.203125 3.617188 -6.054688 3.984375 -5.765625 C 4.347656 -5.484375 4.550781 -5.109375 4.59375 -4.640625 L 3.71875 -4.640625 C 3.6875 -4.867188 3.5625 -5.070312 3.34375 -5.25 C 3.132812 -5.4375 2.847656 -5.53125 2.484375 -5.53125 C 2.148438 -5.53125 1.878906 -5.441406 1.671875 -5.265625 C 1.460938 -5.085938 1.359375 -4.847656 1.359375 -4.546875 C 1.359375 -4.316406 1.421875 -4.128906 1.546875 -3.984375 C 1.671875 -3.847656 1.820312 -3.742188 2 -3.671875 C 2.1875 -3.597656 2.445312 -3.515625 2.78125 -3.421875 C 3.1875 -3.304688 3.515625 -3.191406 3.765625 -3.078125 C 4.015625 -2.972656 4.222656 -2.804688 4.390625 -2.578125 C 4.566406 -2.359375 4.65625 -2.054688 4.65625 -1.671875 C 4.65625 -1.367188 4.578125 -1.085938 4.421875 -0.828125 C 4.265625 -0.566406 4.03125 -0.351562 3.71875 -0.1875 C 3.40625 -0.0195312 3.039062 0.0625 2.625 0.0625 Z M 2.625 0.0625 "/></g></g></g><g fill="#336010" fill-opacity="1"><g transform="translate(23.238451, 49.114335)"><g><path d="M 3.0625 -4.90625 C 3.425781 -4.90625 3.753906 -4.828125 4.046875 -4.671875 C 4.347656 -4.515625 4.582031 -4.28125 4.75 -3.96875 C 4.914062 -3.664062 5 -3.289062 5 -2.84375 L 5 0 L 4.203125 0 L 4.203125 -2.734375 C 4.203125 -3.210938 4.082031 -3.578125 3.84375 -3.828125 C 3.601562 -4.085938 3.273438 -4.21875 2.859375 -4.21875 C 2.429688 -4.21875 2.09375 -4.082031 1.84375 -3.8125 C 1.601562 -3.550781 1.484375 -3.171875 1.484375 -2.671875 L 1.484375 0 L 0.671875 0 L 0.671875 -6.515625 L 1.484375 -6.515625 L 1.484375 -4.140625 C 1.640625 -4.378906 1.851562 -4.566406 2.125 -4.703125 C 2.40625 -4.835938 2.71875 -4.90625 3.0625 -4.90625 Z M 3.0625 -4.90625 "/></g></g></g><g fill="#336010" fill-opacity="1"><g transform="translate(28.866775, 49.114335)"><g><path d="M 5.078125 -2.59375 C 5.078125 -2.4375 5.066406 -2.273438 5.046875 -2.109375 L 1.203125 -2.109375 C 1.222656 -1.640625 1.378906 -1.269531 1.671875 -1 C 1.972656 -0.726562 2.335938 -0.59375 2.765625 -0.59375 C 3.109375 -0.59375 3.394531 -0.671875 3.625 -0.828125 C 3.851562 -0.992188 4.015625 -1.210938 4.109375 -1.484375 L 4.984375 -1.484375 C 4.847656 -1.023438 4.585938 -0.648438 4.203125 -0.359375 C 3.816406 -0.0664062 3.335938 0.078125 2.765625 0.078125 C 2.304688 0.078125 1.894531 -0.0195312 1.53125 -0.21875 C 1.175781 -0.425781 0.894531 -0.71875 0.6875 -1.09375 C 0.476562 -1.476562 0.375 -1.921875 0.375 -2.421875 C 0.375 -2.921875 0.472656 -3.359375 0.671875 -3.734375 C 0.867188 -4.109375 1.148438 -4.394531 1.515625 -4.59375 C 1.878906 -4.800781 2.296875 -4.90625 2.765625 -4.90625 C 3.222656 -4.90625 3.625 -4.800781 3.96875 -4.59375 C 4.320312 -4.394531 4.59375 -4.117188 4.78125 -3.765625 C 4.976562 -3.421875 5.078125 -3.03125 5.078125 -2.59375 Z M 4.25 -2.765625 C 4.25 -3.066406 4.179688 -3.328125 4.046875 -3.546875 C 3.910156 -3.765625 3.726562 -3.929688 3.5 -4.046875 C 3.269531 -4.160156 3.015625 -4.21875 2.734375 -4.21875 C 2.328125 -4.21875 1.976562 -4.085938 1.6875 -3.828125 C 1.40625 -3.578125 1.242188 -3.222656 1.203125 -2.765625 Z M 4.25 -2.765625 "/></g></g></g><g fill="#336010" fill-opacity="1"><g transform="translate(34.319212, 49.114335)"><g><path d="M 5.078125 -2.59375 C 5.078125 -2.4375 5.066406 -2.273438 5.046875 -2.109375 L 1.203125 -2.109375 C 1.222656 -1.640625 1.378906 -1.269531 1.671875 -1 C 1.972656 -0.726562 2.335938 -0.59375 2.765625 -0.59375 C 3.109375 -0.59375 3.394531 -0.671875 3.625 -0.828125 C 3.851562 -0.992188 4.015625 -1.210938 4.109375 -1.484375 L 4.984375 -1.484375 C 4.847656 -1.023438 4.585938 -0.648438 4.203125 -0.359375 C 3.816406 -0.0664062 3.335938 0.078125 2.765625 0.078125 C 2.304688 0.078125 1.894531 -0.0195312 1.53125 -0.21875 C 1.175781 -0.425781 0.894531 -0.71875 0.6875 -1.09375 C 0.476562 -1.476562 0.375 -1.921875 0.375 -2.421875 C 0.375 -2.921875 0.472656 -3.359375 0.671875 -3.734375 C 0.867188 -4.109375 1.148438 -4.394531 1.515625 -4.59375 C 1.878906 -4.800781 2.296875 -4.90625 2.765625 -4.90625 C 3.222656 -4.90625 3.625 -4.800781 3.96875 -4.59375 C 4.320312 -4.394531 4.59375 -4.117188 4.78125 -3.765625 C 4.976562 -3.421875 5.078125 -3.03125 5.078125 -2.59375 Z M 4.25 -2.765625 C 4.25 -3.066406 4.179688 -3.328125 4.046875 -3.546875 C 3.910156 -3.765625 3.726562 -3.929688 3.5 -4.046875 C 3.269531 -4.160156 3.015625 -4.21875 2.734375 -4.21875 C 2.328125 -4.21875 1.976562 -4.085938 1.6875 -3.828125 C 1.40625 -3.578125 1.242188 -3.222656 1.203125 -2.765625 Z M 4.25 -2.765625 "/></g></g></g><g fill="#336010" fill-opacity="1"><g transform="translate(39.771648, 49.114335)"><g><path d="M 1.484375 -3.9375 C 1.640625 -4.207031 1.875 -4.4375 2.1875 -4.625 C 2.5 -4.8125 2.863281 -4.90625 3.28125 -4.90625 C 3.707031 -4.90625 4.09375 -4.800781 4.4375 -4.59375 C 4.789062 -4.382812 5.066406 -4.09375 5.265625 -3.71875 C 5.460938 -3.351562 5.5625 -2.921875 5.5625 -2.421875 C 5.5625 -1.941406 5.460938 -1.507812 5.265625 -1.125 C 5.066406 -0.738281 4.789062 -0.441406 4.4375 -0.234375 C 4.09375 -0.0234375 3.707031 0.078125 3.28125 0.078125 C 2.875 0.078125 2.507812 -0.0078125 2.1875 -0.1875 C 1.875 -0.375 1.640625 -0.609375 1.484375 -0.890625 L 1.484375 2.28125 L 0.671875 2.28125 L 0.671875 -4.828125 L 1.484375 -4.828125 Z M 4.75 -2.421875 C 4.75 -2.785156 4.675781 -3.101562 4.53125 -3.375 C 4.382812 -3.644531 4.1875 -3.847656 3.9375 -3.984375 C 3.6875 -4.128906 3.410156 -4.203125 3.109375 -4.203125 C 2.816406 -4.203125 2.546875 -4.128906 2.296875 -3.984375 C 2.046875 -3.847656 1.847656 -3.640625 1.703125 -3.359375 C 1.554688 -3.085938 1.484375 -2.773438 1.484375 -2.421875 C 1.484375 -2.054688 1.554688 -1.738281 1.703125 -1.46875 C 1.847656 -1.195312 2.046875 -0.988281 2.296875 -0.84375 C 2.546875 -0.695312 2.816406 -0.625 3.109375 -0.625 C 3.410156 -0.625 3.6875 -0.695312 3.9375 -0.84375 C 4.1875 -0.988281 4.382812 -1.195312 4.53125 -1.46875 C 4.675781 -1.738281 4.75 -2.054688 4.75 -2.421875 Z M 4.75 -2.421875 "/></g></g></g><g fill="#336010" fill-opacity="1"><g transform="translate(45.718391, 49.114335)"><g/></g></g><g fill="#336010" fill-opacity="1"><g transform="translate(14.022646, 58.64138)"><g><path d="M 4.296875 -1.359375 L 1.625 -1.359375 L 1.140625 0 L 0.296875 0 L 2.5 -6.09375 L 3.4375 -6.09375 L 5.640625 0 L 4.796875 0 Z M 4.078125 -2.015625 L 2.96875 -5.109375 L 1.859375 -2.015625 Z M 4.078125 -2.015625 "/></g></g></g><g fill="#336010" fill-opacity="1"><g transform="translate(19.949976, 58.64138)"><g><path d="M 4.953125 -4.828125 L 4.953125 0 L 4.15625 0 L 4.15625 -0.71875 C 4 -0.46875 3.785156 -0.269531 3.515625 -0.125 C 3.242188 0.0078125 2.941406 0.078125 2.609375 0.078125 C 2.234375 0.078125 1.894531 0 1.59375 -0.15625 C 1.300781 -0.3125 1.066406 -0.546875 0.890625 -0.859375 C 0.722656 -1.171875 0.640625 -1.550781 0.640625 -2 L 0.640625 -4.828125 L 1.421875 -4.828125 L 1.421875 -2.109375 C 1.421875 -1.628906 1.539062 -1.257812 1.78125 -1 C 2.019531 -0.75 2.347656 -0.625 2.765625 -0.625 C 3.191406 -0.625 3.53125 -0.753906 3.78125 -1.015625 C 4.03125 -1.285156 4.15625 -1.671875 4.15625 -2.171875 L 4.15625 -4.828125 Z M 4.953125 -4.828125 "/></g></g></g><g fill="#336010" fill-opacity="1"><g transform="translate(25.578301, 58.64138)"><g><path d="M 0.375 -2.421875 C 0.375 -2.921875 0.472656 -3.351562 0.671875 -3.71875 C 0.867188 -4.09375 1.144531 -4.382812 1.5 -4.59375 C 1.863281 -4.800781 2.273438 -4.90625 2.734375 -4.90625 C 3.316406 -4.90625 3.800781 -4.757812 4.1875 -4.46875 C 4.570312 -4.175781 4.828125 -3.773438 4.953125 -3.265625 L 4.09375 -3.265625 C 4.007812 -3.566406 3.847656 -3.800781 3.609375 -3.96875 C 3.367188 -4.132812 3.078125 -4.21875 2.734375 -4.21875 C 2.273438 -4.21875 1.90625 -4.0625 1.625 -3.75 C 1.34375 -3.4375 1.203125 -2.992188 1.203125 -2.421875 C 1.203125 -1.835938 1.34375 -1.382812 1.625 -1.0625 C 1.90625 -0.75 2.273438 -0.59375 2.734375 -0.59375 C 3.078125 -0.59375 3.363281 -0.675781 3.59375 -0.84375 C 3.832031 -1.007812 4 -1.242188 4.09375 -1.546875 L 4.953125 -1.546875 C 4.828125 -1.054688 4.566406 -0.660156 4.171875 -0.359375 C 3.785156 -0.0664062 3.304688 0.078125 2.734375 0.078125 C 2.273438 0.078125 1.863281 -0.0195312 1.5 -0.21875 C 1.144531 -0.425781 0.867188 -0.71875 0.671875 -1.09375 C 0.472656 -1.46875 0.375 -1.910156 0.375 -2.421875 Z M 0.375 -2.421875 "/></g></g></g><g fill="#336010" fill-opacity="1"><g transform="translate(30.916419, 58.64138)"><g><path d="M 1.65625 -4.15625 L 1.65625 -1.3125 C 1.65625 -1.082031 1.703125 -0.914062 1.796875 -0.8125 C 1.898438 -0.71875 2.078125 -0.671875 2.328125 -0.671875 L 2.90625 -0.671875 L 2.90625 0 L 2.1875 0 C 1.738281 0 1.40625 -0.0976562 1.1875 -0.296875 C 0.96875 -0.503906 0.859375 -0.84375 0.859375 -1.3125 L 0.859375 -4.15625 L 0.234375 -4.15625 L 0.234375 -4.828125 L 0.859375 -4.828125 L 0.859375 -6.03125 L 1.65625 -6.03125 L 1.65625 -4.828125 L 2.90625 -4.828125 L 2.90625 -4.15625 Z M 1.65625 -4.15625 "/></g></g></g><g fill="#336010" fill-opacity="1"><g transform="translate(34.117526, 58.64138)"><g><path d="M 1.09375 -5.609375 C 0.9375 -5.609375 0.804688 -5.660156 0.703125 -5.765625 C 0.597656 -5.867188 0.546875 -6 0.546875 -6.15625 C 0.546875 -6.300781 0.597656 -6.425781 0.703125 -6.53125 C 0.804688 -6.632812 0.9375 -6.6875 1.09375 -6.6875 C 1.238281 -6.6875 1.363281 -6.632812 1.46875 -6.53125 C 1.570312 -6.425781 1.625 -6.300781 1.625 -6.15625 C 1.625 -6 1.570312 -5.867188 1.46875 -5.765625 C 1.363281 -5.660156 1.238281 -5.609375 1.09375 -5.609375 Z M 1.484375 -4.828125 L 1.484375 0 L 0.671875 0 L 0.671875 -4.828125 Z M 1.484375 -4.828125 "/></g></g></g><g fill="#336010" fill-opacity="1"><g transform="translate(36.280917, 58.64138)"><g><path d="M 2.78125 0.078125 C 2.332031 0.078125 1.921875 -0.0195312 1.546875 -0.21875 C 1.179688 -0.425781 0.894531 -0.71875 0.6875 -1.09375 C 0.476562 -1.476562 0.375 -1.921875 0.375 -2.421875 C 0.375 -2.910156 0.476562 -3.34375 0.6875 -3.71875 C 0.90625 -4.101562 1.195312 -4.394531 1.5625 -4.59375 C 1.9375 -4.800781 2.351562 -4.90625 2.8125 -4.90625 C 3.269531 -4.90625 3.679688 -4.800781 4.046875 -4.59375 C 4.421875 -4.394531 4.710938 -4.109375 4.921875 -3.734375 C 5.140625 -3.359375 5.25 -2.921875 5.25 -2.421875 C 5.25 -1.921875 5.140625 -1.476562 4.921875 -1.09375 C 4.703125 -0.71875 4.40625 -0.425781 4.03125 -0.21875 C 3.65625 -0.0195312 3.238281 0.078125 2.78125 0.078125 Z M 2.78125 -0.625 C 3.0625 -0.625 3.328125 -0.691406 3.578125 -0.828125 C 3.835938 -0.960938 4.046875 -1.164062 4.203125 -1.4375 C 4.359375 -1.707031 4.4375 -2.035156 4.4375 -2.421875 C 4.4375 -2.804688 4.359375 -3.132812 4.203125 -3.40625 C 4.046875 -3.675781 3.84375 -3.875 3.59375 -4 C 3.351562 -4.132812 3.09375 -4.203125 2.8125 -4.203125 C 2.507812 -4.203125 2.238281 -4.132812 2 -4 C 1.757812 -3.875 1.566406 -3.675781 1.421875 -3.40625 C 1.273438 -3.132812 1.203125 -2.804688 1.203125 -2.421875 C 1.203125 -2.023438 1.269531 -1.691406 1.40625 -1.421875 C 1.550781 -1.148438 1.742188 -0.945312 1.984375 -0.8125 C 2.222656 -0.6875 2.488281 -0.625 2.78125 -0.625 Z M 2.78125 -0.625 "/></g></g></g><g fill="#336010" fill-opacity="1"><g transform="translate(41.909242, 58.64138)"><g><path d="M 3.03125 -4.90625 C 3.613281 -4.90625 4.085938 -4.726562 4.453125 -4.375 C 4.816406 -4.019531 5 -3.507812 5 -2.84375 L 5 0 L 4.203125 0 L 4.203125 -2.734375 C 4.203125 -3.210938 4.082031 -3.578125 3.84375 -3.828125 C 3.601562 -4.085938 3.273438 -4.21875 2.859375 -4.21875 C 2.429688 -4.21875 2.09375 -4.082031 1.84375 -3.8125 C 1.601562 -3.550781 1.484375 -3.171875 1.484375 -2.671875 L 1.484375 0 L 0.671875 0 L 0.671875 -4.828125 L 1.484375 -4.828125 L 1.484375 -4.140625 C 1.640625 -4.378906 1.851562 -4.566406 2.125 -4.703125 C 2.394531 -4.835938 2.695312 -4.90625 3.03125 -4.90625 Z M 3.03125 -4.90625 "/></g></g></g><g fill="#336010" fill-opacity="1"><g transform="translate(47.537566, 58.64138)"><g><path d="M 2.390625 0.078125 C 2.015625 0.078125 1.679688 0.015625 1.390625 -0.109375 C 1.097656 -0.234375 0.863281 -0.40625 0.6875 -0.625 C 0.519531 -0.851562 0.425781 -1.117188 0.40625 -1.421875 L 1.234375 -1.421875 C 1.265625 -1.179688 1.378906 -0.984375 1.578125 -0.828125 C 1.773438 -0.671875 2.039062 -0.59375 2.375 -0.59375 C 2.675781 -0.59375 2.914062 -0.660156 3.09375 -0.796875 C 3.269531 -0.929688 3.359375 -1.101562 3.359375 -1.3125 C 3.359375 -1.519531 3.265625 -1.675781 3.078125 -1.78125 C 2.890625 -1.882812 2.597656 -1.984375 2.203125 -2.078125 C 1.847656 -2.171875 1.554688 -2.265625 1.328125 -2.359375 C 1.109375 -2.460938 0.914062 -2.609375 0.75 -2.796875 C 0.59375 -2.992188 0.515625 -3.242188 0.515625 -3.546875 C 0.515625 -3.796875 0.585938 -4.023438 0.734375 -4.234375 C 0.878906 -4.441406 1.085938 -4.601562 1.359375 -4.71875 C 1.628906 -4.84375 1.9375 -4.90625 2.28125 -4.90625 C 2.8125 -4.90625 3.238281 -4.769531 3.5625 -4.5 C 3.894531 -4.226562 4.070312 -3.859375 4.09375 -3.390625 L 3.296875 -3.390625 C 3.273438 -3.640625 3.171875 -3.835938 2.984375 -3.984375 C 2.804688 -4.140625 2.5625 -4.21875 2.25 -4.21875 C 1.96875 -4.21875 1.738281 -4.15625 1.5625 -4.03125 C 1.394531 -3.914062 1.3125 -3.753906 1.3125 -3.546875 C 1.3125 -3.390625 1.363281 -3.257812 1.46875 -3.15625 C 1.570312 -3.0625 1.695312 -2.984375 1.84375 -2.921875 C 2 -2.859375 2.21875 -2.785156 2.5 -2.703125 C 2.84375 -2.609375 3.125 -2.515625 3.34375 -2.421875 C 3.5625 -2.335938 3.75 -2.203125 3.90625 -2.015625 C 4.0625 -1.835938 4.140625 -1.601562 4.140625 -1.3125 C 4.140625 -1.050781 4.066406 -0.8125 3.921875 -0.59375 C 3.773438 -0.382812 3.566406 -0.21875 3.296875 -0.09375 C 3.035156 0.0195312 2.734375 0.078125 2.390625 0.078125 Z M 2.390625 0.078125 "/></g></g></g></svg>